<mxfile host="app.diagrams.net" modified="2023-05-29T09:42:16.583Z" agent="Mozilla/5.0 (X11; Linux x86_64; rv:109.0) Gecko/20100101 Firefox/113.0" etag="sj1MhknayHmvGSFwaRK_" version="21.3.5" type="device">
  <diagram name="Page-1" id="-NaAwrZ-JbrClvvnECAx">
    <mxGraphModel dx="1886" dy="869" grid="1" gridSize="10" guides="1" tooltips="1" connect="1" arrows="1" fold="1" page="1" pageScale="1" pageWidth="850" pageHeight="1100" math="0" shadow="0">
      <root>
        <mxCell id="0" />
        <mxCell id="1" parent="0" />
        <mxCell id="9IUaXPzacB2-Hm3dFwya-1" value="" style="shape=image;verticalLabelPosition=bottom;labelBackgroundColor=default;verticalAlign=top;aspect=fixed;imageAspect=0;image=data:image/png,iVBORw0KGgoAAAANSUhEUgAAAxUAAAOQCAYAAABPYFxhAAAABHNCSVQICAgIfAhkiAAAABl0RVh0U29mdHdhcmUAZ25vbWUtc2NyZWVuc2hvdO8Dvz4AAAArdEVYdENyZWF0aW9uIFRpbWUATW9uIDI5IE1heSAyMDIzIDExOjEyOjQ1IENFU1SisK44AAAgAElEQVR4nOzdd1hT1xvA8W9CIEFkCSLiwFlwb7HuUfeuq7bV1tlqq62rWn+ttXaoddXROmtra2vVtu6Fita9B+4tbkEEZCUh4/cHIKBAAgHR+n6eJ88jObnnvufce27ynjtUmM1mM0IIIYQQQgiRTcq8DkAIIYQQQgjxYpOkQgghhBBCCGETSSqEEEIIIYQQNlHF6eSWCiGEEEKkWBxyKdPyvr5ln1EkQogXhZypEEIIIYQQQthEkgohhBBCWG2Inx9OGvn5IIRIS44KQgghhBBCCJtIUiGEEEIIIYSwiSQVQogkeu4fW8Pea3kdhxAiJ4Qf38Kuq9HY/DgW8x1OTerPpIa1+ea74zkRmhDiP+iFSSruBd9kwc5oYvM6kFzyX2+fyFzsrRMcvxBGQl4FEB/Mondq0bDfIs5E51UQIiP39i1mwaozcnwQWZJwcyOftapC+y+3EmZDZmH69weWbfei7V+7GftJtZwLUAjxn5LLSUU80/puoMcWU7qlWyduwanehqTXYf7UZ1SPgZ1/nGHknFucy7VYM3H4FIXbn2Zfri2fW+3LvP9tZf32y2s6bu75jQUzvmbKpAlMmbaGZzoZf30Ds2Zv4laGH9ARcnAT24NO8OAZhpXiHsv7tGWWcjSBB9cxsHLy++f5prqSt1YYHn/y0JiSePVfnydR/iet7YVL+U8JzvRDj9g5Yygjx/ySveND0CAKFx+SjePXf3v7bx/ijYdbvqTX66zQZq0cLjC5Tj7e/Tulf4585k+xQZtyPXZreXeYyc79v1B1ay+6TT6BwfIi6dKFh5NQuBy+XmoUORqhEOK/RPUsVqLI4CjU7JPmhI8A7lyl0VsRmdSg4o2JLehsVKLOjQDzXO62L6P+t5X12y+PxZ9m755Y/HuPoK6XPSiU2OV1TGmoKd/lE/xMdnkSl+nANCYcaMKUU2/i65AHAQgLXHhjRTidDercP/4ZIwg+94hKFX2fgx+PDzh/UkvJKkVzpd1NZoRwZ4oZrn9P8zqHslz+olB6NGT87AHUaTWBfwb/Q3eXrNehcXVFERFBLJCNxYUQLwkLZyoSZ7rbzrzCO4N2U7nTdmqPvcqRuOTyGL55ewNvbUs5r3poThBeX4emqSXh6g3e7rUVr9e28ern1zmZNOOjtFOicVCiUSky/AJb9+WmxJnw+pso0O8yV578QFQEM8btxb/VZrza7KDVd7c4n4VrSMyh9/lkyE6KNd2Ic+NAKg46xYpbSe05EIxXvQ04fXyDRw9DaJ48Kz/oGveTK4iO5Iev91Gl3Ra82uygxaRbXEhevxXL53b7IOP+ByAinMljd1O25WYKtdtJ++/vctVoXbk124+oh0z5bDdlWm7Bu+1OOv1wn5upT5xk1n9J+1/76ZfoPmAXlTptp+64EE5l9YyIVosOVzy9HFGpVKjslEnxPmDvogmsOZcS0J2gmXy/4WLSX5Ec/GUCK7fuYtWvc1n4w/csWXOE0NTTffE3ObRmEfO/n8j3M2fz5+aThCf339V1fD9pAlP+PIou9jDLJk1IPFOy9ODjy1gurfsm8b1J3zD9l908lZrFXWf/qgXMnfEtM2f9wMptZ4l8HK4V8Vnhws4gwhu25zXnrC0HYL61hk9a+lHM3R5nVw8qNh3EiiupAgjfzZQ3q1OmkCveRcvRaeyaNNt/98eFKdZjBJ+2CaCaX1EqNBnIysvWNsDyTLH59nrGtq9MWW9nChbyoUarIfx9NXV8e5nxTh0qFC9EiTJV6T5uPbdSxbd3VAnKvj2azzs1oE7l0lRvNZh/rmR3vjfr1vVxxEmjxMnRkQL1vn7q+JBp/wcOwEujxKnNfB6F/kBzjTKxribfpxy/kiWEcvj3/9GzdmV6L71i9TX4ubv9HxA4vDY1Wg1m7rarxFvda6lEHmX++82oVdaLYqUq0G7oUi4mHT+UKjVqjQa1gyrd45elcmvk9v5nsf4kqmodaeW5k137s9cOhZsbjtHR2dsGQoiXhlWXP50N0zBxTgOCVwTQPeIC7y/L2kXXx6/AqB9f49byqtQPOcegFdZfGdz2fy0J39Gau2MLpVNqZMOsI8yI9WHZn825vqQKdS6dptdv1se39/dTLHMuzZ6NrXm4vj7f1khg48Gk5WtX4uaO1oRPK4ZLAV827mhN+I7WhM8qQWI0JjbNPsKs+CIsW9aCm79WotLpYAb9HWfl8rnfPsis/42sn32UeabirF7ZnCsLK1Dm6Ene/yfeynJLjKyZcYR5lGTbupbc/r0SfoeOM2BV8vIW+i/J2UgnZs5vyKnltWh58wwfr7Jy/fd28svMKcxZsoswrrD1hynMmTmFOXM3ccPKFgCExXnQvNcgBrzXk1IPN7PteGRSiYHL2//kkK4SnQaO5IO+HSgSupG1+5OS6pJtGTJyLMO6V0PtVIMeI8cybORYhvWsjVNSDWXajmHYyLEMbfNKOms2cHn7Co6batB10CcMeqcl7iFr2HQsMs2nMo7POg/CwnD18iI7Jyn2Th/MMrcx7Lmt4+GNI3zb+CEbA08llcayZnhH5vEx20KiuH1iHn5b32LAgrS9/+iSks4rDnL8whnmVd3Fex8tzrHLwPbPGspK15FsvxbFnUv7mNAwgs3bzjyOb/3orixkCBsv3ufKgdmU3f4ug3+6mTa+y0o6/r6bA8HHmV15Lx+O/PWZXabWdkEk4ZFx3F3QPt3yTPv/tbncjIwjfE1/XLzeZ2NkHOGRcYRvGfL4+IP2JrsXDqdjjdp8tEFJx/lHOTKpqdXXxebu9vdnaOAZ/hhQhMPjm1CtUR9mrDvHI6vvDdCx5X9d+SGuJ78evs3lfXOocOgDhi68bm0FNsvt/S/z+lPzppC3lrCwR1lvhDGO0HNXMfgWp0DWlxZCvESsuvypcoAXPnaAXX7a187P+IuPMOBs9bVTVRoVpYqzAvCkXxMn5l96hAknq764lColmgwjjeXAKQPNh5SkmhtAAUb+rwYVo1SYsC5jcnJUoY+I5dxNLS4l8tGhf3U6PF65ArWDAuwS56nsHZJiSYmO1mNfo3Xyn86edKutYenVGCCfFcvnfvsgs/6P5eBpI02H+FLBBXApyMAm+Xj1dBTmbo4oLJZbEsPB0yZajixKCQfAwYO+jZ2ofSIScxdHFJb6Lzn+AC8KKwG1Cy2qqZl7NQZwtNzwgq/SrW91TFFHWLn0NlXf6UhZO0DhkKp2ywqVLEt+BaAqRKni+TkW9gBwAx5w55aeks0CKJQPwJeANt0pGO+AGVAolNiplKBUAkqUKtVTm1mhtEOl5PE+ktYD7txOwLdZDQpqAE0Zqvq5s+T2XajpZkV81jGZTChU2ZuLdXJyQh96iXOXbuLiX4IO45anjB/Oc/BAAi1n96aEBtA0om/nMtTecxDz+8Uf7z/5ajejdn4AVxp060jR9y9zGfDMVkRPxJfPCd2Dy5y/fAvnV3xpO3YpbR+XXuTwIQPNp7+FrwbQNOCdjqVosO8w5gHFUuKr1ZSaTgAu1Hu9HT5DLnM1h+KzRGmvRmMP2Kc/2jPtf6UKtUYF9naAHfYazRPHn7N817QVmyoNZdSKYFr7u2R5Rj7Xt7+dO5W7/I/FXT7iauBiZk1vT61Nszn7Y2srLhVU0/KHa7R8/HcTujQtxJ9nLwAlstjS7Mnt/S/z+lNToFCAyZSFu7V1G1hce2zifTyOpWk8+/UsHFWEEC8jq/ICVaofPCqVArPBjMHahQGHVF+I9iolxgRTln4UZ8yETq9AbZ/yTv4SBemahRqq9arOJO1FJn++h9P3zBSp4sPnIyvQpZg1X69mruw4x8jfwrgWn3iw1kVqMdfLUiMyYXv7ILP+f7p+B3slCTojRkBlsdwSMwaDidWTd7Iv6deMWWfApRqYADsr+89elRK/nVKByWjlF6OdGidnNRjU2KFCk98F52zcRaS0S1m/QqHAbE6+PsGAwajELtWvGwfP0vhnfRUZeLp+O5UdJoMhzfjJOD7rKJVKzObsPRqm2qjlTIqbwOS3Azh9I4EidXvy+ezv6VJGBSRgSNCyenA59iVlceb4KFwaKJK2fyKVKtVGqTuZ4MzvWs6SKsOX8vU33zCtTwPO3EzAp053xk6fSqfSifElJGhZ91FVDiTFZ4qPwqX+k/Gl2gB1vuHI4ZyLz1aZ978lzpSs7MntXZsIrFSRcsVaUdLJ8lLWrz/ntr8x4jonjx3n5A0H/NoUtDL5MXJtzVjGTN/K9bjEMaF7cA9Tq9x5cEV6cnv/y7z+1MyYzaBUZiFtVLel78m2YIonfOUIpn37CzVXfUB659SFEAKszAt0+pSDsD7BhNJembSgHY5q0CWkHAJ1ehMaddp0QZ+Q8hMowWDCzl6ZQ4+dUqJ2MBOe6h6DmOthbI7Kz+tVHK1bh5MLfT6uSR/AFB/Hysn76T+vAO2/8bF8OUjsHUaND6Pc3HqsKp/YIwdnB9E+KnuteVoOtI/M+v/p+vUJJuzVyTcMWyq3RIFKZUfX0Y2ZVSud4lzvP0vsUanAaDCS3D9GoxGVyj7zxR5TobIzEZ/qHhR9+BWuxnngV8wtB250fbp+o8GIUqXK0ce2uRfwIOr8ffTwxD6vRq0GfYKe5EOFXq/HQZ3qtlmXavSZtipx/MRcZeUHjen/eX3aL3sDB+xR2een69xzzGqagwE/5ojGEfR63eP4dHodjo6p5uOdq9B70gp6A6bYa/z9UQsGfVmPNr92wwF77O2d6DzrBNMa50Z8z0Cm/W9JMbrNO0Lzs2tYMO1LWn3/BQ37j+Sj916norsdz8P2193Zw7I5U5nz12VKdx3OpKD5BHhbeaFe9HI+7R+I/6bdLK+ZH4DD//Pj9YfZi+Vpif2TkLp/EvSo1aniy+39L9P6U7tP6H01BTyyceOU0hGP4oWxi47hqQdgCSFEKlb9Njmz+zbHHpnRh4fz878x+JdJvvRJQ0AlDXu3hHA6xkTsnbv8stdI3Sppnw9x4t9bnIoxow9/wE87YqlY1jntil0d8FTEcPC4jli9Ca3eRPJktCEh8W+9AcBEQlK5wQzgRJ1KKratvc7JKCNx4RFMn3iUSUcSrPzRZWDNtD30+PkBt+LMoFSSz0GB0u6JG49d7HGPjiX4jgGt3oTOkBScyUSCyYxBD2Yg4WE4606mcxdxRsvnevsSZdz/TgRUtGPHphucizYScy+Mn3bGEVDJNan9lsqTZLj98hNQUUHQ1nvcSgCzNo6lk/fx1qrYrPVfrnGhSFEXbp05QpjWSELkWYIv6yla1NvK5T3xKerA9ROHCI03kBBzk0MbV7A/RJe2fzQaNNpwQiN1GAwGjKkuQTAZDYnvGc2ACZPBgMFgxJRcfxEHQk4d44HWgD7qCicvROBT1CenOgAA//oNcNm1lsCnbtUpTo0ahdj35wJORcQTc20Vv26KoGat5GfORrPmo9r0+HY7t6KNYKcmn1qFUpV8Y2s5AuooCPpzFbd0YI67wtLBDXhrwcUnV5RNRakdUIT9KxZxJkpP3PVVLN0US0CdKo/jWz+yPm9/t4PbMYnxOalVKB7H50et2gp2rlzLbR2Y46+y7KNmvPvTpayFYdrGEN98lOjzT/b+HwmzEb1Wi/bxS580fswYdInv6RNMYDaSoNWi1eqSjg+W+j+JmzvuURcIvvYIrVabNAmUTIlb+c588tN+jm35kso3f6Tb8L9IzGPzevsf5duuH7HDsQeL959k+bd9rU8oAIwJJBiNJOhNiceX0J1s3J9ORlHAEw/FBY7svU+cVovucf9bKi9GtepeHFi5mNMR8cRcX8vvWyKpXqPS4/7J3f3PUv2puuLkWjaHNqBB7exNdSQ8CENbsKA8+UkIkSmrzlRUfUXJ7CHb2HAbfGv7M/eN5NkOBfX61+CzaWfo0uUikQ75aNi+OrOapz3wVylp5tv3trHtPpR+tRzzu+dPuwJnH8YNvsfAL4IoFG3CjDPj/mjIaN9Ixnbbyw9hyR+8T40mlwANQxc0Y2IFO9oOrcHH087Rvft5HirVVG9UgV97WXvoU/Fau2KsnhJMrSXxxCjs8fUvzLyx3qSZq37Fl69aHWXE24GM0Jlxal2L0M+8wLkIE0eFM3jCDkqZVXiVKMwbZTU89T+YZbQ8ud2+RBn3vx3thtTg9JSzdOh6lkcqDbWaV2FuZ0cry5NkuP3s6DisBucmn6VhmxPE2aupWLcUU1omXWNhbf/lGgVFG3Sn3pZN/D1vJzo7N4pV6UqLClbcrwGAijLNevAwMJB/5m9DizOF/FrTvs4TFwh416RRxZVsW/Qd2w1m7Cu9wcdtXwFusXPeYo4+/jF/kcVT/wWcqdV7GI19VJRp1o2wLYGsnLsZvZ0rhct3pHU11xzrAQBVw+GMrlyHTz9cQvn571Dq8US/HU0mrGT4Bx/xuv//iLIvRu03fmNOr+T2OfPaO++yemg/ak26SYzSDd/qXZm3oHPS+MlHx+mrODf4IxoW7U2cvRcV2wxnSs/0bkrPDiWvjv2TMSOG0bPyV0Spfanf+3emdUu+ndSZpm/3Zu3w96k/9RYxSleKV+3MnB86PI6v3eQVnP9oBK+V7ke8Q0HKt/yIiT3KZi2MEzvZHeVDz4EdyOLVQ4muTaWR29RUb1Rg3MlTjPY7yNhydfnhTvL766jh9iVQhKG7bjKxtqX+T1Ltfb56sysjqhdgRLwJp7fXErqo3VNhOJVuxZAfWjFQG590JjKvt39FPg06gkaTzXN+bm8wYcZuPhpYkXJmF7z8OtO1UhF4ct7CrTtjv1zL4H7+FI/UYaYcYw8dZcQrlsrtaPT5Hwz5eARvVPmCKIei1Oq6mBlvej3un9zd/yzVn8gYup3PBs/DYfBaunhkrytRKFA8uk1YRAJu7taeyRVCvGwUsdrM7tyKZ1rfIPZ3a8VfrZ+vJ/sLIXJQ3CkWDOjGxGM+DP8jiCHyn+Za7dqMetT6qx0H935K6bwORohU7vz9Hp1GbsTz3SX8Oq4pnlnIzxaHpDpjorvAvi++JGjXRRSdFnLvpzcAiNU+u/tThBDPP6vOVGT3Jk4hxAsiXyUG/n6aLmcCuZiVR2O99CL5999zNB64ShIK8dxRl+7GrD3fU6eItWdfM6rIj7qT/qBu0p9DfrI5NCHEf5CFMxVCCCGEeNmkOVPxhCF+foCcqRBCpJWTD5ERQgghhBBCvIQkqRBCCCGE1WZfuCBnKYQQT5GkQgghhBBCCGEThTmdu7D7rV/PT+2efuSgEEIIIYQQQjxJzlQIIYQQQgghbCJJhRBCCCGEEMImklQIIYQQQgghbCJJhRBCCCGEEMImklSkoefe0TXsvprXcbxsDCzr7kjApAvZLBfCGk+P7/Bjm9lxJZqX+38AlfEn4GUcH1a3zxzC6uGtqODjTtlR+2xYo5Gb2xYyZ+15tNkqF+L59sIkFXdP3OTHoGhic2sFccHMfbMmtXovJDg6t1YihMgTGYxv/Y1NjG5ameafBxL6X/3lJP7z7u1bwvzVZ7P//fiSjg9r22fYMIF+a3z49shdLk6pm/0VRhxn1xlHAur7o8lOuRDPuRckqTCw/bfTDP3+JmcyKN+54AClGm1AUXM9igYn2Jyl+u/xe+82TFeOYffx9XxQJSdifvFt/mpzYn/WXI+i5iGW6rNWLp6RoCF4+w7j6fmzEKbWdcTRMfGV36MYlVp+yNIzcXkQ5LOxb1RpvAcFPvFuxuO7cKeZHDi2hOqBvejwzQkMzzTazMn4e0FkOP60/PZ6yvh7/Go6h/s5GsAjdnw/nBFjfuVcqncDB3mnWu/rLMtw6vvlHR/Wti8mNJS4YlWp7aNBke2IdVzYc5DYCg2oViA75RkwRHJpz18s+H4a05Yf4797dBcvghckqVDx9tSWxP5TntrpFUfeZvwCHd3nNCduXxvit1ehRRZqN+2bxud7mzD9xzcp4ZBDIf8HtBjbgvh9bYhf4UflbJSL50O7RQ+Ijo4m/NouplU7ztDXx3P4PzjrmBFL41vp0ZBv5w4geuoEVkY9+/gyIuPvv6HmVyeJiIhIeW0eRKEcXYMLPZffIfzUJGqmeve12SGJ6zv2BZUyWfplHx/WtM+lgDvK8Ac8sCFe072D7LnmTb1XfVFlozxdMRfZ+OsKjujLE+DvhKOHJ/lsiFEIWz33ScXqzzcmzjTU2oim9yUup/eh6AQicaSinwOODko0DoosNexcUBAPGnegpcuTJRf4uoYjPVemzF8cGuOH54CNj/8231rHqFaVKFIgP05uhSnfbAgrrqSa7wjfy3dv1qGUtxeFilWh49h13DSlFO8a5kuRHp8wum19qvqXolzTway8nFPzQXFM6rWeFt9douO7/1KmzTaqj73OycczNjGM776eroEpvzAPfL+d/OMT59GUdko0Dko09op0Z2cslee953/7Ga+sZHCTV/D29MKv6WjGv1uaIkOCrFt/4CA8HR1xbLuIqNB5NMtgJlShtEOlUqF2KUmLIT2peOMgB+8mFUYeZU7/plQqXhDPIuV5bfBSzqea0bPUP5mVX5lal3JjjwD3mN0sX9K1yHqWdS/Gx/8mVRC2i0lv1KG0dwEKFq9Cu5GruJqq+yz1r/HaKj5s5oe3ZyHKtxrP7sin98SMx3cKVfVOtC24gx22XC79FBl/Mv5AoVKj0WhSXg52yZ1B6UpdGdm/GZWr9WXKzFG0D/Cj4fi9KbPNFsbnuj5uievM54Zb/UlcSbVeZfJ6HVSZ7h8yPiy3T1nAA7fIKLKfU0VzctcJVDUbUN4pO+UZiFdQrHUvejYtDdGxeHh4ZDtCIXLCc59UdPiiFfH72hA5Lp25nXMXqdwsEM93LnGaMAa1DsSzWSCe7U8T9PSnMxQWFopbIS+yc5Ji74yh/OE6in23HhEZsp9JjR6yPjD5Iq1Y1gzvylyGEHQ9lDvH5/DKtnfpv+BmmjoeXVbSZfkeTpw/zvyqexjw8ZKkGZFDjCqdzunz7suSTtNaKk90OtKJuYsbcXlVbdqEnGHwX3KCNFnubj9Lolk+ZiCbi45n/427BP/amMjT4anKLaz/tdncjoggYnUfXL0GsMniTGgsp1ds4JxnJSoVAtCxcXQXZsb25M/gO9w+8gOVDw7m/XnXreyfzMtL+pcj7PJl9JznvLo6hS6f5xFXuHTJj3LlAeJZN7oHc039WHPuNtd2f0eZnf0ZOD/Eyv59xMrR/Vlf8FN2X7/N0XlVCDkc8VSrrRvf3hT21hIa+ijVezL+ctvLNf7SEVmYDgu38G31DWyy+5h1KwZhmLmInWawZny2XXCfiIgI7s1va+0anyLjA9JvXxJDDBdOnEdXpgy+2axdf3UvB8LL0rCmV7oJjqXyDBUsS6XCjsADwsM1eHhkJSMRIudZfZYtryhVysQbllTpDLUypQhcVhzDneu07B/J+0uq0tkBUNhRMAvrMJlMKNKr3wpO+ZzQh13i7OVbuPj50mHc73R4XHqRAwcTaDXrLUpoAE0D+nUuTa09hzG/X+zxwcOpdlNq5wdwpWHXdhQddJnLgCe1mXIlnikZrt1SeaJqdbzwUQJqF1rXUDP7cgzISVIgt7efJSFcuKCn/oQ3KJlPCfla83oDV1Imdi2sX6lCrVGBvR1gh4NGk+7NfYHD/PAdA8b4aBK8mzB62Vc0sgNQ02b+ddokf9CtCd2bFWLpmfNACSv6J/NyZblylL5ymWuhkdzyaU+TO+e5aPTk4qPyNCkIcImDB+NoNqk/Fd0V4N6SgZ1LUufgccwf+FrRv1cJPmWg2ZR3KJtfAfk7073RUP554tpp68a3AoUi8bMpZPzltpdh/B3+1B/HT5P/suONFTH83D7pTxdX3BQqVAXy4+bqCq6uuGljiTUCKsvjU2mvRmMP2Gd/flDGB6TbPu0yXnfvyyYAp/IM+/tdimWnavMDDu++SIFX36VkepmbpXJraMN5EOvBK5Z3eiFy1XOfVGTKXoW3lwp0KuxR4u6loWg2BqVSqcRszt5F5tVG/c7k+G+Y9HZ9Tt9IoEjdHnwxaypdyqiABAwJWlZ/UIV9ScdIU3wULg0UmICkk+DYqVJthrrfcvpktkLJkL0q5QvHTqnAaHqJLqi34Pneftat35JG43ezoLMGVT43Cjg7pJoJM3Jl1aeM+G4r1+ISv0y1YfcwtU35Ys28fyyUl/TH/85fXD4bDuUG4B/1GefPFOJymfJUSFwbOq09anVKRGq1AwnaeIykHJwy7l89CXp7HBxSlndwcIAnkgrrxrcZsznxszlNxl/GXobxV2vieXZ9nJ05bsvjMyfI+IB026fpyT/xPcEYy7VFb1Lj4xm8fXwc5bNYc+zZ3Rw1VKF75fSvL7NUbpUHD3jg6MGrMlch8thzf/nTs1CggAeR9+4/+VsEcMRRA3qd7vE7Or0OjaNjykdcqtB36gr+Db5B2K19jC24nr6fr0qqyx6VfX66zj/JyZOJr1MXr3P7p85WfiHlzOnljNnhqAGdPuVLSqc34ai29uvyeZfX2y+FWR+P9qnfAiUoX07N7hVLuRydQNyNDazak/p5xjmzfrWrF4UKeeGRJqEAHi1n5DuBlJu1+3H9v/YqnHbhTPvHQrnSH/9ilzmw/QYF/f3xfyWOc+svEl2+PIkPN9Gg1iSg06X8iNDp9NhrHK1snz0q+wT0+pTl9fqnR3HG4zu1+9y7r8bDwznVezL+bCPjzybWjM8cIOMD0m9fchhOlCxTDPuoR2T5afOGW+zfe5tSDQLwTu/XlqVyK8WHhxPv4YHcUSHy2nOfVBj0JrR6EzqDGcxm9El/G3JwMqN8w4a4/LuGTU9dTlmUOq8WYe+fizgVqSf22ip+3hBL3brJz9yLZs3H9eg+cQe3oo1gp8ZJo0KpSr4xzo86AQq2L1/LLR2Y467y2wdN6bngkpWRJZ4+jo9/4rWiZ9IsrqVySzTUraxh96YQgqNNxN6+y6LdRupXfT67G78AACAASURBVGLGxNWBgooY9h/VEZvU/0ZzFsrzTF5vvySRq3irhAeF601J88hHyE+3ST/RPmwSDUsXp0a/vbiVd0tVbuX63d1wi7rIyWuP0Gq16BKsnMk0JZBgNGLQGTEDCaE7Wbv3YaoPWOofS+WlKOcfytatUK6cklf8nNi18TS+5Ssk1V+WgAAngpb+zNnIeGJubOWn1dcIqFPdyuuKS1O1ij3bly7hUowR7Y01rPw35qlPZTy+UxhPrGHj/QY0ejX1mmX82UbGH4DZoEOr1aa89Ebr4rY4Ps0YdNqUdZoN6LVatFpd2u9HD088Fec5uPs+sVotWq0+zf4h4yOj9qWIu3ePR97eeFsVd4qI47s44xRA/VfS/18nLJVnzoTRYMBgMBAa9gCNuzsOBoOcCRV56jlPKiIY2WkjjnU34jbhPly6SIW6G3GsG8SY0zm3FlXj4XxWZTsj3l/C5TTP8lZS7/PlfOb5F6+XK0zJxl/zqOfvzOyR/BBpZ157pzeOG96jZlFnnH1qMPpyMxZ80QF7APLRcfoKekV+Tf1inniXbcvP+u580rNszgVvEwUN3q/Jl+53aNdhC4X7XCSqdQ1+aPXENWQuRfhqSH62/W87znU34lh3NxNDslCeZ56X7afCKZ8jjk6ap2Y4lSU7M2vrWe6E3uXc1m9pUiD1Dw4r1191IN+8GcnEGoVxd3enyGAr/5cWtzeYOLs2+/tWpETZCtTrtw2PKkVSfcBS/1gqV+Jfzp3gS674lwBn/7LcO3ab8uWT59McaT/5T95TLKC9fxFK1hvJ+UYLmT+wuJX96kK3yT/R8cFEGvj6ULXfEXxqPP2A94zHdyJj6HZGD5yHw5DP6PFMp/pk/L0M4+/I51Vwd3dPebWaa93/U2FxfB7m0/KJdXq/twFOfUN1d3fc3cvz2eHU9XTni2/8CertR0F3d9zdX2XKxVS985KPD6vap1CgiAzh8gO99f+7uPYiuw/FUKlhNdyyU26B6dImZs2cycyZM/nrZBzaU/8wc+ZMftkbmo3ahMgh5nT0Xbcuvbf/22JOmud0e8VcqFRj8/SjeR3MyybB/Ec3jbn2xPPZLH+RmcwJ2nhzfHy8OS7irHlKU2dz9a9O53VQ/z0ZjO9bKwaYKxUuYm7y2XZzmCnvwstbMv5e+vH3ko4Pq9sXd9I8r3c9c2kvF3OZkXutqNlovrPzJ/Osv0+ZY7NVLsSLSWE2P32HVr/16/mpXbu8yHHymIHwU1s479SWeqXyOhbxctjHMN9mzAsFhdqN0vUGMuu3L2mSlf9RVVjp6fEdfnwrFwrWp25Rx8wXFf9RMv5SvHzj47/ePiGeNUkqhBBCCCGEEDZ5zu+pEEIIIYQQQjzvJKkQQgghhBBC2ESSCiGEEEIIIYRNnsuk4kF4VF6HIIQQQgghhLDSc5lUCCGEEEIIIV4cklQIIYQQQgghbCJJhRBCCCGEEMImklQIIYQQQgghbCJJhRDiGdFz7+gadl/N6ziEEM+D8GOb2XElmqf+B95cY+TmtoXMWXsebbbKhRCZkaRCvBTu7VvC/NVnic3rQJ5Tud4/ccHMfbMmtXovJDg6t1YiMnIvZBnzzl54aff/5739uR3f89p+/Y1NjG5ameafBxL6LDKLiOPsOuNIQH1/NNkpF0JkSpIKaxw6hVuL0+x5qiCOSb3W02mjKQ+CehGEMLWuI46OiS9nD19qdf+KoPs5/O0RNARv32Hsy/ADj9jx/XBGjPmVczm6Yi2/vZ7SvsevpnO4n6PrsVGe9U+ye/zeuw3TlWPYfXw9H1RJVaRfTrtx1Rh9Ex4c7oZ61iTOJJeZVtP1y2IUXPY30QDmY4z8vhj5f5zBlVyJE/ZuqobX6qCsLXTlE7y++5S9uRNSDogmaO9Yhm/+k7PZXH7Xjm74fVMM9Thv1F8PJTCHI7SJxf63tf25Lbfjy+367zJjgTc+63Y9XZTZ+AYKd5rJgWNLqB7Yiw7fnMCQK/El03Fhz0FiKzSgWoHslGdQ6/1gtq74mbmzZjJnwVI2HL9PQk6FLMQLRpXXAYj/vnaLHrCshxp9xBl+HdSB7oNKcPGfXmThuG0jF3ouv8PrBjXqXKi95lcn2fph8ZQ3lPYv2CxX7vaPad80Pt/bhJkX3qSEwxOFdvY44IBaBQ529kl/p5KvIn73V7FO24WeYevYkq8ir+TuL4//IGfe7HmBLiaH7G3fuH/4akcYXQcE81nhfChQ8uRmfL7Z2P5cl9vx5Xb9CpQKUCrSmaO0NL4BpUdDvp07gCpNJ7ByyD/0dM2VIDHdO8iea97U6+eb7g8fS+XpenSKdX8fxaVpO97t7IY+ZAd/rd1OcOk3qeGSg8EL8YKQMxWZ2RdM/prrUQwOIerhdRrUXI+i5noU/a5xL9XHdBev0b5bIM4Nt1J97HVO6lPKdn63Fc9RZxkxeA/lOmyjVL9g/ryRaqb+YThff7Kboo034dxiJy2m3uWKMbHo8i+7KTUrEtAxo/96ik97CJhYOiKQD45Y04DEMyktvrtEx3f/pUybbU/FR+RDvh29iyKNN+PafCetZ93jhimn1p9IobRDpVKRr2AV3u/bAuOhw0mzVRf4uoYjPVem/Eo8NMYPzwEbk/5KPNPRbvhEujWsQYXSZajTaz7ByRe7Bg7C09ERx7aLiAqdR7N0zhSs6+OW+F4+N9zqT0o7w31oDKUrdWVk/2ZUrtaXKTNH0T7Aj4bj9xKX/JnwvXz3Zh1KeXtRqFgVOo5dx80nTkwpVGo0Gk3Ky8EusUB/ki8DPKg94UTSzFUof3T3oeQ7a3j4uP79TO9Vn1cKe+BZtAItP1zKOV2qyjNdf2L/tBk1jV7NAqhYuhS1enzPkeTLi2ztH4CwXUx6ow6lvQtQsHgV2o1cxVVD2vVnuH2SnAsK4kHjDrRM70vWzgVXlQuuGnDWuKBUO5PmYzE+1PW7yvJzDzl4ZhuVfSsTmbo8/gRz/ulAhcmlKTApgGZrVnDemFx4kynzvGmzYTpdFjSi3NRqBKz4heBUSYkxYj0f/FQTr6/L4v/zJHbHPxFfZvVfGk6Bcd6ol/xKVMzPNB3nnTiTv2hBypmq2H1M/LM5Jb8tgcfkerTZuJ6rqfafXRsq4bPsCz5Z0orK06vit2gEK8KTAnz4A3XGt2BGRMrn9ZdHUmTSUAKtTKzW/lU8MaYviuMy/8kzPJb7BwDtIyIpSoXC7jiq1GhU9ilfHLa07+aXlJzZm+H/dKTi7A/5bu/ntP2xJg22H0gZfzb2f+bttxS/lf2TESvaZyk+c9RmRvxcF5+viuA4wQ//nz5h+UOD1eW2bn/jw9UMWlQDr6/LUHbReL74q1o6ZyTykc8B8jvkf7oPLI3vJKrqnWhbcAc70judGvYXbxZ3xavelDRnObImmpO7TqCq2YDyTtkpT5/2YRzOtZvT1L8gjvb2uJYqiZdCh15OVYiXlCQVmalTifB9bYifVRzXAr5s39eG+H1tiJ9XAu9UHzt+3Y5vf2lOxOqqBFw4w+C/4tJUExUC3abW59zaxiz2C+fdyTcJA8DImu+PMMdYnE1rW3D3l/KUPXyCPisTly9VypnQG7HoieacgxveN2J4RCwXb+SnQinrm3E60om5ixtxeVVt2oSkjs/IP1MOM4dS7AlsxcMVlfDff5x3/orP0fU/ZrjPulW7MVepjF8WFjsTVoZZO45y5vQ/tLo0io8WhiQWvDab2xERRKzug6vXADZFRBAREUHE5kEUSlq27YL7REREcG9+2/QrjyxMh4Vb+Lb6BjbZfcy6FYMwzFzETjNALGuGd2UuQwi6Hsqd43N4Zdu79F9w07rAHarwv5/H4jDnPaYGJxC6YiijjrVl/syOSWdp4ln/SVemR7/B8lM3uXFoPnWCP6bX1NNJFVi3/jO3fZi85SCnz2yke9iXvDfzdA71TzzrRvdgrqkfa87d5tru7yizsz8D54dYt32ShIWF4lbIK4PZbR+qlw3gFUdQuFahRfFSaX90mKPx92vL1bMz+ONqOboXN/LocaGejZt7M0PfhRVDz3P3g6lUujmC9w7eSBtfbCnm9P+Xcx8tpVX45ww9lNx/0azYPIR1TsPZ+8k5jneqSMit1CmLhfrLfMfdcSFE9XoL1/zvsGVcCFHjQojq0y+pf7Ws29yHH01vs27YeULe+4qyV4cw4FDa7RcVrqRLz80ED9/FwsIH6L9+WeLxocBbDC5zkfmHjpH4OzeOdcdW41S1N69ZOZXarvNlosaFENq5RYafybB/7kyhxqRy+Myfzhn+ZcjUcvhMKofP9LHszIn2AWi96dT5byb5bGGTcjAb3uyLYe9vSePP1v631H7r4s94/7FCpu2zvH327B3NMs1Q9o+5yaNPtjK5ZATrL52zutym7U8Mf27+iE0uYzg4+gKnu9Un8l54OjXkx0WtwFXjnE6ZhfH9mDeFvbWEhj56usjeBZ/ivvj6epIvw1ZkTn91LwfCy9KwpheKbJRnRFMigJY1iz4+s/HodDAhBfwo65HNQIV4wUlSkRmlArWDEo1KAShwcFCicVCisU972KnWpCiVnBSoChTkzVfVnL4ck6bcqVJB6uQDUNG4hTfF7sVyCYBY9gcbad7Bl0ouduT38WJws3wcCI7CDChL5qfMjViuPozhZsFCNEuI4bwplguxzlTIwrVD1ep44aME1C60rpE6vhj2nzLRpmNRSjqAnbsHA5s5sed4ZI6uP3CYH76+vvgU8ufDCy1Z/MO7eFm/OFWbt6KwHeBYmZYNvDh75nxigVKFWqNBY28H2OHw5JkCQGmfeBZBbZ/Bru7iiptCRYEC+XFzdQVXV9y0scQaAS5y4GACrd59ixIasPNsQL/Opdm353Cap5Uc/tQ/1T0V+emzLqVMVX4YP49zYdbgHvQZdYJuC6fRwi259BIHDsTQot8HVPPMRz6f+oyc/ydjGjsn/Yi0bv1VmrfGRwVo/GnfvCzngk8nXptsc/9c4uDBOJr16k9Fd0fy+7ZkYOeSHDp4PM36M9w+SUwmEwpFRl/V5RnS82vaa4Aig1jT4jUc05THEOvZmU4Rv/C3VydaEZfqZlMH2nQO5sob71DB0R61cwN6lCnImfuX0tRQtexrFFYC9hVoWcKTM6HJ5dcJvmfgtao9KeugwtG9HT1Kpf7ZYqF+hQq1So1GaQcosVep0ajUaOyS+/cyB27G8Vr13lR01JDfrSnvVfDl4M2TafrPqWgDAhwAXGhYsSVFo65xGQA3etTpQsyxnwlMAOLWsvh8MfrVrGn1gVtp54BGpUatzHiJDPun0HtsHBzE4TcH8Ap1+GpgEIcHB3F4wGhezZH2AWoXXBUq3PPlx1XjAhpXXA2xxJhzov8ttd+6+DPef6yQafssbx8n+3zoYq9wNvwO0apidGy6kN8CKlldbtP25yYXwhJoULELJe3tULu+RpeS6V2bpMRFnQ9XdXrpgqXxnUyBQpF4rHiKWwum7gnm8B99KJlhKzJhfsDh3Rcp8Go9SqY3s2Gp3LqVEHNlK3/vM1K3XQCe2a1GiBec3FORA1L/ILNXKTCa0t6IrLJL9YOqajku/Z38hxGtXoHaPlVdDkoSdCaMgKqIM+XD7nDpih5K+VIu+hznLqu5WMyZilmIz16VEp+dMnV8JhIMJv7+Zid7km4CMOkScK0OJsAuh9bfaPxuFnQ4xfj67/Lwgy94vUTWdjt7+5QOsrOzw2g0ZvLpnJSAIUHL6g+qsC/pt6YpPgqXBorE/kn6VK2J59n1sW8GdSgp2+cDmnzZk1VlvmR2k9RfvFp0WnvU6pT9w7nca3TN4vpVqpT+tLdXYTYkYCAnBvfT8anVDiRo4xP3z8frzHz7KJVKzObs3pxvwGAqz7j3zjBakR/1hTWk/OwwcuXMBIbtCuJaQuK72thQTH5pf5jYK1PFp7TDaEqOT4/eaI9DqvFpb+dAyt2i1tWfMR1agz3qVPWrVQ4kJGjT9J/KLtWW8h3H2aEpf6pL96evU0vmnh5PBe0f7Crai8U5/Islw/6xc6GQiwsYnLFHjZtLYYqk2alsb1/mbO1/S6yLP+P9J/dVb7iA77ZPY+LyVpyKSqBI8c6Mb/81XT1UVpVbIyfa56x2xjndMxXWMmM2Jx4rclrs2d0cNVShe+X0z5FYKrcsgbCTG1l9yExA19ep7GFneREh/qMkqchTdmgczISnuv5Spzdhr1Ym/mBU5qecdyz7DqrxqpyfclFG/vo3hujSRcmZs6tK7FV29PisMfNqp1ecM+tXu3pRyKctI4f4U3XSLE53G09FJYAjjhrQ63Qk74o6vQ6NY/pzWc+ePSr7/HT98SSzm2a3jmiCPv2Uf5t8zLvnZzBs8Rus7ls86RS7BrUmgXCdGZLeiT6/jS3hZXm9ni9KK9ev0+nT/Ftp75BDA/vp+HQ6PfYaR7LytVmggAeR5+6jh2zf4Gtv74L9k2/q/mH4X9sp328La4smXgh9YHMN2sQ9tXhGtWKvTEBvTGlfgjHVDUc2169Go0rgYar6dQY99vYa6/tPUY73Amrgf3QaUxNO0ab+0seX9uS9HGhfZmzuf0tyOf6coK5Evza/0A8w6UNYvqYTfbbWocMbnRLHkqVymxSnvJcDS06t4HLpLvjE7+Dv69FQ/OlP+lUcy8D8tjye4j737qvx8LAlMUmH4Rb7996mVOPWeKeXr1gqtyiO67tWEXijCC3ebEQJp6xcPCXEf49c/mQNZ3vcY2I4cduAVm9CZ8ipR6I68WplO7atv8GZR0Zi7oYxPyiOV6u4JX3F5aN8SR1b9kP5Ugr8S6jYuTuaEqVz6sCbn1crKdi6+R439WDWxvHLN/vo+lfyBSY5u/7S/UbS4e5cJq5Kvm69KHVeLcLePxdxKlJP7LVV/Lwhlrp1q2Raz1Pc3XCLusjJa4/QarXoEpJnMs0YdNqU98wG9FotWq0O6zahH3UCFGxfvpZbOjDHXeW3D5rSc0Hayx/MBh1arTblpU+Z6YvYNIIBf1dg+uyJTP3xbS6N6cvcK8nxlaVOnfxs/flHTobHE3dvP9Pff4OJOx4lDUzr1n96/R8cizCgv/8vP6+5SLnKFdMmFdnun7IEBDgRtPRnzkbGE3NjKz+tvkZAnepZuu64fMOGuPy7hk3pXC5tE5OBBJOJBIMRM5AQs4e1IREWF0tRkqqF7dl2YhmX9Ea0kRtYcTXVpYvW1u/oipv2CsER0WgNOnTG5P4tQ51iTmw//jtn47XERO5g4dkQ6hSrmqX+K1KtP+1Df2FBVEcGlMvKbKoZg0GXGJPJBGYjeoMOrUFv5f5vSc60L0M297+l9udy/BZZii+G1etb0nXnbm7pjKBwwEmlQqlUJcVnqdzW7e9E91Zz6BA7gwZTK1LtnwO4e7ml87kIrj4I4+KD69l+JKzxxBo23m9Ao1fT6/nTTG5cGv+3fye9OzoyE3F8F2ecAqj/SvoJj6XyTBkfcnrdMraFl6Nj1/oUVRsxGAwYn93/5CfEc0eSCmv4+zK5jYGvum/Bse5GPL4OzaGK7ej4cU0GK0Jo2SGQwr3PcK5mVRZ3TZ6pV1C+lD0nQlSU9wHnkk7cPRdPhVI59UBHO14fVZN3oy9S+7VNuLU9wKIEHz5tk/z4ixxev0t7Rg4oxOpJczhnBlBS7/PlfOb5F6+XK0zJxl/zqOfvzOyRxYfNVh3IN29GMrFGYdzd3SkyeHNSwWE+Le+Ou7s73u9tgFPfUN3dHXf38nx22JqK89Fx+gp6RX5N/WKeeJdty8/67nzSs2yaTx35vAru7u4pr1ZzE58+82ANH76/nprTf6BHIXCq/yXze9/j8z7TOGcAcKTddysZ5rSMrhWLUKx6P/aUn86vIytlaf3Vqtgzs2UpfCq8zY6SE5g3tEIO9Y8j7Sf/yXuKBbT3L0LJeiM532gh8wemM1WZCVXj4XxWZTsj3l/C5Zz8b2oduzC5Qw0O/P0qxafV4dV/duLhXTgLFTjTvdVsOsVOp95kfyr/cwKfIqn2PWvrL/wu31aJ4ps5frhO8KXwmu1JBRrat1rM+4oltJ3hj+/8zzhfchYLahfNWjsd6tPYx0zxar1olqVTUMcY/b0vrhN88VoVCPenUnWCL64TAvjfrayFkL4cal9GbO5/S+3P5fgtshRffppX70m+Cx9TfVJRnCY25pOHjVjYrHXSWTtL5bZvf6V7O2b3Pcjd/13gQt9xNM2XzqVRpjMsC5rC10cOkpWUPpkxdDujB87DYchn9EjvFHjINtYcjKbm6+2zdoZee5Hdh2Ko1LAa6aVCFsstuXGYoIuRRF3dwdIfZjJz5kxmzpzFhgvyzGvx8lKY07nYud/69fzUrl1exAPAg/AoPD1y6WHVQvxnhDC1rj/7Bz/g77ez8BzEvBAbzA99uvHVUR9Gr9zBsOp5HdALJGYJzactofmHQXwiT5URz5QZg0GPATAbQpjzezP+KLWV4038c6T22ysH0vqjjXj2+5UVE5rimc6JioeL21Ns4itsPzeNOlYn1Sbu/vsLf4XXpt/rFdN5apSlciFEdsg9FUK84LJ/E/Qz5FSZD1ac4Y1TWzj/nOc/z5vLx5ayv3gvlkpCIZ65Q4yY3pF5MaBQuVLadzBzAnImoQDQlOnGvEMzqVs0o/vodOzYvp+q78/IQkIBoKRwo74MyXa5ECI75EyFEEIIIYQQwiZyT4UQQgghhBDCJpJUCCGEEEIIIWwiSYUQQgghhBDCJs9lUiH3UwghhBBCCPHieC6TCiGEEEIIIcSLQ5IKIYQQQgghhE0kqRBCCCGEEELYRJIKIYQQQgghhE2e86TiPnOauVCo1Ku8/eNRYvM6HCGEEEIIIcRTnvOkohAfbn/Ihb9ac+WTYfx8M6/jEUIIIYQQQjzpOU8qAFS4Va9FOfsHhD3M61iEEEIIIYQQT3oBkgogOowwbQE8CuR1IEIIIYQQQognvRhJRUQEDymAu3teByKEEEIIIYR40ouRVBQsQ1m3awQffYDenNfBCCGEEEIIIVJ7MZIKx1aM/sKXZW2K4ZrPEccaX3Mhr2MSQgghhBBCAKDK6wCsErmMMaPv8k7QHcbXdsdekdcBCSGEEEIIIZK9GGcqtI94pPeitJ8kFEIIIYQQQjxvXoykwqsIPqr73L+X14EIIYQQQgghnvQCJBVGHl28wl3MmOUmbSGEEEIIIZ47z3lScZ85zVwp1fxX8g+bxIByeR2PEEIIIYQQ4knP+Y3ahfhwewwf5nUYQgghhBBCiAw952cqhBBCCCGEEM87SSqEEEIIIYQQNpGkQgghhBBCCGETSSqEEEIIIYQQNpGkQgghhBBCCGETSSqEEEIIIYQQNpGkQgghhBBCCGETSSqEEEIIIYQQNpGkQgghhBBCCGETSSqEEEIIIYQQNpGkQgghhBBCCGETSSqEEEIIIYQQNpGkQgghhBBCCGETSSqEEEIIIYQQNpGkQgghhBBCCGETSSqEEEIIIYQQNpGkQgghhBBCCGETSSqEEEIIIYQQNpGkQgghhBBCCGETSSqEEEIIIYQQNpGkQgghhBBCCGETSSqEEEIIIYQQNpGkQgghhBBCCGETSSqEEEIIIYQQNpGkQgghhBBCCGETSSqEEEIIIYQQNpGkQgghhBBCCGETSSqEEEIIIYQQNpGkQgghhBBCCGETSSqEEEIIIYQQNpGkQgghhBBCCGETSSrS0HPv6Bp2X83rOMTz6en9I/zYZnZcicacd0HlKqvbZw5h9fBWVPBxp+yofTas0cjNbQuZs/Y82myVCyGEECIvvDBJxd0TN/kxKJrY3FpBXDBz36xJrd4LCY7OrZWIF1YG+4f+xiZGN61M888DCf0PZhbWts+wYQL91vjw7ZG7XJxSN/srjDjOrjOOBNT3R5OdciGEEELkiRckqTCw/bfTDP3+JmcyKN+54AClGm1AUXM9igYn2Jyl+u/xe+82TFeOYffx9XxQJSdifoEEDcHbdxhPzy9f4OsajvRcaXj8zqExfngO2Pgso3sOZLx/FO40kwPHllA9sBcdvjmBIeNKnrnNX21OHA8116OoeYil+qyVg/XtiwkNJa5YVWr7aFBkO2IdF/YcJLZCA6oVyE55esLYs3ga06alfv3M/vBsBymEEEKIdKjyOgDrqHh7aku6GZWo0yuOvM34BTq6/9ycL/xUKFDgkIXaTfum8fneJsy88CYlsrKgeClY2j+UHg35du4AqjSdwMoh/9DT9dnHmJ4WY1sQPxq4dYWA7hFZLk9mTftcCrijDH/AA6BwNuM13TvInmve1Ovnm+6ByVJ5+jyp+85H1DEDCaEcXbeJq4WbUdUjm0EKIYQQIl3P/ZmK1Z9vTJxJrbURTe9LXE7vQ9EJROJIRT8HHB2UaBwUWWrYuaAgHjTuQEuXJ0ssz9Sbb61jVKtKFCmQHye3wpRvNoQVV1LN54bv5bs361DK24tCxarQcew6bppSincN86VIj08Y3bY+Vf1LUa7pYFZetn6+23hlJYObvIK3pxd+TUcz/t3SFBkSZN36Awfh6eiIY9tFRIXOo5mjI46Ojjg2ncN9K9efu+0PYWpdR9oNn0i3hjWoULoMdXrNJzj1xfSRR5nTvymVihfEs0h5Xhu8lPPJM+6HxlC6UldG9m9G5Wp9mTJzFO0D/Gg4fi9xVsYHme0fKVTVO9G24A522HI7wVPimNRrPS2+u0THd/+lTJttVB97nZOPzyjEML77eroGplyXdOD77eQfn7j1lHZKNA5KNPaKdM8eWCpPzVL7lAU8cIuMIiqrTXwsmpO7TqCq2YDyTtkpz4gCpZ0KO+0N/v17C3df6UC3BsVxzHacQgghhEjPc59UdPiiFfH72hA5rtDThecuUrlZIJ7vXOI0YQxqHYhns0A8258m6OlPZygsLBS3Ql5ZOruRbO+MofzhOop9tx4RGbKfSY0esj4w+SKtWNYM78pchhB0aIsGJAAAIABJREFUPZQ7x+fwyrZ36b/gZpo6Hl1W0mX5Hk6cP878qnsY8PESHli19miWjxnI5qLj2X/jLsG/NibydOrrOiys/7XZ3I6IIGJ1H1y9BrApIoKIiAgiNg8ind7Os/afCSvDrB1HOXP6H1pdGsVHC0OSSnRsHN2FmbE9+TP4DreP/EDlg4N5f971lIUjC9Nh4Ra+rb6BTXYfs27FIAwzF7HTbH181u0f3hT21hIa+ijVe4cYVTopUUv96r4s6TIiS+WJTkc6MXdxIy6vqk2bkDMM/iuOZy+99iUxxHDhxHl0Zcrgm83a9Vf3ciC8LA1reqWb4Fgqz9x99ixfTbDOFQ+VEWM2YxRCCCFExp77y5+UKmXiDZmqdH5KlClF4LLiGO5cp2X/SN5fUpXODoDCjoJZWIfJZEKRXv1WcMrnhD7sEmcv38LFz5cO436nw+PSixw4mECr/7N33+FRlGsfx7+bbJJdAumEUEOv0ntVwII0pYiCgEp7BRsWDnqOvcER1IMiiAXExgFRqiBIUXoR6RCaSJOWkEASsptNMu8fSUgISXazG0jw/D7XtdeV7D0zzz3zTCZzzzw7+8GDVLYAlvYM7VWN5uu2Yjxa8crJkX+LTrQoCRBIh77dqTDyMIeBMKetH+PAgWTavf4AVUp4QYm76d0+kKwbK07a9zLjZzGDjzfgja/FUuAPv96I9W90RxfKegPWBtzVPpype6OASMCPrtP+pGtmc0Ed6de5DF/vjQIqp78XEEiQyYw5pCRBgYEQGEiQLZHEVMDsWn6u7R8mTKb0abO0YMKRJCbkOY+zeLrGrcIp5wX4BXB3Uz8+PJwAlHAyV2HLZf1ss+gdPISlAP51efr7h6nozqKNaLauPUhI64epklvl5izuVClq396b8omn2PbLbBYbw+hTv0C3O0RERMSJYl9U5MvHTES4GexmfPAiONxCBTdOOry8vDAM9x7d03jMN/w76S3GD2zHnuMOyre5n1c+mEif6mbAQYrDxvzHGrIh4xwwLekiAe1NpAHeGcvwNmfrhjZvs2enW6nkwrX2PXEj1t/Hx+fKz97e3qSmZl5rTuXIvBd49p2fOXo5/WTXdv4Mad1yjF/Kk2v5ubZ/GBhG+rSFzcectUxvLxOpaUXxmKlc1s/Snx+S+kNqIkc/G0DT0e8zcPvL1C3gkhP3rWVbSkP6Nch9fJmzuHMlKB1ZmdJUxuvUDn46HwuoqBARESlMN3dRUUhCQkKJ23+WZMgxxMWK1QLJdjuZm8qebMdizTYiO6AhQybOYQiQlnCUOY/dwZCX2tJj1n344oPZpyR9p+zkw06e5WgkJ2E3W7Fcdc5ambp1/Phyztcc7tyfcrHLmbcuHlplxj1t3w8/X3AkJ5O5/smOZHz9sn1c/gatf64uzea5h5ZTZ+U65jcvCcDmsTXpdsHVBbiWX977R3ZnOXPWj9DQUtne28KYarcy+a8ck/aYTvyc/pidxp3xxmoBe3JWCWRPTsPqVxjlYk65rV9mGv5UqV4Rn4uXKPDTmFNOsnH9KaredjcRudVjzuL5iT3Iur1wS7uaBAGQRFysnaDqxeST9CIiIn8jxf4zFSnJadiS07CnGGAYJGf8nlKIF2vrduhAwK8LWHrNcPEKtGpdnvX//YzdcckkHp3HjB8TadMm85mi8SwY3ZZ+41ZzMj4VvP3wt5jxMpszhs7UolVLEytnL+SkHYzLf/DVY53o/8mhgiUYN48HK4dStu0E9l8VKMl94z+nx/nxdKhWiaZD1xNUNyhb3MX2g4MIuniQnUcvYbPZsDsyr/RXpGmzcNbPns6u2CTijy5k5tI4mjerf2PXPy9pDhypqaTYU0l/uM8vLFzvckXhcn557x9ZUncsYMnZ9tzaOvswqfThTUlJOV5XCgZncWcstGlgYe3SY+yKTyPx1Gk+W5tKu0Y5rugH+lLalMDGbXYSM/5+Uo0CxPNcvyyXz5zhUkQEES7lnSV2+xr2+rekXc3cB945i+cr5TwHt2xi18lEHI7LnN29iq3nI6lfM5fCSERERDxSzIuKWJ67dwnWNksIev0sHDpIvTZLsLZZxfN7Cq8V823P8GLDlTz76EwOX/U1vV60fWk2L4bNpXedslS57U0u9f+GSfdnPiS/FLc/NBjrj/9HswqlKFWuKWMPd+aTV3qSPmCnBPe8N4dBcW/SrmIYETW6MSO5H//oX6OgGeJfworV33LNkCWvKr344Od9/HXuNPt/fpuOIdk/hupi+41G8NaAOMY1LUtwcDDlR2V+y4c3nV6bxbP+X9OrTnmqdHiRv7rNYNKg8Bu8/nkIeoBxH7Zg45BbqFyjHm2HriC0YfkCLMC1/PLeP9KlnlvJ2BEf4/vEi9x/Qx9VaqL9o814LfgvuvdcRtlHDnLx7qZ81CXH/ZSA8rzxRElW/GslpdoswdpmLeOOuR53af1MJkxxxzgcnez6t4vbDrJ2SwL1OzQmyJ24M6WbckfrUhxZ+BkfTZ3Jkv0+NO/TjXol3VmYiIiI5Mdk5DJYfOjixXzevXtR5FN0Enfx0SP38ca2coz9bjVPNynqhFxlkGK3k2KAYTvKR31aMqvjRra9WK+oE/t7yWP/OPXdCO5+aglhQ79kzuudCHP/m9+KJZfXL2kX0x4dxYSfdmMavJRDTr9VO43Tv37B3JgWDO19Sy4fO3cWFxERkeJERcVVUojZvYwo/260rVrUubhqA09Hdubjc2DyC6Ja2xF88NVrdHT5G4fFddfuHzHbf+ZA6Xa0qfD3/OaDv/v6iYiISOFQUSEiIiIiIh4p5p+pEBERERGR4k5FhYiIiIiIeERFhYiIiIiIeKRYFhXRMReLOgUREREREXFRsSwqRERERETk5qGiQkREREREPKKiQkREREREPKKiQkREREREPKKiQsRlyZzZtoC1fxR1HuKea/sv5vefWH0knmu+AdTFeOFL5cSKT5m8MAqbW3EREZGioaJCxBWXdzF1QDOaD/6UXfFFncz/njMbZjJt/j4S3V1AHv2XfHwpYzs14I6XlnMul8rBWbzQxW5nzV4rLdvVxuJOXEREpIioqBBY9QQRkU+z4ZrAAd5saqX/dylX3tnyfC3Chi+5kdkVA2f4ZnBX3vN6nrXbF/NYw6LO5wbLc/+w8VVvK1ZrjlenyZwt1AQusfo/z/Ds81+yP9u7y0dGZGu3N7PyvHSfd/+VvXcSm36fSZPlg+j51g5ScszpLF647BxYt5nEeu1pHOJOPH9pF7Yxe8qXrDvt8DRRERGRa6ioEHEibcO7vLS+I+9NGUBl36LOpvhp9sZOYmNjs14/jaRMobYQQP/ZfxGzezzNsr17+4fH0tv7/RXq5zO3s/7zCu3A21OHEz/xdb7L5StynMULS9qZzaw7GkHb1pGY3Yjny36cVfO34NvhHtqW9SmEbEVERK6moiJfzq/UGycXMaZLfcqHlMQ/qCx1Oz/BnCPZrmfGrOedAa2oGhFOmYoNueefiziRlhVe83Qk5e//B2O7taNR7arU6TSK7w67fj3Uo/aXjyTMasXa7TMunvuYzm5cab6+63+MiW2sdH9mHPd1aEq9atVpNWgau7JfkY7bxuRhnahfqTRh5ety+6iviUrOiG15nmr1+/LcsM40aDyECZPG0KNlLTq8up7LLuYHsH/VKqJv68ldATnXvvjvH6lHvmNUx5pEhIVTq9NYXn24GuWfWOVa+y7uHyazHxaLJevl6+369s+v/4BFjwSlt1kiiKB24zmSrV2vzHZ9zZjy2QZ5918Wc5N76VZ6NauvvR3jPH5+LgMqBRLedgJ788kjf/HsXLMDc7P21PV3J54P4yK7Fv/I8ciudL0lMN9tJSIi4i4VFR5a//6TfBs4hg0nLxF3bCPjb73A4uWZpxaJLHimL1N5glV/nuOv7ZOpueJhhn1y4qplXDrsRZ/Z69gRtZ1pjdYxfPRMom9E+7d/yKnYWGLnP0Jg+HCWunGl+Uas/97z1flg9Tb27vmBLofG8NSnxzIidpaM7cOkxP78d9dfnPrtIxpsHsWjH/+ZNXNcWXp+uoy3m/zIUu/RLJozkpRJn/GL4Xp+58+fI6hMOO7cpCja/SOe2c+P4KcKr7Lx+Gl2fXkbcXtissWv//6R//Z33n/dPjlLbGwsZ6Z1c7XFa7jWfxGUjbBx7tylgsd9AihXKZLIyDBKuJlj8h/r2RRTgw7NwnM96XcWz5uDU2vnsy6lBfd2jMRsu0TcZQ1/EhGRwqeiwkP+JfxJPn+IfYdPkmCJpOfL3/DlyMxB2wfZtNlBl4cfpLIFvMPaM7RXNTas23rV02T8W3SiRUmAQDr07U6FE4c5fCPa9zLjZ7Fg8fEGvPHNeaW5mKx/ozu6UNYbsDbgrvbh7NsblRHxo+u0Pzk0azj1gnzwK9uRfp3LZIsDAYEEmcyEhJQkKDAQAgMJsiWSmOp6fmlpaZhM7l3fLdr94xgHDiTTrs8DVCnhjV+Fu+ndPjBbvHD2j60v1M722YaSPLIoWzDf7e+8/7x80u9G+Pm4f6hyrf9MmEzp0xY4HnQnE9ftYuu3j1DFnQSNaLauPUhI67ZUya3ycRbPR3zUUhYdKM1dPZoS4gUn1nzJnC3n3MlSREQkXwUemitXazzmG/6d9BbjB7Zjz3EH5dvczysfTKRPdTPgIMVhY/5jDdmQcQkzLekiAe1NpAGZp2be5mzd0OZt9uy8se174kasv49P1hhwb29vUlNTM35L5ci8F3j2nZ85ejn9ZM92/gxp3fI6MczJtfy8vLwwDPce/VPU+0f+Cmf/aD4uijWjI91o39P+c41r/WdgGOnTuhd3X+K+tWxLaUi/BrmPz3IWz5M9ipXLoql7/2CqlQBIIDraTmj9MI9zFhERyUlFRb6sWC2QbLeTuansyXYsVmvWJAENGTJxDkOAtISjzHnsDoa81JYes+7DFx/MPiXpO2UnH3byLBMjOQm72Yol5znNdW3fDz9fcCQnk7n+yY5kfP38blD7TlyazXMPLafOynXMb14SgM1ja9LtgqsLcC2/kJBQ4vafJRlyDKEp7vtHZerW8ePLOV9zuHN/ysUuZ966eGhVsPW/bjzuP9fk3X/ZneXMWT9CQ0u5GXdTykk2rj9F1dvuJiK3esVZPD/nT3M65RInfviEPQCk4bCVpFFHPyczioiIFJyGP+WrAq1al2f9fz9jd1wyiUfnMePHRNq0yRy+Es+C0W3pN241J+NTwdsPf4sZL3PmB0dr0aqliZWzF3LSDsblP/jqsU70/+RQwdKIm8eDlUMp23bCVY/ULLT2g4MIuniQnUcvYbPZsDsyrxRXpGmzcNbPns6u2CTijy5k5tI4mjerX7jtuyvNgSM1lRR7KgbgOPcLC9cX5IzUtfzqduhAwK8LWHrNcPrivn+U5L7xn9Pj/Hg6VKtE06HrCaobVOD1z3v/SGek2LHZbFmv5FRc4rT/DFLstqw2jRSSbTZsNjsp2W88hIYRZopi89qzJNps2GzJpGaL591/WVJ3LGDJ2fbc2jr3YVL5x/fw79uqUXvgN8TkEs1P7PY17PVvSbuauX/rhLN4viJaM3DEUB4eNIhBgwYxqFdjgo0wQkMLvigRERFnVFTky4u2L83mxbC59K5Tliq3vcml/t8w6f7Mh8SX4vaHBmP98f9oVqEUpco1ZezhznzySk/SB+yU4J735jAo7k3aVQwjokY3ZiT34x/9axQwDzP+JaxY/S05hqQUUvuNRvDWgDjGNS1LcHAw5Uf9lBHwptNrs3jW/2t61SlPlQ4v8le3GUwaFH6D1z8PQQ8w7sMWbBxyC5Vr1KPt0BWENixfgAW4lp/5tmd4seFKnn10Joev+i6E4r5/gFeVXnzw8z7+Onea/T+/TceQ7Cf8nu4f6X57qSHBwcFZry5TXXt6mNP+28oLddOXGfF/P8Lut2gSHExwcF1e3Jp9Of145a3arBpci9LBwQQHt2bCwWxbJ8/+S5d6biVjR3yM7xMvcn8uJ9zO4hxbwYLN8TTr3YMCna/bDrJ2SwL1OzQmyJ24M2YLpUqVynrZEogLCCVMj0UWEZHrwGTkMth46OLFfN69e1HkA0B0zEXCQgOdTyhyoyTu4qNH7uONbeUY+91qnm5S1Am5yiDFnn5l37Ad5aM+LZnVcSPbXqxX1IndWHn036nvRnD3U0sIG/olc17vRFiOGxHO4gAXpveg4riarNz/Lq1cHlCaxulfv2BuTAuG9r4ll6dGOYuLiIgULyoqRFyWQszuZUT5d6Nt1aLOxVUbeDqyMx+fA5NfENXajuCDr16joxvfyHzzu7b/Yrb/zIHS7WhTwZrrHM7iYOf7B8vzXpNNrH+2+vVJW0RE5CagokJERERERDyiz1SIiIiIiIhHVFSIiIiIiIhHVFSIiIiIiIhHimVRoc9TiIiIiIjcPIplUSEiIiIiIjcPFRUiIiIiIuIRFRUiIiIiIuIRFRUiIiIiIuKRYl5UnGVy5wDKVG3NwCnbSCzqdERERERE5BrFvKgow+MrL3Bg7t0c+cfTzDhR1PmIiIiIiEhOxbyoADAT1KQ5dXyiOX+hqHMREREREZGcboKiAog/z3lbCKEhRZ2IiIiIiIjkdHMUFbGxXCCE4OCiTkRERERERHK6OYqK0tWpEXSUXduiSTaKOhkREREREcnu5igqrF0Y+0oks7pWJLCEFWvTNzlQ1DmJiIiIiAgA5qJOwCVxs3h+7GkeWvUXr7YIxsdU1AmJiIiIiEimm+NOhe0Sl5LDqVZLBYWIiIiISHFzcxQV4eUpZz7L2TNFnYiIiIiIiOR0ExQVqVw6eITTGBj6kLaIiIiISLFTzIuKs0zuHEjVO76k5NPjGV6nqPMREREREZGcivkHtcvw+MoEHi/qNEREREREJE/F/E6FiIiIiIgUdyoqRERERETEIyoqRERERETEIyoqRERERETEIyoqRERERETEIyoqRERERETEIyoqRERERETEIyoqRERERETEIyoqRERERETEIyoqRERERETEIyoqRERERETEIyoqRERERETEIyoqRERERETEIyoqRERERETEIyoqRERERETEIyoqRERERETEIyoqRERERETEIyoqRERERETEIyoqRERERETEIyoqRERERETEIyoqRERERETEIyoqRERERETEIyoqRERERETEIyoqRERERETEIyoqRERERETEIyoqRERERETEIyoqRERERETEIyoqRERERETEIyoqRERERETEIyoqRERERETEIyoqRERERETEIyoq5AZL5cSKT5m8MAqbW3ERERERKW5umqLi9I4TTFkVT2JRJyKeid3Omr1WWrarjcWduIiIiIgUO+aiTsA1Kaz8ag9PHoqkWae6tCjo7Ft2E/SiicXLb6Hd9UjvpmawY0kCo2ba+aOEhQUzStLyurVl58C6zSTW607jEHfiubnElq8/Ze3Z7O+VovmDI+gQ4Wm+IiIiIuKKm6SoMDNw4l3cl+qFX1Gn8reSxuL343j+L1/GD7Mw5tvr3NqZzaw7GkHboZG57njO4rkyznM+JpiWAwfTKjTzTRPeN8meLSIiIvJ3UOyHP81/aQmmZosxNV+CZfAhDl8Vvcz4QYu5851D3PPwr1TvuoIm//yTnckZ4Q27KNlsMaZRx7h44U/aN1ucvqyhRznjYvvGiQWM7lSTsBJmvC0hVGv/KLMOp2RNELuVSQ+1o2aZUpQMq0aH4TPZn9n+pueoULMnTz3Unlp1BzHu3dHc1agyrV5cy+XM+aPX8vZ9jSkfFEBgeG3u/scCjqe5v70KqkTDkvw8viTdy+Yz0fm5DKgUSHjbCex1u6V4dq7ZgblZe+r6uxPPQ+x5zhvhlCltxmzOfHljcjtPERERESmoYl9U9HylC0kbuhL3cpk8p9kT58/U6bdyeF4Luh7by6i5GafsreoTs6ErSR9UIjAkkpUbupK0oStJH1fG1ZExayeM5OugF/gtOhnb2W1M7HiBhT/tzojaWfxsT95NHMgPUReI2fUJDTcOZ+jko1kLiCtHry9WM6HZQn70fo5l8x8n5d1prDIAEvnhyZ5M5mnWnbnEhb3TqL1sAA9NPe5idlsYU82K1Zrj1W8WKc5nBrzo1MmXst5OJvMJoFylSCIjwyjhYmY5Jf+xnk0xNejQLDzXE35n8byknj9PbCkHRxd9zacfTWbaVz+yOybVzSxFRERExB3FfpCIl9kr/QO75rxPNRu3CqecF+AXwN1N/fjwcAJQArxM+PmaMuY14evrVeAP//r7+2M/d5C9B08QUKcyvV6fQ68rUT+6Tz9N98xfgzvT/84IZu7ZD1RJfy8giCCTGXNIKYKCgiAoiCBbAgmpgDmKjRsddJ06mCoWwHIrI/pWp8GazRiPVXLh5LoFE44kMaGA61RgQXcycd0u9+c3otm69iAhrR+miq8b8XzEXUrC3y+ICm260CnIxp5F37B681Fu6VpddytEREREbpBiX1S4wsecdcPF28tEappRaMtu+sIc3rv8Gm/e34JdxxxUaNefN6ZOol8NM5DK4bljeHLcT/yRmD5myXb+NGk9XB2/5MDhsPH9iNqsy7gFkJZ0kcBbTaQBzm4g3CwS961lW0pD+jUIcCuen9Dm/RjRPPM3KxXLliLlvGv3aURERESkcBT74U9FLqAxwyfNZ+OBs8RH/8bL4QsZ9MJckgEufctTA5ZSb8oWoqKiiIqKYtbD5QqwcB98fEpy//SoK/MfPHaa6C/7ulhQeDr86QZIOcnG9aeo2r4lEbntbc7i+TEcJCXasq1rCtHRcYSWLq27FCIiIiI3ULEvKlKS07Alp2FPMcAwSM74PaUgNyNK+RCckMCOUylZy3JJPD881px731jJifhU8PbD32LGy2xOP2lNdeBITcVhT8UAHGdXMX9tTAESq0Pr1iZ+/nYeJ+xgXD7CFyPa0XfqQRfnTx/+lJSU4zWnv8u3oFJSDOwOA3vGmbnDYWB3wNX3Wvbw79uqUXvgNxRk7QBit69hr39L2tXMfeCZs3i+HIf56ZOvWHU4HkdKMrF/rGPz8dLUrx3qfF4RERERKTTFfPhTLM/du55J5zJ/P0u9NgcBC8/OuJ2J9V1cTO1I/t01mif6LeMJu4F/9+YkvJr3B7+zlOKuIY8wd+QQ6r95gnivICo368uM6b3wAQh+kIkf/8KwQTUoawRQpk5fHmxUAZKdLTdTCXp/MJ+9I56kRelBXPYNp373Z5k0sKarC/BQKv95NpaJ2T4X3refDfDl47kB3Jt5u+TYChZsjqfZkz0o0Om67SBrtyRQv2djgtyJO+Nbiw53HmPZ6plMSfLCP6wyje65lybB7ixMRERERNxlMgzjmsv2Qxcv5vPu3XObXv4HXZjeg4rjarJy/7u0crkMTeP0r18wN6YFQ3vfkstTo5zFRURERORmUczvVEjRs7N65UYaPfp+AQoKAC/K3jqEJ9yOi4iIiMjNQkVFPiZNmlSk7T/11FNF2n46P/p8E02fok5DRERERIotFRX5KB4n9SIiIiIixVuxf/qTiIiIiIgUbyoqRERERETEIyoqRERERETEIyoqRERERETEIyoqRERERETEIyoqRERERETEIyoqRERERETEIyoqrpLMmW0LWPtHUech7rm2/2J+/4nVR+Ixii6pv5Eb//eh/pPCo+PD9VX8jg+F1r/GMeY/04V65YKpMWaDBwtK5cSKT5m8MAqbW3GR4u2mKSpO7zjBlFXxJF6vBi7vYuqAZjQf/Cm74q9XI5KXMxtmMm3+Pvf7N4/+Sz6+lLGdGnDHS8s59zc+c/B4+zlTRH8f/yv9J/nT8cEz/6vHh8Lq35QfX2fognK8/dtpDk5o4/6CYrezZq+Vlu1qY3EnLlLcGbkYsmhRbm8XIYfx1TNLDO8ee43NecRXT9toVOmw2KDpIoN2242lBVr+aePrPuWN6g9+Yxy1F0a+N5mVjxtlKo021l8TSDK+7GUxLJYcr44fGmcKNYGLxrf3hRj+tcYaW7O9u+zRMtna7WV8m5TX/Pn3X2r0r8aYFuFGyze2G45CzbuQ5Ln9XZX79is8+Wxf+3+Nbi81Mv5x3DDOb+lr+E4aZ+zJFnZcWmv8e043o/57TY0a77Ywmsz8pzHrbKLL8xuGZ/1n3/+1MbxDDSMipLRRoWEP49WfzxQoLoaOD0Xtb3x8cKoQjg+F0b+xn3c3LLdOMv5yc/50NiNq4WRj2s9/5pGHs3h+HMZfa780Pv5+pxGX5lGSIh65Se5UmBk48S4Sf6hLi9zCcad49RM7/SbfweUNXUla2ZA7C7D0tA3v8tL6jrw3ZQCVfQsp5b+RZm/sJDY2Nuv100jKFGoLAfSf/Rcxu8fTLNu7t394LL2931+hfj5zO+s/r9AOvD11OPETX+e7i4WaeDGR+/YrLPluX28ffPHFzwy+3j4Zv2dI3cPrMx9nXfk3+GX0bxx8Zg3fNbrAv756jTUOF+bP4H7/2fjh5ZGsrT+Z/edOsuEZCx8PGcd6l+PiCh0firtienxwRSEcHwqjfwNCgvGKiSbavdkBSDuzmXVHI2jbOhKzG/H8XD60nCVHK9OjRwMCTR4kKeKhYl9UzH9pCaZmizE1X4Jl8CEO5zZRvIM4rNxSyxerrxcWX1OBVmz/qlVE39aTuwJyRg7wZlMr/b9LufLOludrETZ8yZXfjZOLGNOlPuVDSuIfVJa6nZ9gzpGs6YlZzzsDWlE1IpwyFRtyzz8XcSItK7zm6UjK3/8PxnZrR6PaVanTaRTfHc42vxOpR75jVMeaRISFU6vTWF59uBrln1jlWvvLRxJmtWLt9hkXz31MZ6sVq9WKtdNkzmZrw2T2w2KxZL18vTM3BtXq9+W5YZ1p0HgIEyaNoUfLWnR4dT2XM2eO28bkYZ2oX6k0YeXrcvuor4lKzlr2okeC0tssEURQu/EcydauV2a7vmbQXvy2AAAgAElEQVTyO07m3X9ZzE3upVvp1awu6HDYmI28N6gdNcuGElahHnc9/jX77dni59cw/oFWVIsIoXSlhnR/bh5/XOm+Y0xsY6X7M+O4r0NT6lWrTqtB09iVOVjWle3vwfZz2j4u7L842b7eAQSaAwi0QClLAF5+pbgy2bGvmOY9lA/bNCbEBOBH1QajGeSznCVnXZg/G/f6z5fQsFLgH0gpb18qDprFsYMTaO1y3BkdH0DHBx0f3Dw+uKKQjg9u928Gr5BQguIu4n7NGc/ONTswN2tPXX934nlLu/A7i9al0r5Xe8r5uJ2gSKEo9kVFz1e6kLShK3Ev53Lta/9BGnReTthDh9jDeUbevZywzssJ67GHVddOnafz588RVCa8YFdQMqx//0m+DRzDhpOXiDu2kfG3XmDx8r0Z0UQWPNOXqTzBqj/P8df2ydRc8TDDPjlx1TIuHfaiz+x17IjazrRG6xg+eqaLV0Timf38CH6q8Cobj59m15e3EbcnJlvcSfu3f8ip2Fhi5z9CYPhwlrpzpTGuLD0/XcbbTX5kqfdoFs0ZScqkz/jFALCzZGwfJiX257+7/uLUbx/RYPMoHv34zyuzd/vkLLGxsZyZ1s3VFq/hWv9FUDbCxrlzlwqw5CQW/6Mv78U/wOzdJzi+ZRqtdo1m0MQ9V+KLxt7P1LShLNh/iqNr36H6L8MYMe3YVUvZe746H6zext49P9Dl0Bie+jQj7nT7F872y7N9nO2/6fLfvuVoUqMlNa1gCmzInZWqXvmnHxNzFFvp6kQCJ/b/izundKHb3P9ywOcicUnO57+aO/3nRcf/G4Hls9G8s8MGJm98LT7ZDnrO4p7T8UHHBx0fXPn7zkthHR/c6d8MKQkc2BGFvXr6scwdyX+sZ1NMDTo0C8+1AHYWz5PjFGsWbiKphJ2t333K9FlL2X3e9YsOIoWt2BcVXmYvLL5e+Jlz+VOrXpXlszqw470q1CKUt2d2YMesDuyYXou2BWgjLS0Nk8m9e4b+JfxJPn+IfYdPkmCJpOfL3/DlyIYZ0YNs2uygy8MPUtkC3mHtGdqrGhvWbb3qaRT+LTrRoiRAIB36dqfCicO535G5xjEOHEimXZ8HqFLCG78Kd9O7fWC2uJP2vcz4WSxYfLwBb3xzXmnMsPWF2ulXu6xWrNaSPLIoWzAgkCCTmZCQkgQFBkJgIEG2RBJTAfzoOu1PDs0aTr0gH/zKdqRf5zLs2xt1ZXYvn/SrjX4+7u+KrvWfCZMpfVrXHWLTpgTuHPoYjcNKUKJcO56b9l+ev60UaRnxzZsv03nQMG4JtlIy8i5G9KrCls3br+rfRnd0oaw3YG3AXe3Ds9bf6fYvnO2XZ/s423/T5b996/JE/zfpYQHKj2TBnbdjzYikpDnw9jIDR5i5cgHV75zPj73vpZLdtfmv5kb/xS1iaM+ZlHugIrP6j+LHaCBuJeMffYvl0S7EC4GODzo+6Pjgyt93Xgrr+OBG/9pm0dtqxVqqNI1eP8eIVx+mYoFyz2BEs3XtQUJat6VKbpWXs3ieUji1fhkHg9vQ9Z4+PDj4flqVPMbPK3eR4E6eIoWgoEP3ihcfMxHhZrCb8cGL4HALFdy43eDl5YVhuPdoiMZjvuHfSW8xfmA79hx3UL7N/bzywUT6VDcDDlIcNuY/1pANJdKnT0u6SEB7E2lA5r8Gb3O2bmjzNnt2upVKLlxr35nm46JYM9qdazSpHJn3As++8zNHL6cfzG3nz5DWrSD/uJ1zrf8MDCN9WtfZsNt88PPL+odZqs7t9M0n7ufni8OWRCpZf1w+Pln3pL29vUlNTXWx/cLZfvm1n//+m86Tv490CcQnh1IxyAJeZalQEjeGEbjRf78vZ5nRk+8/eodS4zvTvf87vFxnBlNs/2Z3GLDKSbwQ6PiQHx0fQMeHwuGs/9zoX0t/fkjqD6mJHP1sAE1Hv8/A7S9Tt4CZJe5by7aUhvRrkPs9FmfxPNkPsnlXIG1HNCLcAhBA3TqVWLbyIpeAkgXMU6Qw3NxFRSEJCQklbv9ZkiHHLVwrVgsk2+1kbip7sh2LNdu1koCGDJk4hyFAWsJR5jx2B0NeakuPWffhiw9mn5L0nbKTDzt5lqORnITdbMVy1TGxMnXr+PHlnK853Lk/5WKXM29dPLTKjBde+265NJvnHlpOnZXrmN88/RC3eWxNul0o3Gby7r/sznLmrB+hoaVyjea+fS34WRzE2A3IuCkdH7WCZTE16N02Eq9c4nZ7Mj4Wq8snZPm6Edsv3/03nWvbN99GCLLEcTYhBULPcMqty2j591+uUlNJ9bHggy8Nxn7DKxta8vjXjfhob08CXYk7peODR3R88Mzf5vgARqoNu5cFi9sfMnZ2fHDj+JHJ258q1Svic/ESBX5abspJNq4/RdXb7iYit3rGWTw/p09y0jeYltmePXshOhrCGhNa0DxFCkmxH/6UkpyGLTkNe4oBhkFyxu8phXhhpG6HDgT8uoCl1wy3rECr1uVZ/9/P2B2XTOLRecz4MZE2bTJv/8azYHRb+o1bzcn4VPD2w99ixsuc+cHBWrRqaWLl7IWctINx+Q++eqwT/T85VLAE4+bxYOVQyradwP6rAiW5b/zn9Dg/ng7VKtF06HqC6gZli7vYfnAQQRcPsvPoJWw2G3bH1Ve6jBQ7Npst65Xs4pW0NAeO1FRS7KkYgOPcLyxcn/0/nkGK3ZbVppFCss2GzWa/un9DwwgzRbF57VkSbTZstmRSs8Xz7r8sqTsWsORse25tnct/rTy3bw1atSrJzzOmsDMmictnNvLeow8wbvWljD+cGrRs6c+qr2ewLy6JhOM/8/n8o7Rs1aRg42Lz2v6Ftf3y5Gz/TefK9s2Nt5eZlLQUoAqP3PEAp34dxogly0mMqEk5v4ItK9/+y0tEBBHR29kYdYnEk3vYfQqspoNs2h7rWtwpHR9AxwcdH9w7PlyRtJgB71ShzMcf5Ni+rnN2fHDr+JHN5TNnuBQRQUQB54vdvoa9/i1pVzP3b51wFs9XQCCBiYfZsS8Gm8PGhSNrWPqbgyYt61DAw6tI4cntObPF53sqLhhP3b0o/bsnrnr9bDy7K9tkxw8ZDZtuNr5y9zsm0o4aU+8qY1Tr/4VxKOezzuN+Mz58qJ1RPSLEKF2pidHnlWXGX9meA53w+8fG4LY1jDIBVqNEUIRRp9MoY86hlKwJotcYb/drbkSWDjXCy9U2Og6bavx+KSv86+hKRrnHV+afX+xCY1i1EKNs5w+MA05W5ZrlOWk/ff2PG3NHtjEqBpcwLBaLETrsx4yAk+fQbx5rVK37L2OnYRjrn6tq9Poy3jBipxt3W+4z5jgMwzBsxq7Phxhta1QwKlWvazTv/i/j3VENsi1/s/Fc1VyWb6lqjL3qC0kSjc3v9TLqRwQaVovFsFiaGOOisuefT/8ZhpFydoXxbPPSRpN/bTJsBd2+0euNdwe2NapHBBshZesYt4+caezJ3sa5X423729pVC0TbIRVaGB0ffZ748iVh4z/aUxobTHuy/YA/c1ja2Zbf2fb39Pt57x9p/uvC9s3L2mHnjVKT57gdJ91xmn/5em8sfzFu426EcFGUPkmxv3vrDX+XPmEUbPSA8b3Z12Ju0DHBx0fdHxw6/hwRdJSY+iEykbEZx+7daxw1n/uHz+yJH7T17DWedxYcd5uuPw1EEkHjAWTpxkrj+fxrRPO4k4lG2d3LDW+/uQD4/33PzCmfbXQ2Hj0kuv5iVwHxbyouIESdhqT76tplKl6m/HetqJOpiDSDIctyUhKSjIux+4zJnQqZTR5o0BfL/T3kEf/nZwz3KhftrzR8cWVxnkdbd3nzt9H6m7jtcl1jFuXLTMO2tz7x6n+85SOD4Zh6PhwvRXR/09n/Vdo/Xt5p/Hx4LZGtfAAo/pzrnwNYarx1y+fGx98v9tIdCsucnMyGca1n7Aaungxn3fvXhQ3TopYCjG7lxHl3422VYs6F1dt4OnIznx8Dkx+QVRrO4IPvnqNjiFFnVdRuLb/Yrb/zIHS7WhToWDPHJHcFPzvIy1hI+8vG8/nh/ZzPq0OL49cwBPBrreo/vOUjg9ZdHy4vm78/09n/af+FbmxVFSIiIiIiIhHiv0HtUVEREREpHhTUSEiIiIiIh5RUSEiIiIiIh4plkVFdEzBv29XRERERESKRrEsKkRERERE5OahokJERERERDyiokJERERERDyiokJERERERDyiokJusFROrPiUyQujsLkVFxEREZHiRkWF3Fix21mz10rLdrWxuBMXERERkWLHXNQJSBGLc/DutES+3pNKgtmLxq1LMG6IH9Wuy55h58C6zSTW607jEHfiuYjfxjef/MKZnO9bGnDfY3dQyaN8RURERMQVKir+pxnMnXqJ2ZaSzP3Uj4pJDt55+xLDfvBmdb/C3zXSzmxm3dEI2g6NzHXHcxbPVUwMF/wb0W/YrZQFwMbBH2eyoVQdyhdW4iIiIiKSLw1/csI4sYDRnWoSVsKMtyWEau0fZdbhlKwJYrcy6aF21CxTipJh1egwfCb7kzNim56jQs2ePPVQe2rVHcS4d0dzV6PKtHpxLZcz549ey9v3NaZ8UACB4bW5+x8LOJ52o9YuhS37TfTs4Uc1C/gG+zDqdjP796Vw1dcPnp/LgEqBhLedwF6324pn55odmJu1p66/O/E81qBERZq3r0uE2YzZbMb4axPrTkVya5sKeLudq4iIiIgUhIoKJ9ZOGMnXQS/wW3QytrPbmNjxAgt/2p0RtbP42Z68mziQH6IuELPrExpuHM7QyUezFhBXjl5frGZCs4X86P0cy+Y/Tsq701hlACTyw5M9mczTrDtziQt7p1F72QAemnrcxey2MKaaFas1x6vfLFKczwwY2BwmLL7wx1Ybcw8b+PmYwG5gzz6ZTwDlKkUSGRlGCRczyyn5j/VsiqlBh2bhmNyI58UcXodW9criA5B2js2r9hHctgM19IEMERERkRtGw5+c8Pf3x37uIHsPniCgTmV6vT6HXleifnSffprumb8Gd6b/nRHM3LMfqJL+XkAQQSYz5pBSBAUFQVAQQbYEElIBcxQbNzroOnUwVSyA5VZG9K1OgzWbMR6r5MLJdQsmHEligsdrmcamZZeZVtXM3RG5hIPuZOK6Xe4v3ohm69qDhLR+mCq+bsRdFLd9Fb97NWNAgwD3FyIiIiIiBaY7FU40fWEO7zXdz5v3t6BiYCi1bn+MOYcy7wOkcnjuM3RtWpfatWtTu3ZtBsw8TVqaq+OXHDgcNr4fUfvK/Pd8do5APxM3bAQUAF4MeDGEXwdcnxozcd9atqU05NY8TvadxV1yeT+rN8ZzS8cWhBXkVoeIiIiIeExFhTMBjRk+aT4bD5wlPvo3Xg5fyKAX5pIMcOlbnhqwlHpTthAVFUVUVBSzHi5XgIX74ONTkvunR12Z/+Cx00R/2dfFzwN4OvzJhMXHwJac9Y7dYYCPCQ9uGFwt5SQb15+iavuWROS2tzmLu8TB0bVr+CuyA20q6uabiIiIyI2moiJf8fzwWHPufWMlJ+JTwdsPf4sZL7M5fWhSqgNHaioOeyoG4Di7ivlrYwqw/Dq0bm3i52/nccIOxuUjfDGiHX2nHnRx/vThT0lJOV5z+rs4rs1MizoGCxfZ+cMGjlgHU1akUK2WmaCrptvDv2+rRu2B31CQtQOI3b6Gvf4taVcz9w85OIu7IvXMRlYfCKLtrbX03RYiIiIiRUBFRb5KcdeQRyixaAj1w3zwCanPs4fuYMYbvdI/GBz8IBM/bsWGQTUoW6k6zQYvJ7RRhQIsvwS9P5jPw3Gv0qJ0SYIq3cFnyf15YWDN67Q+OZnoOzKA+5OT6DMshhpPJvBbVX9m5Hyc7LEVLNgcT7PePQgtyOJtB1m7JYH6HRrnKFJcjLsklm0rt+PdtCMN9VEKERERkSJhMgzDyPnm0MWL+bx799ymvyGiYy4SFhpYZO3L1S5M70HFcTVZuf9dWrk8uiiN079+wdyYFgztfUsuT41yFhcRERGRm4UGoIsTdlav3EijR98vQEEB4EXZW4fwhNtxEREREblZqKjIx6RJk4q0/aeeeqpI20/nR59voulT1GmIiIiISLGloiIfxeOkXkRERESkeNMHtUVERERExCMqKkRERERExCMa/pSP1MS913X53v71ruvyRURERERuBN2pEBERERERj6ioEBERERERj6ioEBERERERj6ioEBERERERj6iouKkkc2bbAtb+UdR5iBSFa/f/mN9/YvWReIyiSypfhZafcYz5z3ShXrlgaozZ4MGCUjmx4lMmL4zC5lZcREQkdyoqbhaXdzF1QDOaD/6UXfHXhk/vOMGUVfEk3vjM0ttfN50p3+/9n23/f92ZDTOZNn/f9dv+eez/yceXMrZTA+54aTnnPDhzv177T2Hll/Lj6wxdUI63fzvNwQlt3F9Q7HbW7LXSsl1tLO7ERURE8qCiwiVp/DrjDDW6/on51qOY7zrPshva/hm+GdyV97yeZ+32xTzWMGc8hZVf7eHJ/5zArYfgbtlN0J17WOd2fpdYOfEJnnxuRsHbj3Pw7r/jaDwohhqPxNLvEztHUm5g+/lYPjICq9Wa8erNLFvB4nCAN5ta6f9d1gpteb4WYcOXFGKWxcElVv/nGZ59/kv2X5fl573/l713Ept+n0mT5YPo+dYOCrzrANdr/ym8/CDh3DkuV2xEi3IWTG5nY+fAus0k1mtP4xB34rlzXIhi9dwZTJn0HyZNmcG89ce47HaOIiJys1JR4YqLibz2RSr3TaxE/M+VSVgcxh03sPm0De/y0vqOvDdlAJV9c5vCzMCJd5H4Q11a3MC8sgQwcN4FEg9OLGD7BnOnXmK2r5W5n4ay972SNDiUwLAfCnrqVYD2U2PZueuYS8NRbv/wGLGxscT+/gr13Yj/7wig/+y/iNk9nmbXYenO9n+v0A68PXU48RNf57uL7rTg7v7rGs/zg4CQYLxioon2II+0M5tZdzSCtq0jc/2CImfxXMXvZsG367HX7cYjox5jeK+62LctYfMpDxIVEZGbkooKVySkEoeZetW9sPqasPiYsjZcrI23XjpFZNc/Cbr3JF0+SORIatasv/7nOGVevMCYZ/7ilvuPU+PxaGafLNg4iP2rVhF9W0/uCrg2Nv+lJZiaLcbUfAmWwYc4fFX0MuMHLebOdw5xz8O/Ur3rCpr88092JmeEN+yiZLPFmEYd4+KFP2nfbHH6soYe5YyLuc0faMFkMmHysmBp/maO9p1JYct+Ez17+FHNAr7BPoy63cz+fSlcde51fi4DKgUS3nbCNVeSXW7fcY7NX/6T3o3q0++rI1lFRdw2Jg/rRP1KpQkrX5fbR31NVMb28TL7YbFYsPiac7067CzuCuPkIsZ0qU/5kJL4B5WlbucnmJP9Vk3Met4Z0IqqEeGUqdiQe/65iBNpWeE1T0dS/v5/MLZbOxrVrkqdTqP47nCK68v3ML9FjwSl36kpEURQu/EcuWruBGb0tGa7m5P+ajn+gMvrB/nv/5nMTe6lW+nVrM7t4waFsP98199Km4lH8og6j+ebnwu8QkIJiruImzUJEM/ONTswN2tPXX934rlLOfkHx4Lq06ZuOFYfH0qElyHI7IuPj9uJiojITUpFRX4OxNKoxzHK/F8ce0nisT7HKNPjGGX6xbAaAIOFU84yJS2AH/8bycmPQ6nx+3mGzr/6pO3iSej7Vjn2zK7AZzVsDHk/gfMFSOP8+XMElQknt5sUPV/pQtKGrsS9XCbP+ffE+TN1+q0cnteCrsf2MmpuxuCEVvWJ2dCVpA8qERgSycoNXUna0JWkjysT4WJuPWdcJCkpibjpPXKJbmFMtWtPKq39ZmUMAzGwOUxYfOGPrTbmHjbw8zGB3cCefTE+AZSrFElkZBglCtQ+YDvBLx8/Q5f6zRm52Ive039n74ROGTu+nSVj+zApsT//3fUXp377iAabR/Hox3+6uPaeW//+k3wbOIYNJy8Rd2wj42+9wOLlmae+iSx4pi9TeYJVf57jr+2TqbniYYZ9cuKqZVw67EWf2evYEbWdaY3WMXz0zCtXtPNfvqf5QbdPzhIbG8uZad1ymbskg7+PTb+bExvL8cWjqFGqIT3uqFSg9ctv/88SQdkIG+fOXbo25Mn+U2jyyc+ZlAQO7IjCXr06kW62nvzHejbF1KBDs/BcC2Bn8byYK9aieuJOVm39k3Mn97Bq7i9cbNKFFuFuJioiIjctl+9y/0+qGshP00uRciaero/bGTEtjHt9AJMXpQFwsGmPwe2PleKWACDAysjbfGi6147RJ+vqtX9dKy2tAF7c2qkEFd9xcBhcPnFPS0vDZM79X72X2Sv9A5V5xAEatwqnnBfgF8DdTf348HACUAK8TPj5mjLmNeHr61XgD2d6+fhh8QF8cqtPWzDhSBITnC4ljU3LLjOtqpm7c9soQXcycd0uN9rfy1vtu7Co/lP8a94uutcJzHHC5EfXaX/S9Uo7HenXuQxf740CKjvNujD4l/An+fwh9h0+SUCtSHq+/A09r0QPsmmzgy4fPEhlC2Bpz9Be1Wi+bivGoxWz9q8WnWhREiCQDn27U2HkYQ4DYU6X72l+zrY/ePtY8PaBtGNf83+PzKPhlLX8q6m1QOuX3/6fxYTJlD7tNdzdfw6Mp2mj19iX+fv8W7C+BPgPZEH0p9zpLO5qfnmxzaJ38BCWAvjX5envH6ai63NnMaLZuvYgIa0fpkpulZmzeH5KlKN+rRIs/W01P5ouYi/Tifubl3dSAIqIyN+R7lTkx8eLiNJmKoSYMGMiOMxMhdJmKoR54QeAgS0Z/LL9B/X1MeGwG2QbAYXZO9sv9UOI+iqE1gVIw8vLC8Nw/9ExPuasbvb2MpGaVtwewOnFgBdD+HVAYde4AVRrEMbJNUtYunwDfyTkjKdyZN4/uLd1Yxo2bEjDhg156OszBTvx81DjMd/w7yYHGD+wHdXLlKNB19F8f2X4koMUh435jzW8kt99M84R4Gcie4be5mzbrc3b7Nk5jlYuLd/T/FyUsIl/9h1D9Mjv+bRv+WyFnWvr59r+b2AY6dMWmlrPsy0piaSkJL68Fxq/sYekpCSSMgsGZ3FP87P054ekJJISotn3VgU+Hv1+VgFTAIn71rItpSG3Nsh9/JizeJ6Mi+yaP5et3q0ZNPwRHhk+hHbeG5i34UyxfcSviIhcPyoqPJI+dMeenPVOssPAx8+Ed94zFVhISChxZ86S7HzSYsbZ8CcTFp/0wiyT3WGAj6mQrnRW5IHPt7Fn/hOU3/Yat9VpyeA3v2NXbEbJd2k2zz20nDofrGXnzp3s3LmTLweVLZSW0/nh5wuO5KwVTHYk4+vnlzVJQEOGTJzDr7uOc/7kBv5ZejFDXpqX0dc+mH1K0nfaziv57T74J6c+7+X6/pXv8rMYyUnYcqulXJw/T2kn+PqRB/jhlqnMfaFxjjthrq2fa/v/Wc6c9SM0tJSrmd1gHuTn7U+V6hXxuXiJXJ4mnb+Uk2xcf4qq7VsSkdvR3lk8Pye2svZCdW5rX5UAM+AdQOUKwcSePXcTHqtERMRTKio84kOrW0ys/CmeffEGCWeT+ORXB61u8fPgsY/XqtuhAwG/LmBpLsOxU5LTsCWnYU8xwDBIzvg9pSCXCkv5EJyQwI5TKVnLcolBit2GzWbD7kgDI4Vkmw2bzZ7Rfvrwp6SkHK85/TPG3ZlpUcdg4SI7f9jAEetgyooUqtUyE3RVO3v4923VqD3wG2IK1D6AF0G39OJfX25i/+pXaXziI3o+MTf9TlKaA0dqKin2VAzAce4XFq6/cO1qhoYRZopi89qzJNps2GzJpBquxCvStFk462dPZ1dsEvFHFzJzaRzNm2U+KyqeBaPb0m/cak7Gp4K3H/4WM17mzKFztWjV0sTK2Qs5aQfj8h989Vgn+n9yyMX+cbb8DHHzeLByKGXbTsjxSFhn8zvb/klsea0vY04P49v/dCHAlm3aAqxffvt/ptQdC1hytj23ts7tL8+T/SddifBKlAvI+9PHzuL55+fc5TNnuBQR4fKQyUyx29ew178l7WrmPrDRWTw/RloaaYknOXwyHkeKg/i/drJ62zkq1aiMn/PZRUTk78bIxZBFi3J7+4Y5Hx1XpO1nSknYk/46sM5o0HSlMfPCnqz3Ml8nfjNefXqZUb7DYqNk55+Mzm9vNg5czIqvfHOJEfra1mvnS9jjeiJpR42pd5UxqvX/wjiUlD1wwXjq7kUGTXO+fjae3WUYhpFojBu4yLjnx9Qrc2x8f4Xh/8qZHMu/bMx+Y60R3maxQdNF18bztNF4qjwG5HyVN57d6OIiYpONieNjjUYPRhuRAy8Y90xJMg4k55jmz/eN1pbSxoPfXyyU9pMuX874yWbs+nyI0bZGBaNS9bpG8+7/Mt4d1cAIHfZjjjkSjc3v9TLqRwQaVovFsFiaGOOiXIzHrDcmPNDSqFom2AitUN/o+tw842hK1pwJv39sDG5bwygTYDVKBEUYdTqNMuYcyjZB9Brj7X7NjcjSoUZ4udpGx2FTjd8vZYV/HV3JKPf4yjzX1enyDcMwYhcaw6qFGGU7f2AcKND8m43nqloMiyXnq6oxdrNhGEaU8UaTa+NXbV8n62cYRj77f7qUsyuMZ5uXNpr8a5Nhy20jFPL+U1BO83NB4jd9DWudx40V5+1GmqszJR0wFkyeZqw87nAv7lS8cWTN98b0KZOM996bZEyZPsf4ecdpt9dRRERubibDuHaw8tDFi/m8e/cbVddcIzrmImGhgUXWfqbUxML+KqyrefvXc33ixF189Mh9vLGtHGO/W83TTa5fXsXNhek9qDiuJiv3v0srPVrgf1Me+/+p70Zw91NLCBv6JXNe70RYLjcCinL/cSU/lyTtYtqjo5jw025Mg5dyyOm3aqAdtYUAACAASURBVKdx+tcvmBvTgqG9b7nmqVfO4yIiIgWjoiIfxaqoACCFmN3LiPLvRtuq1yWlYsjO9w+W570mm1j/bPWiTkaK1LX7f8z2nzlQuh1tKljzmKdo9x/n+YmIiPw9qKjIR/ErKoqXSZMm5Rt/6qmn/tbty81N+4+IiEjhUVGRDxUVIiIiIiLO6elPIiIiIiLiERUVIiIiIiLiET1LJxeZw680PElERERExDndqRAREREREY+oqBAREREREY+oqBAREREREY+oqBAREREREY+oqBARuSkkc2bbAtb+4focMb//xOoj8VzzZUTXTSonVnzK5IVR2NyKi4jIzUpFhRQLp9dNZ8r3e0m8SZcvcl1d3sXUAc1oPvhTdsVfG85r/04+vpSxnRpwx0vLOXcjKovY7azZa6Vlu9pY3ImLiMhNS0VFsRbFq7eY6PvflCvvbHquMiUfXlyEOV0Pl1g58QmefG4Gbn2H+YpHCYp4nHXXa/l5+l/pn9wtHxmB1WrNePVmlq1gcTjAm02t9P8ua/tteb4WYcOXXPfci5VVTxAR+TQb8pzgDN8M7sp7Xs+zdvtiHmuYM573/l323kls+n0mTZYPoudbO0jJOWuhsnNg3WYS67WncYg78dw5Yvax+vsvmPrBf5g0ZQY/rDuqiwMiIsWQigopBgIYOO8CiQcn0uKmXP7/pts/PEZsbCyxv79CfTfi4pq0De/y0vqOvDdlAJV9c5si//3bK7QDb08dTvzE1/nu4nXM88xm1h2NoG3ryFy/AMlZPFfxe1k4ex3x1e5g0KOjGNqzFrZti/jlkKMQMxcRkcKgouImZ5xYwOhONQkrYcbbEkK19o8y63C265HRa3n7vsaUDwogMLw2d/9jAcfTssK/PB5BWO9nePaOFtSpUp6q7Ybz30MFuJ6Z3/KTt/NSI38avvw76acAZ/nq3lDKDfiBmIxJ5g+0YDKZMHlZsDR/k8MFWb+fhlHSZMJ0xzQunv2I9iZT+rLa/YczLi3//9m77/AoyvX/4+80sptgsikkoffeewugYKOIoiCCIEj70SwcQPR8j+WoRzmCHoMo2FCxIIhSBFSkKAQRBekSQi8K6SEhbMom8/sjCQRSdpMNJNHP67r2uszeM89zz8yzsvc8M7Mnmd3BhdsfeYG7u7SgQY2atHvgLfbmOaOeefRzxnevjaWyD3VCp/OvB2sQOHGDw7unzI+PsxJ3MX9cb1rWqkJg9WbcOvkTItKzQ67unphMJkyV3HEpYFV7cUcYZ79m5p0tqe5fGW9LVZr1eYRlx/Jsf9w2XhnehXohQQTXbM3d//yaM3n235Zptak+9Alm9Q+lTZN6NO09mS/y7H+77duReewLJt/SiJDAIBr3nsVzo+tT/ZFNjuW3fhKBZjPm/u9xIXohfXJndXrPJypPH4c2bSL25oHc4ZO/f3ufn1zu7e6hf5XNbC5oOiRmOcNr+RLUfY4TM3nJ7N2yB/cOPWjmXZJ4waL2/MwftW6mb5vqVK5Uico12tOiegaJiZdKnKmIiFwfKioquK1zJvGJ5Sl2xqaTGrWLubfEs/rb/TnRFL56dCDzmUb4+STiD75Nk++GM2rB6avauBDpypAVv3DoxO8saruF0VMWEeNQ73bar9SWZz99Bs/XxzB7bwZRSyYzbdddLHrrXgJyWhj4wQWsViuJi+4q/vbdvpA4qxXrunH4Bk9ko9WK1WrFuukRQhxsH+BATEMWbDvA0SNr6Bf5OJMXnMyJJPPZ9IdZV/NFfotO4PCS3iTsi3VozziU/3U/Pr8ws745zyVIOa/7lzh4GUwa62bdR1jKMD7f9yd/7HyTVjsmM3HhyWLsAeds+9+jfOY7k5/OJpF4ajuze8WzZn3uV98UVv1jMAt4hE0no/lz93wabRjNuHfOXNVG0lFX7lsazp6I3bzdJpzxj39ErEPt25PM0icn8G2N59h++hz7Ft9M4oG4PHE7+d36Bn8kJJCw8mF8g8bzTUJC9szOt5MIztNKTEw0luAgCpqkcGR8Zwuhakgq0dFJ+UMePlSrVZvatQPxcnDLr5V+fBs/xzWkZ4egAgtIe/GC2YiNTcQSGIjH5fcSSbxwEzVq+JYwUxERuV4cnoWW8snb25u06EgORp7Bp2kdBj2/jEGXoxFs355BvwUPUdcEmHoxYXADWm3ZgTGl1uV/3L273EqXygC+3Dz0bmqOO8IRoIrd3u237958Jp88v44u4wex5fRBhn66lzstV1pw9fDE5AF4FFzfFrl9ru54mtzBww1wo5LJlO/mT3vtA7S9oz/V3ABza/r2CuaNA4eAOsBJIiLS6fnSg9TzcgWv/gzpZWFpMSYKyvb4dGLOMStzHE/3Gp70e/sk/XL/tNzC/X2C+eRgBNn75/rz9vImPeYIvx89i0/j2gx85lMGXo5G8vOODO6c9yB1TICpB2MH1adj+K8YE2te2X+detMpZ//1HDyAGpOOchQItNu+Pac4fDid0OcfoK6XK3j15d4evly5RcROfg6MX4CsrCxc3Av+Ku7I+M7mgotLdlv5WG5nbvg+Rzc6PyOWX7dG4t91NHULqnzsxQvljq+vN3FHDvBnmx5U87jIyfANHPTpzINVS56uiIhcHyoqKrj2Ty3jtUv/5sWhndh3KoMaocN4YUEY9zd0BzLIyEjlywlNCM85BZllvYBvLxeyALecNtzd8wyD0Fc4EuFo746070qj8Y/S5+nBLG/0Hxb2KeAajhJvX+nw8LhyHtTNzY3MzMxSa7tsj4+zMjm24immv/I9Jy5lfxlNjTlPVv8CvpheJ21nfsp/rf9h9ohQDpzOoHq3oTw7by73Ncjef7aMVFZOac1PefafT4+r959b3v3X7SUO7HW0fWc5lp89rq6uGIazj24yMIzstkpbyu9b2WVrzf2tCv5s24sXpUaXfnT67gfWfnwCH4sbCbEmQh9sTfFbEhGR602XP5Vrnnh6Qnp6+uV30tPT8fT0vLKIT1vGh61k++EokmN38kzQakY+tZzsNTzw8KjM0EURRERkvyJPnSN28WCHv9AUzZH2k9kwYyab+8xg7MU5TH33VPGemV/k9l1vdWne3JMfP/+II8kZXDr1Ncu35L18pLwfHycvf0payoxR62k6byt79+5l7969LB5ZmqeIPfGsBBl5919GOpWu2n+tGTN3GT/uO03M2Z/4Z5U1jHl6xeX95+5RmcFv772c3/7Ik/zx/iDH91+R7V9hpFtJzVdL1aFZU0+2LvuEo8kZXDq9lhXheZ/3Wgr5Af7+ASSej3JyzEdxPsqTgICbnGolH9tZtm/7g3o9OhNS0L8m9uL2eNWi+6CHGD/6dqqlpVPnjv60VEUhIlIuqago12rRsWMw4Z+9w954K8nHV7BobQKdOrXKiSfz1ZSO3PPCRs4kZ4KbJ94md1zdc2+MbUrXri58/9kKzqSBcekYH04IZfCCyFLKz3778WsfZfQXLZi3cA5h744icvpI5h/N/XZmYEtLJTU1lbSMLDBspKemkpqahs1wZPty+Pnhl3iYPceTrrTlUPv2VOaBuYu5O/pFulQPosVDW/Fr4ZcnXt6PT/blT1brNa9lwxyboszKICMzE1taJgaQEf0Dq7fF518uIJBAlwh2bI0iJTWV1NR0Mg1H4jVp3yGIbUsXsS/BSvKJ1Xz0TSIdO+Q+KyqZVY935/6XN3O2wP3XmC6dXdi4dDVn08C4dJyPp/Rm2DtHHNw/9trPkbiCB+sEULX7HA5dtX5lhsx+n7tiZtOzfi3aj92GpVmea/sczc/PguVCJHtPXDt+szXr2ROfH1fxTb7bIRwf35l7VrEuqge9uhZ0GdUB/ntzfZqM+JS4AqJFSdi9hYPenQltVPCvTtiLO8RI4sCarzlZpy+31jOXvB0REbm+jAKM+frrgt6+YWJiE//W/V8ldqvx8n1tjeq+ZsO7SiPj1seWG8dtV8IXd75pDOtYy/Ct5GK4mvyMeqHjjSWReRaI+cF4flArI+Qmb8MnoK7RfdR8Y2fSlfDmKcFGwP/7vuT5FdV+9JfGkGB/Y9Cn53LeSDF+eLSB4dX5JeNghmEYxnbjseoYcO2rujF9u4PbZxiGkXXKWDqugxFkdjUAw3tU7vi11/4J4+X2GHd/bL3c1PbptfOsn1++/VXej49TUo19748xujesYdRq0MzoOOD/jFcntzICxq29ZrkUY8drg4yWIb6G2WQyTKZ2xssRDsbjthlzHuhs1Av2MwJqtDT6zVhhnMi7/35baDzUvaER7GM2vCwhRtPek41lR/IsELvFeOn+jkbtKgFGULUmxi3jFhi/5dl/Pz5ey6g2dWOhW2i3fcMwjITVxrj6/kbVPvOMw3b2WL7+7ORnGIZhZJ02lk/qZtT08zJMJlP+/Zt1wlhwR7BRf9iHxhFr3oD9z49hGIYtaoMxvWMVo93//WykFpT0yf8ZXU1VjAe/vGBn665hPWysmv+2sfF0RsniDkk1Tm1cZLy5bLeRkOVEMyIict25GEb+i3XHrlnD+wMG3KCyJr/YuAsEBpTd0z3Kun8pTwxsadlnfo3U44Td1YZP+vzGgedalHViUi7kHR8nePO+ziy5ZTu7/tW8dLtJ2cebDw/hhV3VmPXFZqa1c2y1P76YQN/H1hE4djHLnu9NYAETFfGL7qLmy43YeOhVujh8K0kW5378kOVxnRh7b4sCnhplLy4iIn81ulFbpEjbeLx2D96MAhdPPxr0mMmCR1RQSK7tzGzUh4XR4OJpoX73acybXMoFBYB3K6YsO8gD+78johi/82BqMISFv4TRrUZhlw2lsXnjdtpM/F8xCgoAV6r2GsMjJY6LiMhfjWYqymH/IiL2hIWFFRl/7LHHblAmIiIimqkQEamQVDSIiEh5oqc/iYiIiIiIU1RUiIiIiIiIU3T5k4hIATJTDjq1vpv3dbhhW0REpJzSTIWIiIiIiDhFRYWIiIiIiDhFRYWIiIiIiDhFRYWIiIiIiDhFRYXkkc75XavYerys8xApifzjN+63b9l8LJl8v/ApUmzFH1+lNv6MU6z8x500r+ZHw5k/OdFQJmc2vMv81RGkliguIlI4FRUVxLk9Z3hrUzIp16uDS/tYMLwDHR96l33Jpd/8ufBFvPXlweuW//VuX66v8z99xNsrfy/58Stk/Kaf/oZZvVtx29PriVZl8bdVVuOrtMafbe3zjF1VjZd2niNyTreSN5Swmy0HzXQObYKpJHERkSKoqKgQbGz8+ACPvn6Ggh9yaeOHd36mXq+1uHRYg0uPPXxbrPbP8+lD/XjN9Um27l7DlNalkXNeSWyc+wiPzvigkPzt2DARS8hUwq9X+4WK4LkWLgz+3Hb5nZ9n1KHy6DWl2kuZ2/QIIbWnkf/8Zyof32vGbL7m1Xs+UaWaQBKbX/8H059czKE8766fFJKn33tZUuip08LHb9V7wvj5t49ot34kA/+zB1thTcj18zceX6U1/i5GR3OpZhs6VTPhUsI2II3D4TtIad6Dtv4liRfClsiR8OW88/qrvLr0Ny5dE06P2sf3yxbx1rww5r/9Eat3nNUsiMhflIqKCsGdEXPvIOWrZnQqKJz4B8+9k8b982/j0k/9sG5sze3FaD3rp1d5etstvPbWcOpUKqWUr+LDiBXxpETOLTj/ct/+31uHF/aSkJBw5fXtJIJLtQcfhi39k7j9s+mQ591b3ziV3d9vz9KyiLXtjV/XgJ68tGA8yXOf54sLpZq4lIK/+vgqjfHn4++Ha1wssSVbHYCs8zsIPxFC9661C/yBKnvxAl2MZN3iZexMb0bnJt6YAwLxyhu/dIi1y3eQ3uwuxkx9hLEDG5C8fT27YpzYEBEpt1RUlHMrn16XPfvQcR2mh45wtKCFkjNIxEyLxpUwV3LFVMmlWAf20KZNxN48kDt8CgjGbuWlIW2pbvHBN6gJfZ9YxemsnFj6bp5u403rZ34jA4AoPr4ngGrDvyIuN/8RJlxcXHBxNWHq+GK+/I0zq3i8dyMCvdxxM/lTv8dElhzNOZ/37Tgqu7jgctvbXIh6kx4uLtlthb7OeYfaP8nsDi7c/sgL3N2lBQ1q1KTdA2+xN89pssyjnzO+e20slX2oEzqdfz1Yg8CJGxzed0Xmb2//AT9MDSHw3n8w/bZONK1bnXqh4/n8iOPnMzOPfcHkWxoREhhE496zeG50fao/sunKAnHbeGV4F+qFBBFcszV3//NrzuT2v34SgWYz5v7vcSF6IX0KOVPs4u6JyWS68qrklh345UnqtxzMjHF9aNV2DHPCZnJX58b0fG7blbOVibuYP643LWtVIbB6M26d/AkR6Vfa/vphS3afXhYsobM5lqdf19x+K7kXeXa2yPGbw73dPfSvspnNzlyOXuoO82J7M8O+uHK8f3myMYHj113+2zj7NTPvbEl1/8p4W6rSrM8jLDuWZ3wUdXyBLdNqU33oE8zqH0qbJvVo2nsyXxzV+IIbO76cHX+u/gFYEi9Q8po4mb1b9uDeoQfNvEsSL4TVhZp9RzKsd31ITiEgIOCqcErkfk6GdOHWFlUwubpirtqAGt6ppKWVeENEpBxTUVHODXz2Tqw/9SPxmQLO3R2KpFWf9QSOOsIBYpjUdz2BfdYTeNcBNuVfulAxMdFYgoPIfxIuha8eHch8phF+Pon4g2/T5LvhjFpwOjtcqS3PfvoMnq+PYfbeDKKWTGbarrtY9Na95P7TMvCDC1itVhIX3VVg31vnTOITy1PsjE0nNWoXc2+JZ/W3+7ODty8kzmrFum4cvsET2Wi1YrVasW56hBAH2wc4ENOQBdsOcPTIGvpFPs7kBSdzIsl8Nv1h1tV8kd+iEzi8pDcJ+4p3LrDI/O3tvxwXIl0ZsuIXDp34nUVttzB6yiIcO5GXzNInJ/BtjefYfvoc+xbfTOKBuDzxFFb9YzALeIRNJ6P5c/d8Gm0Yzbh3zmSHb32DPxISSFj5ML5B4/mmJGeKE6sy8N3veKndWr5xe5yvl03CFvYePxgAaaybdR9hKcP4fN+f/LHzTVrtmMzEhScvr97/nSgSEhI4/3Z/R3vMp/Dxm1cIVUNSiY5OKkbL+3miZQcqB17zGrku5zIWe3Hnbfvfo3zmO5OfziaReGo7s3vFs2Z97kV+do5vjqSjrty3NJw9Ebt5u0044x//yMEz3hpfUFrjqyTjL4ftIof3RJDWoAG1i782AOnHt/FzXEN6dggqsICyFy9UlYa0rGoGYomLMxEQcHVFEh0VjSU4GOP87+w5cQHDlkBCsgWLpYQbIiLlmsOznFI2XN1ds2+Ycy/gf/UN6rF+SS1sf57kjnGJTPyoDYMqAS5uVClGH1lZWbgU1D4RbN+eQb8FD1HXBJh6MWFwA1pt2YExpRYugHvzmXzy/Dq6jB/EltMHGfrpXu7M8w+Gq4cnJg/Ao+D61dvbm7ToSA5GnsGnaR0GPb+MQVc2Hk+TO3i4AW5UMpny3Txor32Atnf0p5obYG5N317BvHHgEFAHOElERDo9X3qQel6u4NWfIb0sLC3GN8Ii83dg/wF4d7mVLpUBfLl56N3UHHeEI+DAMTzF4cPphD7/AHW9XMGrL/f28OXKie9Ift6RwZ3zHqSOCTD1YOyg+nQM/xVjYk1cHNi/AL8+1QTzU7l/ufHAsot8kFvD+fhicXHH3b8yFl9f8PXFkppCSibg7km/t0/SL3dVyy3c3yeYTw5GkL3/HTt+9hQ+fvNywcUle1nHteSV/Tt5pcRx53l7eZMec4Tfj57Fp3FtBj7zKQMvR+0c39w2OvWmU8746jl4ADUmHeUoEGi3d40vKK3xVYLxl7qEe/3G8A2AdzOmfTmamo6vfYURy69bI/HvOpq6BVVG9uIO5RpHbEoAja4aVMnExaUTWMefuCNr+Tm+M4294omtFEi7yiXsR0TKNRUVFZmHOyFB7pDmjgeu+AWZqFGCfxRcXV0xjIIeTZJBRkYqX05oQnjOhbJZ1gv49nIhC8i+SMGVRuMfpc/Tg1ne6D8s7FPENQIFaP/UMl679G9eHNqJfacyqBE6jBcWhHF/w9Ibmh4eHpf/283NjczMzFJru+j8Hdl/4O6eZ1tDX+FIRGlll4EtI5WVU1rzU57+fXpc3b89HV+OYMvjJTlHmsmxFU8x/ZXvOXEp+8tUasx5svoX54u9fYWP37wMDCN72Yqk7cxP+a/1P8weEcqB0xlU7zaUZ+fN5b4G2ePLkePrlnd8dXuJA3tLKzuNryvsja8SjD/TML6yDoPMFE68N5z2j/+PEbufoZnjLQCQ8vtWdtlac3+rgv/fbC/ukNhYYs0BdL3qhoo4YuP8CAx0p3rjh5kIZBxcwYXAWgQU0oyIVGwqKgR//wASD0WRDtdM8Xvg4VGZoe9GsPDWwtZOZsOMmWzuM4Oxh+Yw9d0HWTe+tuNT6D5tGR+2kvFA1sXjLJnQi5FP9eCe5Q/YudygNNSleXNPPvj8I47cPoLq8d+yfEsSXH5ioyeenpCenk7uRyU9PR1PT08H83dk/znGSLeS5m7GdNV3kjo0a+rJ4mWfcLTPMKolrGdFeDJ0yY174O5RmcFv7eWN3s71XyJJS5kxaj1NN4azsmP2qckdsxrRP750uyl8/OYVxfkoTwICbipGy/t5ouXDvHXumrf7Pk/ix/1wtxO3/6XajNkE6Wlp5I6vtPQ0TGbzlUV8WjNm7jLGAFkXT7Bsym2Mebo7dy0ZQqVSPL4aX4UrnfFVkvGXw82bug1q4nEhiWI/7dt2lu3b/qDezX0JKaiesRd3kDUuDmtA/auLhZQEEtMt1M4zc33+fBTeQR0pzm0bIlJxVKzTdn9DtvQsUtOzSLMZYBik5/xtK8Vn7jfr2ROfH1fxTb7LfZvStasL33+2gjNpYFw6xocTQhm8IPLyEvFrH2X0Fy2Yt3AOYe+OInL6SOYfzT1TaGBLSyU1NZW0jCwwbKSnppKampaTfzJfTenIPS9s5ExyJrh54m1yx9X9mhsn/fzwSzzMnuNJV9pyqH17KvPA3MXcHf0iXaoH0eKhrfi18MsTr0XHjsGEf/YOe+OtJB9fwaK1CXTq1Conbi9/+/vPIYkreLBOAFW7z7nqkZhQmSGz3+eumNn0rF+L9mO3YWmW92LlxnTp7MLGpas5mwbGpeN8PKU3w945cnX7fhYsFyLZe+La/ZvNsKWRmpp65ZXu4ExPVgYZmZnY0jIxgIzoH1i9Le83PgePX0AggS4R7NgaRUpqKqmp6WTmiRc+fq/I3LOKdVE96NW1OFeMZ1/edDH2mtfH/XJKAHtxe2rQpWt1tn3+HvsT00k5sYIP1qbQrVvuM0uTWfV4d+5/eTNnCxxfDh5fezS+rvv4Ktn4u+LS+fMkhYRcvpfMUQm7t3DQuzOhjQr+1Ql78aJlkWmzYbPZiI6JxeTnRyWbjcysnJ3n7kkltxhOHE3CZthIOhnO1kMmWrWoVoK+RKRCMAow5uuvC3r7homJTfxb939FvPFY368N2l/7+t6Yvi/PYqePGK3b7zA+TithN1knjAV3BBv1h31oHLFeE4v5wXh+UCsj5CZvwyegrtF91HxjZ1JOLPpLY0iwvzHo03M5b6QYPzzawPDq/JJxMMMwDGO78Vh1DLj2Vd2Yvj17jYs73zSGdaxl+FZyMVxNfka90PHGkkjbNfmdMpaO62AEmV0NwPAelTs+7bV/wni5PcbdH1/ZqO3Ta+dZP7/NU4KNgP/3/ZU3YrcaL9/X1qjuaza8qzQybn1suXE8T3p28y9q/xXUX0ESVhvj6vsbVfvMMw4XvaTx4+O1jGpTN+bJf4vx0v0djdpVAoygak2MW8YtMH5LumalrNPG8kndjJp+XobJZDICxq3NCViNxYNMhsl0zeuWN4zzhmEYO2YZ9Zr9n7HXMIxtM+oZgxYnG0bCIqOvaYixLMMwDCPV2Pf+GKN7wxpGrQbNjI4D/s94dXKrPO3vMGbUK6B9Uz1j1o68CaYYO14bZLQM8TXMJpNhMrUzXo7Im38R49cwDFvUBmN6xypGu//72Ui1s/+uWu/iAadeDkncabwxKtRoEOJvVKnVzrjv2e+MP7OuhC/+ttB4qHtDI9jHbHhZQoymvScby47kGV92jm++8VAQja/rOr5KOv6uyvDTwYa56VRjQ0yakWV/8WzWw8aq+W8bG09nlCxuR2bkGuO1uXONude83ttyPmcJmxF78Dvjs3fmG2Gvv2G8/fFq46cTSY7nLyIVjoqKcth/mbi415g/pJERXO9m47VdZZ3MjZRlZKRaDavValxKOGi8HOphNH92f1knVQx58//dmNP7JqPdCw5+of0rKWT8nl023mhZtbpxy782GjHF/DZzQ4qKck/jyzCMEo8vZ8bfVS7tNRY+1N2oH+RjNJixzYEVMo0/f3jfmPflfiOlRHERkeJzMYz8d6CNXbOG9wcMuIHzJVeLjbtAYIDv37b/smMjbv93RHj3p3u9ss7lRglnakgP3owCF08/GvSYxILP/0OfCnMn4U9Mq92HhdHg4mmhfvcJzPv439xSnF/E/cvIP37jdn/P4SqhdKthLnrVAmSmOPf77G7ezZ1av3zQ+Lqi+OPLmfEnIlLRqKgoh/2LSNlTUSEiIuI43agtIiIiIiJOUVEhIiIiIiJOUVEhIiIiIiJO0Y/flUO6p0Ok7OmeCBEREcdppkJERERERJyiokJERERERJyiokJERERERJyiokJERERERJyiokKkXMnkzIZ3mb86gtQSxUVERERuPBUVIuVJwm62HDTTObQJppLERURERMqAHikrUiSDPesuMvmjNI57mVj1QWU6X7e+0jgcvoOU5gNo61+SeCFsiRz5eQObd54iueotTBraDq/ixEVERETs0EyFSKGyWPO/BEZsduGf40z4Xe/ezu8g/EQI3bvWLrDatxcv0MVI1i1exs70ZnRu4o05IPDqgsFeXEREbr91FQAAIABJREFURMQBKiqkSMaZVTzeuxGBXu64mfyp32MiS47ariyQ8Ctho0JpFHwTlQPr03P8RxxKz4n9PIMajQby2KgeNG42kpdffZw72tShy7+2cil3/ditvDSkLdUtPvgGNaHvE6s4nVX8PL8YZqbb3GNObm1+Xq0r8/3sygyoWsRCMcsZXsuXoO5zOFjinpLZu2UP7h160My7JPFCWF2o2Xckw3rXh+QUAgICihcXERERcYCKCinS1jmT+MTyFDtj00mN2sXcW+JZ/e3+nGgaa6YP5NWUEXwVEU/cvndovX08Y+efuNJAYjUGfbiZOR1Ws9ZtBt+tnIrt1bfZZACk8NWjA5nPNMLPJxF/8G2afDecUQtOl1L2vzCzvhmz+ZrX/Uuw2V8ZcKV370pUdbOzmIcP1WrVpnbtkp/lTz++jZ/jGtKzQxAuJYgXqkpDWlY1A7HExZkICPAuXlxERETEAbqnQork7e1NWnQkByPP4NO0DoOeX8agy1FPBiw6x4DcP/36MOz2ED46cAiom/2ejwWLizvu/jdhsVjAYsGSepGLmYB7BNu3Z9BvwUPUNQGmXkwY3IBWW3ZgTKll/8vz4dm0b/Nvfs/9e2ULzE8D3iNYFfsut9OJOceszCm1vVEIy+3MDd9X8vWNWH7dGol/19HUrVSCuCNS44hNCaBRYAnjIiIiIkXQTIUUqf1Ty3it/SFeHNqJmr4BNL51CsuO5J7nz+To8n/Qr30zmjRpQpMmTRj+0Tmyshy9fimDjIxUvpzQ5PL6d78Xja+nCw610PhJdlmtWK1WFt8DbV84gNVqxRr7LreXbHPLRMrvW9lla02vVj4lijskNpZYcwABhU2l2IuLiIiIFEFFhRTNpy3jw1ay/XAUybE7eSZoNSOfWk46QNJnPDb8G5q/9QsRERFERESwZHS1YjTugYdHZYYuiri8fuSpc8QuHoy9K44c4+zlTzeA7Szbt/1BvR6dCSno02gv7iBrXBzWgAAKu2PCXlxERESkKCoqpAjJfDWlI/e8sJEzyZng5om3yR1Xd/fsS5MyM8jIzCQjLRMDyIjaxMqtccVovyldu7rw/WcrOJMGxqVjfDghlMELIoudqVdQLar5eFzzbvblT1brNa9lwxy+7s9mM0jLMEjLqUIyMgzSMrhmJuUA/725Pk1GfEpxth4gYfcWDnp3JrRRwb86YS9etCwybTZsNhvRMbGY/PyoZLORmWU4GBcRERFxjO6pkCLcxB1jHmb5pDG0fPEMya4W6nQYzAeLBuEB4Pcgcxf+wLiRDalq+BDcdDAPtqkB6fbazeXFvfNWcnDCo3SqMpJLlYJoOWA6YSMaFTvT/mGH6V/stezJ5PXpCczNc9/44PtTgUosXO7DPbnTKac2sGpHMh0evat4Z/pTI9n6y0VaDmyLpSRxO7KOfMO81RF5CqCvCNsPlk4jGNsj2G5cRERExFEuhmHkOy05ds0a3h8woKDlb4jYuAsEBviqf6kQ4hfdRc2XG7Hx0Kt0cbhMz+Lcjx+yPK4TY+9tUcBTo+zFRURERMoPzVSIOCWNzRu302bi/4pRUAC4UrXXGB4pcVxERESk/FBRIYUKCwsr0/4fe+yxMu3fMZ7c92ks95V1GiIiIiJlSEWFFKpifKkXERERkbKmpz+JiIiIiIhTVFSIiIiIiIhTVFSUQ3ryk4iIiIhUJCoqRERERETEKSoqRERERETEKSoqRERERETEKSoqRERERETEKSoqyrUo5vfxIbheV0a8tYuUsk5HRERERKQAKirKtWCmbozn8PK+HHtiGh+cKet8RERERETyU1FR7rljadeRph6xxMSXdS4iIiIiIvmpqKgIkmOISfUnwL+sExERERERyU9FRUWQkEA8/vj5lXUiIiIiIiL5qaioCKo0oKHlBPt2xZJulHUyIiIiIiJXU1FREZjvZNaztVnSrya+XmbM7V/kcFnnJCIiIiKSw72sExAHJC7hyVnnGLXpT57r5IeHS1knJCIiIiJyhWYqKoLUJJLSg6jfWAWFiIiIiJQ/KioqgqDqVHOPIup8WSciIiIiIpKfiopyL5OkyGOcw8DQTdoiIiIiUg6pqCjXopjfx5d6ty2m8rTZjG9a1vmIiIiIiOSnG7XLtWCmbrzI1LJOQ0RERESkCJqpEBERERERp6ioEBERERERp6ioEBERERERp6ioEBERERERp+hGbRGRMpCZctCp9d28m5dSJiIiIs7TTIWIiIiIiDhFRYWIiIiIiDhFRYWIiIiIiDhFRYWIiIiIiDhFRYXkkc75XavYerys8xApj/J/PuJ++5bNx5Ixyi4pEQcVf/yW2vg2TrHyH3fSvJofDWf+5ERDmZzZ8C7zV0eQWqK4iFxPKioqiHN7zvDWpmRSrlcHl/axYHgHOj70LvuSS7/5c+GLeOvLg9ct/+vdvvzNFfL5SD/9DbN6t+K2p9cTrcpCyqsSjt/SGt+2tc8zdlU1Xtp5jsg53UreUMJuthw00zm0CaaSxEXkulJRUSHY2PjxAR59/QwFP4TSxg/v/Ey9Xmtx6bAGlx57+LZY7Z/n04f68Zrrk2zdvYYprUsj57yS2Dj3ER6d8UEh+duxYSKWkKmEX6/2CxXBcy1cGPy57fI7P8+oQ+XRa0q1lzK36RFCak8j//nDw7zY3sywL65s/y9PNiZw/LobmV05UPjno+o9Yfz820e0Wz+Sgf/Zg63wRuR60fi1o+Tjt7TG98XoaC7VbEOnaiZcSroZpHE4fAcpzXvQ1r8k8ULYEjkSvpx3Xn+VV5f+xqVrW43ax/fLPmDBvDDmv/MJa3dHkVHibRD5a1NRUSG4M2LuHaR81YxOBYUT/+C5d9K4f/5tXPqpH9aNrbm9GK1n/fQqT2+7hdfeGk6dSqWU8lV8GLEinpTIuQXnX+7bl78ze58P14CevLRgPMlzn+eLCzc+P5GiODt+S2N8+/j74RoXS2zJVgcg6/wOwk+E0L1r7QJ/YMtevEAXI1m3eBk705vRuYk35oBAvPLGk/bz9Ze7MFoNYPSkyYzsHcT5zRvZl+TEhoj8hamoKOdWPr0ue/ah4zpMDx3haEELJWeQiJkWjSthruSKqZJLsQ7soU2biL15IHf4FBCM3cpLQ9pS3eKDb1AT+j6xitNZObH03TzdxpvWz/yWc+Ymio/vCaDa8K+Iy81/hAkXFxdcXE2YOr6YL3/jzCoe792IQC933Ez+1O8xkSVHc86HfTuOyi4uuNz2Nhei3qSHi0t2W6Gvc96h9k8yu4MLtz/yAnd3aUGDGjVp98Bb7M1zsW3m0c8Z3702lso+1Amdzr8erEHgxA0O77si87e3/4AfpoYQeO8/mH5bJ5rWrU690PF8fsTx84GZx75g8i2NCAkMonHvWTw3uj7VH9l0ZYG4bbwyvAv1QoIIrtmau//5NWdy+18/iUCzGXP/97gQvZA+ZjNmsxlz7/lEObr9Z79m5p0tqe5fGW9LVZr1eYRlx/LkX1T/wJZptak+9Alm9Q+lTZN6NO09mS8u779TzO1mZsA/XmZIz/Y0r9+ALiPfZl/ei6UTdzF/XG9a1qpCYPVm3Dr5EyLSc2K/PEn9loOZMa4PrdqOYU7YTO7q3Jiez227cjbSTn5g5/ORw73dPfSvspnNzlwuXursn6m/vsfPPo3fijF+nR3frv4BWBIvUPKaO5m9W/bg3qEHzbxLEi+E1YWafUcyrHd9SE4hICDgqnBq/CVu6nQbvZtUwezhgW+9ugS5pJGuqQqRAqmoKOcGPnsn1p/6kfhMcP7goUha9VlP4KgjHCCGSX3XE9hnPYF3HWBT/qULFRMTjSU4iPwnsVL46tGBzGca4eeTiD/4Nk2+G86oBaezw5Xa8uynz+D5+hhm780gaslkpu26i0Vv3Uvu/5oHfnABq9VK4qK7Cux765xJfGJ5ip2x6aRG7WLuLfGs/nZ/dvD2hcRZrVjXjcM3eCIbrVasVivWTY8Q4mD7AAdiGrJg2wGOHllDv8jHmbzgZE4kmc+mP8y6mi/yW3QCh5f0JmFf8c6lFZm/vf2X40KkK0NW/MKhE7+zqO0WRk9ZRIxDvSez9MkJfFvjObafPse+xTeTeCAuTzyFVf8YzAIeYdPJaP7cPZ9GG0Yz7p0z2eFb3+CPhAQSVj6Mb9B4vklIICEhgYRvJ1HAaCvQtv89yme+M/npbBKJp7Yzu1c8a9bnXoRmp/8cSUdduW9pOHsidvN2m3DGP/7RVWc0D8Y0YN7mXRw88BV3HpnJY++eyomksW7WfYSlDOPzfX/yx843abVjMhMXnryycmJVBr77HS+1W8s3bo/z9bJJ2MLe4wfD8fwK/3zkFULVkFSio4tzCnM/T7TsQOXAa14j1+VcZmIv7rwbcfwKp/FbccZvScZ3DttFDu+JIK1BA2oXf20A0o9v4+e4hvTsEFTg5VP24oWq0pCWVc1ALHFxJgICrq5ITHU6c0eHGpdnPpIO7OOUf2MaBuRrSUTA8VlCKRuu7q7ZN5y5F/C/ygb1WL+kFrY/T3LHuEQmftSGQZUAFzeqFKOPrKwsXApqnwi2b8+g34KHqGsCTL2YMLgBrbbswJhSCxfAvflMPnl+HV3GD2LL6YMM/XQvd1ry5O/hickD8Ci4fvX29iYtOpKDkWfwaVqHQc8vY9CVjcfT5A4eboAblUymfDff2WsfoO0d/anmBphb07dXMG8cOATUAU4SEZFOz5cepJ6XK3j1Z0gvC0uL8Y2tyPwd2H8A3l1upUtlAF9uHno3Nccd4Qg4cAxPcfhwOqHPP0BdL1fw6su9PXy5cmI6kp93ZHDnvAepYwJMPRg7qD4dw3/FmFgTFwf2r93t9/ImPeYIvx89i0/j2gx85lMGXo7a6T+3jU696ZSz/T0HD6DGpKMcBQJz4m1uu5OqboC5FXf0CGLBwQigNuBJv7dP0i+3O8st3N8nmE8ORpB9fAEfXywu7rj7V8bi6wu+vlhSU0jJBNwdy6/wz0deLri4ZC/ruJa8sn8nr5Q47rwbcfwKp/FbccZvCcZ36hLu9RvDNwDezZj25WhqOr72FUYsv26NxL/raOoWVBnZizuUaxyxKQE0KnTQGlw8toEvf8qk25DODoxtkb8nFRUVmYc7IUHukOaOB674BZmoUYL/qbq6umIYBT3aI4OMjFS+nNCE8JwLTbOsF/Dt5UIW4Ja9No3GP0qfpwezvNF/WNiniDn2ArR/ahmvXfo3Lw7txL5TGdQIHcYLC8K4v2HpDU0PD4/L/+3m5kZmZmaptV10/o7sP3B3z7Otoa9wJKK0ssvAlpHKyimt+SlP/z49ru7fGW1nfsp/rf9h9ohQDpzOoHq3oTw7by73NXB3uH+3vNvf7SUO7L26j8KPXybHVjzF9Fe+58Sl7C87qTHnyerv6Bcfx/Ir/PORl4FhZC9bkdyI41dyGr9Fu5HjtwTj2zSMr6zDIDOFE+8Np/3j/2PE7mdo5ngLAKT8vpVdttbc36rgf1vsxR0SG0usOYCuXgUFM4jZu46Vvxh0HnwvrQJKY+SJ/DWpqBD8/QNIPBRFOlwzRe6Bh0dlhr4bwcJbC1s7mQ0zZrK5zwzGHprD1HcfZN342o5PQfu0ZXzYSsYDWRePs2RCL0Y+1YN7lj9gZ7q+NNSleXNPPvj8I47cPoLq8d+yfEsSXH7ioSeenpCenk7uRyU9PR1PT08H83dk/znGSLeS5m7GdNW/6XVo1tSTxcs+4WifYVRLWM+K8GTokhv3wN2jMoPf2ssbvUvSqyeelSAj7/ZnpFPpqu1vzZi5yxgDZF08wbIptzHm6e7ctWQIlZzu346kpcwYtZ6mG8NZ2bEyADtmNaJ/vKMNOJZf4Z+PvKI4H+VJQMBNDqeffXnTw7x17pq3+z5P4sf9cLcTt//VxozZBOlpaeQev7T0NExm85VFbtDx0/gtQIUavyUZ3zncvKnboCYeF5Io9tPKbWfZvu0P6t3cl5CC6hl7cQdZ4+KwBtQn/1VNlzi5ZQXrT1fn9uG9qONd8mdXifwdVKzTan9DtvQsUtOzSLMZYBik5/xtK8Vn4jfr2ROfH1fxTb7LZZvStasL33+2gjNpYFw6xocTQhm8IPLyEvFrH2X0Fy2Yt3AOYe+OInL6SOYfzT3TZmBLSyU1NZW0jCwwbKSnppKampaTfzJfTenIPS9s5ExyJrh54m1yx9Xd/eqixM8Pv8TD7DmedKUth9q3pzIPzF3M3dEv0qV6EC0e2opfC7888Vp07BhM+GfvsDfeSvLxFSxam0CnTq1y4vbyt7//HJK4ggfrBFC1+xwOXZP/kNnvc1fMbHrWr0X7sduwNMtz7RmN6dLZhY1LV3M2DYxLx/l4Sm+GvXPk6vb9LFguRLL3xLX7tybtOwSxbeki9iVYST6xmo++SaRjh5aXt3/V4925/+XNnC1w+x3sv6SyMsjIzMSWlokBZET/wOptDn8jczi/wj8fV2TuWcW6qB706lqcLx3ZlzddjL3m9XG/nK/A9uL21KBL1+ps+/w99iemk3JiBR+sTaFbt9xnit6g46fxW7AKNH5LNr6vuHT+PEkhIZfvhXNUwu4tHPTuTGijgi9ssxcvWhaZNhs2m43omFhMfn5UstnIzMr5xyMzngNfL2FDXFPuHhxKDc9MbDYbmfo9GpFCqago1xKYcc86zN3WYXk+Co5E0rzbOszdNvHkgdLrxf3mf/Cv1huZPvEjjl71M6Re3DtvJaMTn6NTlcpYat3Ge+nDeGpEo+xwzFdMHLuaTvPeYXgIePd8iUUPn+PJEf/ldxvADmbUz34ii2XM17Dv3zQ3mzGb6/PkDoCbuGPMw3h9PYaWgR54+Ldk+pHb+OCFQXjkTaPdJP47MpEXWvhhNpsJuPz0Gnvt2+dabzALfjxGXFICx398hT7+eS+NcuPW/yznicqL6V8vgKpdnuSPuz7hrdG5t4Hay9/O/nOYO95eZszepnxnp13rDmLe97/zZ/Q5Dn3/Erdclb8Xd7+2jJGJLxJaM5CQhv35IP1+nhjW8OpG2kzgP8MTebl9Vfz8/Kg+OfdXTtzo/e8lTPf+hEFNq1O357/4s/8HhI0Murz9t456CPPa/0eHGjdxU7X2zDrah3eeHXh5+x3qv6QsD/DyG53YPqYFdRo2p/vYDQS0rl6MBhzLr/DPR7bM6I3MmrCQSo/8i6Hl6gZOV7o/vZR/BS7n3qZVqXvziyQN+5SwobkP8b9Rx0/jt0AVZPyWyvh2ccEl8RRHY9Md/3Xu1Ei2/nKRlj3bYilJ3I6sI98wLyyMsLAwlu+9ROr+rwgLC+PDbdHZC5z+lU2RiVw4vplP3sxeLixsHmsP69doRAplFGDM118X9PYNExOb+Lfuv0xc3GvMH9LICK53s/HarrJO5kbKMjJSrYbVajUuJRw0Xg71MJo/u7+skyqGvPn/bszpfZPR7oUDZZ3UX08hn4+zy8YbLatWN27510YjJqt4TdouHnDq9deg8XtDlHD8OjO+r3Jpr7Hwoe5G/SAfo8GMbQ6skGn8+cP7xrwv9xspJYqLSFlwMYz8d3CNXbOG9wcMKIsaB4DYuAsEBvj+bfsvOzbi9n9HhHd/utcr61xulHCmhvTgzShw8fSjQY9JLPj8P/QpV2eci/IT02r3YWE0uHhaqN99AvM+/je3FOcXZcVB+T8fcbu/53CVULrVMBe9agEyU5z7/Xc37+ZOrV8+aPzeOMUfv86MbxH5+1FRUQ77F5G/PhUVIiLyV6J7KkRERERExCkqKkRERERExCkqKkRERERExCn68btySPd0iPz16Z4IERH5K9FMhYiIiIiIOEVFhYiIiIiIOEVFhYiIiIiIOEVFhYiIiIiIOEVFhUi5ksmZDe8yf3UEqSWKi4iIiNx4KipEypOE3Ww5aKZzaBNMJYmLiIiIlAE9UlakSAZ71l1k8kdpHPcyseqDynS+bn2lcTh8BynNB9DWvyTxQtgSOfLzBjbvPEVy1VuYNLQdXpeDMYQvWsyOhLwr+NNt9MN0DSjZVoiIiMjfj4oKkUJlseZ/iTz5ZyVmjzMx87Pr3Nv5HYSfCKH72NoFfjDtxQt0MZJ1y37gQp1QOjeJZZt7YJ6CAiCQbqMeo4sBZESz6+tvOF61D21UUIiIiEgx6PInKZJxZhWP925EoJc7biZ/6veYyJKjtisLJPxK2KhQGgXfROXA+vQc/xGH0nNiP8+gRqOBPDaqB42bjeTlVx/njjZ16PKvrVzKXT92Ky8NaUt1iw++QU3o+8QqTmcVP88vhpnpNveYk1ubn1frynw/uzIDqhaxUMxyhtfyJaj7HA6WuKdk9m7Zg3uHHjTzLkm8EFYXavYdybDe9SE5hYCAa6sFF1zd3HFLPc2PX37HuUYDGdKjFuYSb4eIiIj8HamokCJtnTOJTyxPsTM2ndSoXcy9JZ7V3+7PiaaxZvpAXk0ZwVcR8cTte4fW28czdv6JKw0kVmPQh5uZ02E1a91m8N3KqdhefZtNBkAKXz06kPlMI/x8EvEH36bJd8MZteB0KWX/CzPrmzGbr3ndvwSb/ZUBV3r3rkRVNzuLefhQrVZtate+dhbAcenHt/FzXEN6dgjCpQTxQlVpSMuqZiCWuDgTAQEFVSRRhC9dyb40XwLcM8ks0RaIiIjI35kuf5IieXt7kxYdycHIM/g0rcOg55cx6HLUkwGLzjEg90+/Pgy7PYSPDhwC6ma/52PB4uKOu/9NWCwWsFiwpF7kYibgHsH27Rn0W/AQdU2AqRcTBjeg1ZYdGFNq2f/yfHg27dv8m99z/17ZAvPTgPcIVsW+y+10Ys4xK3NKbW8UwnI7c8P3lXx9I5Zft0bi33U0dSuVIO6I1DhiUwJoFFhQ8Caa3Hov1VP+YNcPS1ljjOO+lsWZDhEREZG/O81USJHaP7WM19of4sWhnajpG0DjW6ew7Ejuef5Mji7/B/3aN6NJkyY0adKE4R+dIyvL0euXMsjISOXLCU0ur3/3e9H4errgUAuNn2SX1YrVamXxPdD2hQNYrVasse9ye8k2t0yk/L6VXbbW9GrlU6K4Q2JjiTUHEFDgVIoXVWrXoV6z7nRs6E5MTEJBC4mIiIgUSkWFFM2nLePDVrL9cBTJsTt5Jmg1I59aTjpA0mc8Nvwbmr/1CxEREURERLBkdLViNO6Bh0dlhi6KuLx+5KlzxC4ejL0rjhzj7OVPN4DtLNu3/UG9Hp0JKejTaC/uIGtcHNaAAK66oyIhkvDwSBKvLEViQhoWi2/JOxIREZG/JRUVUoRkvprSkXte2MiZ5Exw88Tb5I6ru3v2pUmZGWRkZpKRlokBZERtYuXWuGK035SuXV34/rMVnEkD49IxPpwQyuAFkcXO1CuoFtV8PK55N/vyJ6v1mteyYQ5f92ezGaRlGKTlVCEZGQZpGVwzk3KA/95cnyYjPqU4Ww+QsHsLB707E9qo4F+dsBcvWhaZNhs2m43omFhMfn5UstnIzDKyw7YYIn/5mX1nU8jIuETU/k38GlOblo1uKkFfIiIi8nemeyqkCDdxx5iHWT5pDC1fPEOyq4U6HQbzwaJBeAD4PcjchT8wbmRDqho+BDcdzINtakC6vXZzeXHvvJUcnPAonaqM5FKlIFoOmE7YiEbFzrR/2GH6F3stezJ5fXoCc/PcNz74/lSgEguX+3BP7nTKqQ2s2pFMh0fvolhPYk2NZOsvF2k5sC2WksTtyDryDfNWR+QpgL4ibD9YOo1gbI9gqNKe27pGs2H1e/xmq4RvSH063teH5pVL0JmIiIj8rbkYhmFc++bYNWt4f8CAgpa/IWLjLhAYUHaXYPzd+5fiiV90FzVfbsTGQ6/SxeEyPYtzP37I8rhOjL23RQFPjbIXFxERESk/NFMh4pQ0Nm/cTpuJ/ytGQQHgStVeY3ikxHERERGR8kNFhRQqLCysTPt/7LHHyrR/x3hy36ex3FfWaYiIiIiUIRUVUqiK8aVeRERERMqanv4kIiIiIiJOUVEhIiIiIiJOUVFRDunJTyIiIiJSkaioEBERERERp6ioEBERERERp6ioEBERERERp6ioEBERERERp6ioKNeimN/Hh+B6XRnx1i5SyjodEREREZECqKgo14KZujGew8v7cuyJaXxwpqzzERERERHJT0VFueeOpV1HmnrEEhNf1rmIiIiIiOSnoqIiSI4hJtWfAP+yTkREREREJD8VFRVBQgLx+OPnV9aJiIiIiIjkp6KiIqjSgIaWE+zbFUu6UdbJiIiIiIhcTUVFRWC+k1nP1mZJv5r4epkxt3+Rw2Wdk4iIiIhIDveyTkAckLiEJ2edY9SmP3mukx8eLmWdkIiIiIjIFZqpqAhSk0hKD6J+YxUUIiIiIlL+qKioCIKqU809iqjzZZ2IiIiIiEh+KirKvUySIo9xDgNDN2mLiIiISDmkoqJci2J+H1/q3baYytNmM75pWecjIiIiIpKfbtQu14KZuvEiU8s6DRERERGRImimQkREREREnKKiQkREREREnKKiQkREREREnKKiQkREREREnKKiogCBAb5lnYKIiIiISIWhokJERERERJyiokJERERERJyiokJERERERJyiokJERERERJyioqJIUczv40Nwva6MeGsXKWWdjoiIiIhIOaSiokjBTN0Yz+HlfTn2xDQ+OFPW+YiIiIiIlD8qKuxyx9KuI009YomJL+tcRERERETKHxUVjkiOISbVnwD/sk5ERERERKT8UVHhiIQE4vHHz6+sExERERERKX9UVDiiSgMaWk6wb1cs6UZZJyMiIiIiUr6oqHCE+U5mPVubJf1q4utlxtz+RQ6XdU4iIiIiIuWEe1knUCEkLuHJWecYtelPnuvkh4dLWSckIiIiIlJ+aKbCEalJJKUHUb+xCgoRERERkWupqHBEUHWquUcRdb6sExERERERKX9UVNiVSVLkMc5hYOgmbRERERGRfFRGDjfLAAAgAElEQVRUFCmK+X18qXfbYipPm834pmWdj4iIiIhI+aMbtYsUzNSNF5la1mmIiIiIiJRjmqkQERERERGnqKgQERERERGnqKgQERERERGnqKgQERERERGnlMuiIjDAt6xTEBERERERB5XLokJERERERCoOFRUiIiIiIuIUFRUiIiIiIuIUFRUiIiIiIuKUcl5URDG/jw/B9boy4q1dpJR1OiIiIiIikk85LyqCmboxnsPL+3LsiWl8cKas8xERERERkWuV86ICwB1Lu4409YglJr6scxERERERkWtVgKICSI4hJtWfAP+yTkRERERERK5VMYqKhATi8cfPr6wTERERERGRa1WMoqJKAxpaTrBvVyzpRlknIyIiIiIieVWMosJ8J7Oerc2SfjXx9TJjbv8ih8s6JxERERERAcC9rBNwSOISnpx1jlGb/uS5Tn54uJR1QiIiIiIikqtizFSkJpGUHkT9xiooRERERETKm4pRVARVp5p7FFHnyzoRERERERG5VgUoKjJJijzGOQwM3aQtIiIiIlLulPOiIor5fXypd9tiKk+bzfimZZ2PiIiIiIhcq5zfqB3M1I0XmVrWaYiIiIiISKHK+UyFiIiIiIiUdyoqRERERETEKSoqRERERETEKSoqRERERETEKSoqRERERETEKSoqRERERETEKSoqRERERETEKSoqRERERETEKSoqRERERETEKSoqRERERETEKSoqRERERETEKSoqRERERETEKSoqRERERETEKSoqRERERETEKSoqRERERETEKSoqRERERETEKSoqRERERETEKSoqRERERETEKSoqRERERETEKSoqRERERETEKSoqRERERETEKSoqRERERETEKSoqRERERETEKSoqRERERETEKSoqRERERETEKSoqRERERETEKSoqRERERETEKSoqRERERETEKSoqRERERETEKSoqRERERETEKSoqRERERETEKSoqRMSui2eXsizKVsZZZHD+j7Vsib/yTuwfG9kcfxGj7JIqRTb+P3v3HR1F2TZw+Lepu0lIbxAgQCgpQAi9JCBVKUpRqhSpCoiigIif+irwSkdRBAFBQZQqXXoNoSMdUukgqSQkhPTM90cC2ZBNdpMgxNf7OmfPgb3nKfPM7GbumWdm926ug+vvu0h70V15ni6/jfnnrjmvb6dzWTuWvoYuj2Oft2XW/cIq+Zspt9n4x+t4TXPHY8eJp4KZ/PabK40ORTz1fjTfLa2E06z2vHn8HMnPq69FyuL23iXM3xJCaoniQghROEkqct0LWsaC3y+XkS/+5+/fvv6iaMl3V7M2MuvFdSDjEgvXvETDdSu4qHXEnfFgDxN+bEG7PfuJ/qdnFhl7+PmSij4N2mL+ovvyvDmP58LkSNLe+xgf7ffNerNtciRpn8+n49/ScBon97ah/LIlXC1i/8kMncmQ4PJMGx1GRMcmBtbtzJih1wnr156rOz9h2YNn0uHSiT9L4GUNTfw9UZckLoQQRSj7SUX8ceb2a0oVe0ssHasRMHgR554+8t37Drau7xJU4kYS2Td7DO+N/yn/WbJ/jZKt/85htqhUqtxXF1bqOrUVF8SMPo2pbG+JlXNN2o7+jdD0x8EbTG+oopvOgmVIqfevv1H6Grp87sfE2xB7qmfBM70A3OPrxa5U2Bqos4rM0PeovvkACpARPJrqWwPzzvxnXmPd7qG8fvgs+/f2oO/eHdzMzS3+Cp5Is68bUH1ue96+dOdJW8t/bc+Yq4k53YtZy/AlDXCZUp2K3/bli4hoHT24zawfXAk4cruQlYxi5dpezFaNJWjMGkaXz4uU957OyXcXUj/8bbocvMiLvpZSGvcv/8YWy1685W7yortiuODRWHzuivrL6lRbOJT/Xo3Kd9UoMymImeu6UPfrhtSc24QGK/6P1dGPnm0fsi8wcV4FXFZtIKHYhc1p3GYJE5W5DAy8TEYhSyUlx/DIpjZNrM1RFat+E+zc6uNlFEeMrtU26PP7rKQRGnSCZJ8A/OxLEi9EZgLhQetZ/M0c5qw5Q2FbN/v+n6xZsIKge4WNshDin66MJxXZ7J3UlWkJfdgQEkPMhRW0Dh/P65NPPeN2rOm/8T7JYbNp/Ixr/mco2fp3+CGKlJQUUi5Poa7OJdLZPqEbsx70ZcOVSO6eWkj9E8PpO/vKs+m2AGNTzDDD3ATMjE1z//80FUYqMFLp/rifuXGKelUaoQJO3TiFn3uDJwdOpw+8yXt3fXjf14vGDUbiFj6aXkfCgBg2HN1Bsx6niejdkv1HNnGLbK4eH8sSx6+Y6WENpPH73nEEuswi5P+CORagZuHvc3UkZypUKlAVcriWfXM+n94K4OuuPaliXDBuZNGcaV0HkXR4BmsLyU+Dr3zNz7fKwqniwkSx6s8DeNXvS73iHbUWT3YC5yJvGzhdLI4r9/4qeipWzdnc+ySUv8bt5mffDBb99h7LH+bGsi4xefm7BLlN4eDY04R9GMi6evf5v1++JPAZHlc+uPIda13HMSR+AYtjS1CBkQdjhwZzpJUPpoUsYqOxxejRfUpSPWmxRGfa4WChI2bQ5/fZyI48QdB1V1o0c0dX2qovrtPDMLavWMvpdG+aeFqicXBE12qSdov9m05i1rIrLcoXNspCiH+6Mp5UxBMaGo1ft4HUd7bAooI/Hy1ex5ev2JMFsHMYVioVqvaLeBD1PQGPz5r7f0Nkbg0H33XFsceHjGvfGK+qblTzH87q8LzzmZv6q3PKGKlRN5pK/lmxOWfSO4yZQtemtalesRL1+yzgvNaBS1bEaoa3cMfWypoq/uP49M2KOL6z1+A1VG5vZmybmjhamGCstscj4B1WRTzuX0777cbOoE9APWpUdKNuj9mcTNKqIPYwX/X0w83WGhtnTzp+tJlb2drxI8zs0xh3e0usnKrT+u3lXNE6Sih6/YH4U8wb5E9Nl3JYOXrQcvhygnOvNBiZmKNWq1GbmRRyOBjB8ePxtB3yHg1dy2Hj3paPZkylnVsa2l1MO/cdr3o7Uc7atcD4FtU+6N+++soXOT4G7F/6xl9f/4re/gYwtsbGxBobNZRTW2NkXg7rAgtZYGEGVmZW+d9+tJnhC1rR+9RfnDrUlUYLWtHvdBQnD77GxxFZQBwnb1/Hr84QWlqrsbJrz/91nsyrdhlkYoSRKovUjAzSM1LJVBmRFT2f4Zcas7BdIzQAmOJoYQVm1lgbmVKp3o/cHjeF5gX6Z4mVGViaWepcxeBrgcRW7cgrRcwJMnHrTBfLwxy4pTt++eJMltwq/Dz22tWuNDt8vfAG/m5xa/n5dgMG1/MoGEvZybA51Si/dCEhusomb6bvjEo4Lvq28LPcWTEcPzuZbt81p+fZ6wYmFffZsbU1nkvH8W34Dd1noI012KhtsLeqRsvmo+hudpoTjz8cN39hkfFQvmvuh70KwJxqdccywHQ326MM6oABbrD4yHl6Nn+fD5o4svjIgb/lfhQjjR12qYkluBICpMQTjx12Gh0xQz6/MevpV9kG5xazSnEVI4nzgecwaRiAt86Pmb54IVJUVOo4gL5tPCApGQcHh4LLKA+4sO0Pbrl3olNtm2Je6RFC/JOU8aTCgVe6B3BsSh8+X32C28kKVt6v0L+1B8YAHX4gLiWFlO3DsHF5h30pKTlnzvePwVWrlgdhRvTceJLg61dY5hfIW6OXEZMbe+2nB6SkpJCw7NVCe3EppgYLj1wiInwbncLGMmrhjdxIEr+NG8z2SlM5Ex1P6Ko2xF8o3rmsw7NGstJ2Eqdj00mN+pPZre+zZefF/O3fdWPOgXOER+ylb/RnDJnzOJ7MhvdeYz4fEBSZyP3Li/Dc1Y9BCx8fWaWw5cOuzErsx4bQGKLPLaP5+dH0np5Xf9Hrn8a2ca8xJ7k/G0LuE3dhMb7HhjN0vqEHX+mkp6swNc07vezU9gNmDvLLt+OdDdHw1fEo4sN/ocm597XG17D2C9+++srrGR+9+5e+8dfXP33b/yQTPDRoNE+9eq3SmuZTgfo1mlBTAyobXzpUrqYjqbDC2lyFjbpc/rcturJk5Be0U3dl8Zh9nBr5Ga3VXVkyZh/TqxsDdtR2ceXYmQUcfpjTol3l/nxaxwcTHOjVaiA3d7XEd1sofQOqs2TzIV7vPpY6Tza3Ea0bv4X61CRm3EsDlTFmJqY6vnRs8XRvQXNHmwIRgJjkWGytnPScwXWhfLk0oh7mZdxZd37mgwNrOJqYjks5V9ysHYmL3Mbc7XPZkVJkZc/dmTOrCKvej94FNx4Y21DZsQY17Z10nwU2Lkd528q42zoUjGfe5eCJT+gwrw3vBBvx+uuHCO7YMncb/Mm42a55N0k/fv22Pnf/qsG4YSfY2Lg8x/d0odbCUcy4EsoDXRmJksLVy6vZlVYHX6ect+LirpPqVB134Hbw/9FhwSt0Xr+aUNMHJDyj8U+7tpAfjIcyppIJzr4jaBU+n1+S9JcrluxkQu+Fk+pQlSolKW/pQQ31Tc7fjSO9wNgZ8Pk1taZCZXfc3Qu5CmCA9GtHOB5Xg5YNnXUe1OuLF8qpBnXKa4BY4uLUODg8nZFkcPfwJoIyG9OttTsmqYkkPJLpT0L8z1J0GLJ1q663X5AHypnlHylvNKmsWFm4Kf4jliqXHj21yJ63FRuX0cphHaUPjHZRbIbuyHvj8ASleq3xypGnlkv5pauC7xQlPN+715VpDVA6LUt88k7Q2IqK9ZDtuf+7oHxS00jpsz4rX3sOb+8xeO1Of1xdsWrxsbLt7A0lLjX7qWhO+y8viX/yzpXJdRVVt5VKRk5pZXwVS0V79a5MrquY9Fqr5NR0VpnoYab035RXb+LlXcrqwOtKXo+LWv+CjnxQSSk3+I/8b4ZPU3zprPyS8vTSZ5WJHsbKmxsLqy1n/V75MeHJO4HvVdAaX/3tG7p9dZc3cHwK3b/0jb/+/hW9/Z+d7RuqKe2PRxcMxH6j1F/6oxKtKIoSPVvxXfaTEqsdf3RcmbqigWLzmYvi9sMYZdqVCCW5QCUPlQNbX1a6n7mT/+1HO5QBM3yVVza9pfjMHa1se6goyqODylcbZym7Hhre931bPJWK2wrboo/9pcxd5KJ0Pp23Lz24u0qZsKarUme2v9J+cVul8dL2SrU57ZTXNs1T9j9QFCVmrlLvMxfF7OnXlDHKLkM7d2+a4qld9j8jlM2Gr1qOrGPKmJkeyoDLBUe2dIKVKfO9lcbrv1U2Rz9QSrd3PVTCQxcq7yypp7ht2K1kaoeujFFsvqyquM3rqXwWnrePRR7vptj9vltRlAhlync+ysjwFEXJOqd89HVV5e0wrfKXRihm381SQopqPmOd0vWzNsrMOO03Y5Ufl9dRBl5Jyv1/tnJur7/is/tcge+3EslYp3R9sk+0VD6+llTYgsqvv7ooDQ8W9u2ZqVw53kup8HluXfrW9VnLjlGCfp6nrD77oGRxQ6ScV9bMXqWcfWoXTgzerCxc/IcSkfv+9V3fKYsO3ClYXgjxP+EfcEegNX4DZ7Bu4AzS7+5jar9edP64OuHzWhY6//VpJiZaq+k/k3CdcwgKZ2qa15KxsTFZWc/uKTgNJq1l7qMvmdq7MRduZlDRvy9TFs6jV428Pmv339TUFCUjg0zAhAwyMlL5fYQnQbmnsLJTHmDTSkU2YEwqqammmJvnnXsq592B3gb3LouI9RN4b9pOriXnzOlJjblH9qvZesoVj7l53rwWU1NTrfE1rP3Ct6++8qUdH33jr69/hm3/Z6GceTnKPXWl4tLRfgw6/idh6fZ0WvAb2am3uZrhyCsrHvHTwFHUBtA04f8GnKDv4VfpfjONtRs6cbTjfrbUd3tST1zoJCY9GsIXaf+h6byLPLJsxic95tAnfj87lVfY0HUK5Q69Ruc18/iP0698n/kFl4sxxcJIZYSi6Juwo6CQ/74R6wp9mNmrD1Nj1zBgx3KMstswb9R4mj55rM0HnJ38AZAz/elrt2McC6hqeMcAXD8mePLHxSvzlNTw31iT3ZXVtUp6Hrow5fBwtefO9T3scPXCx6YdHiWcsJ+VcpOzdy9wNsEUL0/H/Gezs9NIsR3Bkaef3PTEQ5LSHahkqwaj8lS0gmdzd4sDQwdeYOiT/6vwbXuYS8+kbsDkDTZNfgOyH3H99DD8ti1gwJiP8C5uPSm/89HOSAYNC+HLiraYPuf5P8lXDvNnpi+96uq6DKY/bpDYWGI1DjTT3oXTQti3Kxbv3gPxsAB4SGxsGg51HEvejhCiTCvb05+yQ9g852eO5z6b3MytLV+814E7hwK5+WJ7lqsqPj7mHFq9nPCkDB7d3Mr6wMTiVWHtx/B5mzgWGkVS7Gk+d97CgEnr0Z72n5aWlu/fRmZmuTfSmWJqakXvZSGEhOS8wm7eI3bFG7kHtGrU6gzS0vIOyJKCd7Pm8A0MSgsSf+P9fjvwWXDySf2r3qpQjJUzw8xMIT09b7JOzL6vmbD87PNpX2/5Uo6P3vE3QJHb35DpT4apVfsTRlTK/5DI2s1/4+d6LgS028GpUfv4sa4TL7XfyanHCcUTxliamVOjzrdsa+PJrlObePKcpqRNjDxowpRXbfh13yNGjwhifY0rfHryLChZZBmbYoopvi2X8IXJAt49V5kvX+6E7olOutlr7Eh4GJ3vM1FQNJFJZjn3cGh7tId3lv8HY7+f+Nx5Pd1W/8S1F/DoWSUrlVSd7T5k45mt2NTrx0sG7zSGcqPv64e4NGAEbn/NoNXXbRlwYBMXUh4n7fqmP0Fa4nGW7OxHne+G8EtaM+a+fYQ9/vmnL1LpbVZ16k6lQvthja06gaiHmaBEcvdhoQuWTUYWVHVwwzQ1kWJ+u+fITCIpywkPx+efUJB5h2NH7lItoAmuuv7a64sbKCUujhQHB/LdURFzj3uZiZzfsJgFCxawYMHPHIm0wtHxX/fAZCH+Ncp2UmEEF38ZxdufbyI0PpVHkSf5Zuk+bP38qKy9nJ0ddgmhnLuWSGpqKmkZhp5JV8hMS80ro2SSnppKamoamQYdeFjRZ/YKukZPpambM7UHHsautl0xVjCJDaMb0W3KPm4nZYGxOZZqE4xM8t/4fHHzL5y+n0l65AGWbAjF27dublLhRbNmKvb8tpHbaaA8usrPI/x5Y2FYbslaNG9ejl1LvuNsbAqP7h1h5tAeTNmXmLvh9ax/VgYZWVlkpGXlPG40aj+bDscVXA0HJ5xUwRw7FElyaiqpqelkKQDVadrUjv0/fcvpyCQSb+5j5sRP2XvH3LAdz9D2S1xe3/jkKnT/0jf++ujb/o2ZdTX3Pg7t19q+hj+dBYB4rsXGEBZ746lkJIPg6Id4O9sC6QRHp+DlpHW2UtnP0Kl+fHAjbw50lpIFppqcZ9grd1i0aRFVO06lnTqbbCwpZ2pKOXMLspVsKOeCa/JFjsUkkZwYzMVE0HCV438V73ZX76otsLm2ne1F3IGbdW87fzxsTqvK+Y/aEu4d406VKcyt7ULztl8zUHWEYzqat7SqSHnzQq59KgcZ8ZUrTmu3UqLj4ZRt9JtZFZcfviX46VjyRn4Kq8ig+g0Kn8uefozPlrai6fq16L4PPZjpS/youXatjqcTGWHn0oVPe+4hZNgk/BJ+pMvWzTkPuqABc8ZHkjb5qVe/N3L3r3P855eP2GvSg1/fPcKWVwbQvFzBMbqfFMGN6JvEPnUB19jIhMzsTKAqg9v34e6hYYzYvptk15pU+IcdVz5KiiKxnAvl9S9akJUrFYyiiSpxMnWJGS954Nn/V4rx7QdA/NlALls2wb+m7l+d0BcvWjZZmZlkZmYSHROL2s4Os8xMsrJz/3i6NqP/iKG8NWAAAwYMYEB3P+wUR3Tdyy2E+N9QtpMKPPlo3QraXvucNlXtcPLpzTr7SWyb2zn/TZv1RzJjQAJTatuh0WhwGL7dwPpPMD73TLDtkK1w4Ut8NBo0Gg8+fvpHUwthVO0NFh66SlxiPNcOzaStfXGmRpXj5SGDsdg6hDqOppja12FceHt+mtI939Su+n5mzG3thn313uzz+IqlHz4+j2xBj2838VbCFzR2ssK2cnt+TO/LpP41c+MaXpu7ifFWK+lawwGn2gMJ9PmO1R8/fgCsnvW3e5PZPzTl6IAalK9cnYYDd+NQr2LB1bDry5QZXuztW4VyGg0aTX2mhQKY0WnWJiZYr6KHlwsVGrzD6YY/8Nt4AycQGNp+icvrG59che5f+sZfH8O2f6llX2bV/llMPX2C+HyBa1yJqYaXE0A4V2I88HTSCqta8kFbD9at6cjQ89c5f6IPbQMf8uFLPXEii5Cj77O64kymVLYAVQAjmt3nPwsCaP+nDR/V9wOXoXzT3JRFP9ahwsKpRNZdzvl+HTi4eTy/F+MAy6TqaD4rf4gPN61C14Oxsh4eYsKGZZg1H0+fp2YQ2Xp8zu7Xe+bcWG/WjJmDfuRNHXl/5y6n2dC4kH3rr8McSC3PgCYdsdK9RNFUJliaqrEwMy9wBevGuVUEVejHQCedJXNkPSAmKYZ7SfG6n8CUcIDNt5No5NORoiaWWDm048Pu2wjr3snAK2ne/GfEIda0ewM/i8JKKFy+NJvJB5cT9FTnHOzcUUddJgxwrTGJdYN+ZnHn8XzXZyefV9ZZWdmlUqFKuU1EckYxf709i8TYG9zLnZ5XIjf3svlEEg17vEqxjsdTwzh88iF1WvphW5K4HtnhO/h23jzmzZvH+vOPSL24gXnz5vHzkdzfojFRU65cubxX6kMSrB1w/LuemSuEePF03WhRtm7ULuuylYzUFCUlJUV5FH9ZmeZvqvj85+IzqjvnRuYuPxfjrlYhnqlsJT72mLJ8Q3OlyR/blbOJaS+mG2mXlPm/NVCcZnVR5mjd53nnwnuKz1deyku7DynRf9N97hGB7RXz+XOUMP2LFlOo8p9vKyqdTseUqpbY070V9exPlKPP5O7kZyjrovLlfC+l1a5dSlhqRuHLXRqRd6P7vGnKJe1Y2mql85Mb4Z++UVuPO9MV3//WUJwKvEYqG4s7VukXlYVrX1aqTq2oVNt+/KlgYTdqRynf/lhBsZveQum8Z5+i4zEJBolb2kWxqP6hcqyIISwoS/nr4FLl298v6niwgiFxIYQoPpWiFLwDcui2bSzt0uVF5Dj/QEG86xrA91GgMrejesBIFq7+L22fySXeG0xvWJWgd5PY9laJzpEK8UxEnejOaPVq1vu+yHkrmcRG7SfEtAP+ub/4G/vXAUItm9HCpiTTNwzxgCXL67Kp9mn+aFDU5YQXJZ31azyZW2EvRwOqvejOFJD98Bhf75rO0vBgYrK9+HzkZsYUZ4bov14av7/pxtz6xzkyrvqL7owQQhRJkgohhBBCCCFEqZTxeyqEEEIIIYQQZZ0kFUIIIYQQQohSkaRCCCGEEEIIUSqSVAghhBBCCCFKRZIKIYQQQgghRKlIUiGEEEIIIYQoFUkqhBBCCCGEEKUiSYUQQgghhBCiVCSpEEL8S6QT+edmDl/LeyfuzE4OXE2iwC+A/m2yuL13CfO3hJBaorgQQghRNklSkete0DIW/H6Z5BfdESHEs/foAgv7NaTRwCVcSMp7O/3WDia2qUv7z3YT/Twyi/izBF7W0MTfE3VJ4kIIIUQZVfaTivjjzO3XlCr2llg6ViNg8CLOPX3kv/cdbF3fJajEjSSyb/YY3hv/E5dL11uhR9DYitgO2/miu/G/Zf8YXN0/4GiBwE1mN9eg0eS8rBwqUefld1l5+dEL6OTzcXSCB64jdz/1biS/DuzEXKOPOXx2G6N98yLlu83j+Jnl1N89gNf+e47Mv7V3aYQGnSDZJwA/+5LEC5GZQHjQehZ/M4c5a86Qf+smcnLlHObM0X4tJjCyNOshhBBCFGTyojtQtGz2TurKtIRJ7ArZj2fmGab36sjrk+tzdUajZ9iONf033qdnpjnmz7BWIcqCLj/Gsqq3OVmPbnPoq/706fEFtUJm0kj1onv2fGQfncNnR1ozL7QfVcwKxo0cWvLVwuH4tpnMujEb6GvzN/Uj8gRB111pMdRd5xevvrhOD8PYvvYgD6r408QzliMmjlhox5UYYuLsaNJ/IE0dHr+pwriMf/MLIYT45ynjVyriCQ2Nxq/bQOo7W2BRwZ+PFq/jy1fsyQLYOQwrlQpV+0U8iPqeAJUKlUqFyv8bHp+IO/iuK449PmRc+8Z4VXWjmv9wVofnnY/c1F+dU8ZIjbrRVCLytX+D6Q1VdBgzha5Na1O9YiXq91nAea3JzlkRqxnewh1bK2uq+I/j0zcr4vjOXgPXL6f+dmNn0CegHjUqulG3x2xOak3PIP4U8wb5U9OlHFaOHrQcvpzg9LywcnszY9vUxNHCBGO1PR4B77AqItOgeMT0hlT76CRwj68DjKg8NghIZ2U3Z0YfyK0g+iBTX69PRVsLyrl40uH99VzVOp2rb3yzrq3n7YAq2FrZ4NHmUw4lPM8j2VCmNtDQd11ef05+XAvH4duf/F+5s5UJr9TBzd4KS9vyeLcdw1rtFYw7wsx+Tanm6oxLJV+6frKV29l54cAP3HHr/RETO/tTz7MaXm1GsS7C8PPdWVfXMap1TVwdnanVZiJfvOWB25j9hrW/eySOGg2azj/yIPoH2uZekdC0mU+UVhsqI2NMTEwwt65KhzF9qX3rBCfu5QYT/mT+sDbUqeyEo5s37UatJER7/9IzPkXFr85ujtcnp4FIvmtrQY0JR4F0VvWqxNhDuRXEBDK9T1M8XO1xquxLl/EbuaY1fPrGN+v6Rt5tWwtXRxe8X/mCwzr2r+D9+4l96TVeti58O5jU70ZnpwMcKHi5B2LW06+yDc4tZpXiSmYS5wPPYdIwAG/LksQLkaKiUscB9G3jAUnJODg45I/HxxCjOOPiZIKJyeOXMf+SfFIIIcRzVMaTCgde6R7AsSl9+Hz1CW4nK1h5v5oFCCgAACAASURBVEL/1h4YA3T4gbiUFFK2D8PG5R32paSQkpJCyv4xuGrV8iDMiJ4bTxJ8/QrL/AJ5a/QyYnJjr/30gJSUFBKWvVpoLy7F1GDhkUtEhG+jU9hYRi28kRtJ4rdxg9leaSpnouMJXdWG+AuxxV7LS3fdmHPgHOERe+kb/RlD5lzMjaSxbdxrzEnuz4aQ+8RdWIzvseEMnX/9SdnDs0ay0nYSp2PTSY36k9mt77Nl50WD4tW8vYkODyedYILNG+IaHkwiEYSFeeLjA5DC5nE9mJ81gh3X4rh34mtq7B/E4AU30Fb4+Cayetwgtjh/xsnIOC4trceNE/eLMTInmeCRN33nyavXqmc2TeXI1+/xm80Ejt5JJOHmMaa3us+23Y8PHZPZ/OEbLGQM+29E89fZ+dTc+xbDFt/OV0dihBGvrwniXMhZFtULYvjY5Ri2FySx5uMR7Kz4Bcdu3ePCipdIuBSnFdfTfrvvuBsfT/ymwdg4D2dHfDzx8fHE7xyJi872krm09g+CHetQxwUgje0TX2decl9WX/iLu6e/p+6JUbzzww0Dx6foeFVPL2IiIkgnhBDz+rhEhJDIVcLDa+HlDZDC1om9WZg9lM3Bd7l+eCbVDw5jxKKbBo5vIusmDmOb0yQO37jLnz/4cvNUfIG1jomJxtbFGR0XKbS4Ut41lejoxIIhU2sqVHbH3f2pqwDFkH7tCMfjatCyobPOA3p98UI51aBOeQ0QS1ycGgeH/BlJVkwM8eUyuL51JUu+n8+iX/7gYlxWCddCCCGEKFwZTyrA471tBP7Xj+BveuHtXImAt5dxOSU3aGSCuVqN2tQYMMZMrUatVqM2M85Xh2XTdjS1ArDhpd5dqXQrnPDHVZiao1arMTctfCj8Xu5MBWNA40vHVi5cuhScG7lBSEg6LXu+STULY8wrdaZnK9tir2O9l7vgZgKovej2ck2unL+Qe9BsTpdl97i1/h1q25liXqEtfTu4arUPlpaWpEWHcTnsNknqKnSfvJZV7/oZFDfy9qZ6eDjXooK57daVtmnBhGSFEprog48zQCjHjiXTfvDb1LHXYFWlI6PeqMbxY3/me1pO4eMbwfnzmbQfNISaViZoqr5B39bFOQ3bmFlXcxNF7dfavs9s3p6lhSXpMeFcibjDQ7U7r33+KytGPp50H8bxExm88tabVFGDsWMAQ7t7cDToVP71b9yGxrnr3/KNLlS8HfHUFa/C3CQ0NB3/1/tQ1cIY84od6RGgPfdGT/sG7v+7P6iFu7s7FZ0r0fYnCyaumkIrYwBzOi26Qfiq4fjYmmJevjW92rpw5XKIgeNTdNzIywuPqxFcjw7hToVXaZ0WQlhWOGGJ3ng7AYRz4sQj2g4YRm07DVbuLzOie1VOnjhr4Phe48LFTNr2H0QNKxM0VbrTq1XBw/7s7GxUKn2H6ipUqpxlC7DtwOygC5z6bTBV9dSikxLLqcNh2DdrQVVdmY2+uCFS44hNdsDRMf/bCYkpWJpbUrH56wwe8SZNLK9z4MT15/i0KyGEEP8WZT6pAGv8Bs5g3fGbxIUtp3XIBDp/HEhGMWowMdE6BPWfSXjILJoXo7ypqemTfxsbG5OV9WzP9Gn3z9TUFCUjIzepyCJi/Yd0auCNp6cnnp6e9Ft+L9+BT4NJa5nbIJipvRtTycaBWu1Gs1Zr+lGR8WreeN8NJ/xyMHh3w8syjOCLYYTVqE1tAFJJTTXF3DzvgMzc3JyMlBS0R6Dw8U0nPd0UM7O88mZmJT1q+nv4TfiVGfVDmd7fn+ouFajbaSy/P5lek0FmRiqbRvvi65vz6vlTNNbmKrQPPY2117/5V1w6P42mz6R3hrWvT6svDnPy5CnOX40k8sLvjPe3y41kcXXjR3Rr5vek/kErI/PtX0WPj554VU88/4og4kooeL2Kp2UEIZfDiajujQ8AqaQV2L/MyEjNv38VPr7pZBiwfxkZGaEo+g6jFRQlZ9lnLfnKYf7M9KVVXd3zr/TFDRIbS6zGAYenciqHRr0Y0b8D3k4aTEztqFS+HJmZf+/t6EIIIf6dynZSkR3C5jk/czx3xoyZW1u+eK8Ddw4FcrPoks9JVXx8zDm0ejnhSRk8urmV9YE6pk/okZaWlu/fRmZmOWfiE3/j/X478FlwkpCQEEJCQlj1VoX8ha39GD5vE8dCo0iKPc3nzlsYMGk96YbEjbzwqhzO0T03cfb2wsvzEVe2hJLk40POzGw1anUGaWlKvv6ZajTkPxdeGFNMTTNIT88rn56eXsTyTyvt9CcNGjWka49vehpqjSZvEWtfhsxey6ELt4i5c5RPnLYx5LONueNniompFW8sOs/58zmvi2E3uLu0u4Hrn0dJTyG1QCZQBW8vcw6vXUlEUgaPbv3BxiDtG2qeTfvmNs64uDjjUM4s/9SaxDWMH7Qbr28PP6l/xYDy+QsXOT564kaeeFaK4Pi+Wzh5euJZ8xHB28JI8vYm5+FGaswL7F/pmKoN379MDNi/7O0dSIiMoug9L4rIKHMcHMoZ1LLBMu9w7MhdqgU0wVXXt62+uIFS4uJIcXAg3x0VSgYpyalan5VMYmMTcHByknsqhBBCPHNlO6kwgou/jOLtzzcRGp/Ko8iTfLN0H7Z+flTWXs7ODruEUM5dSyQ1NZW0DEPP4ypkpqXmlVEySU9NJTU1jUyD5gdY0Wf2CrpGT6WpmzO1Bx7Grrad/mJPubj5F07fzyQ98gBLNoTi7Vs3J6nIyiAjK4uMtCwUICNqP5sOa8+5T2LD6EZ0m7KP20lZYGyOpdoEIxOT3IMGfXEPvL2j2LULvL2N8PS05OC2i1SpXTu3/lo0a2bF3uU/cjk+hYc3d7Ho92s0a97QwIOSGvj5mbJn+TLCHmaRenMDqw8k6S/2RGmnP1WkaTM3jqz+kYsJ6SRf38hPfyTTvPnj6TtJbB7bgl7TDnBH5/jUomkTFfvWbOFOGiiPrvHL6Db0XRxeeJO6JGzkzSoOlG8xi+B8ASt6Tl/KqzHTaelRmQZDj2DrrT19zsD27WyxfRDG+evF3P+zc/avzMf7V/RBthzRvudF3/joi1fDyzOaPXvAy8uImrUsCdx+CXdvn9z6a9CkiSX7V/7ElYQUHt7aw9JN12nStL6B+5cH9XxN2bdyOeEPs0i9tZl1hx4WWMq7ZUusD21mRxH5fta5zWyPCqBVM10tX2LGSx549v+VOB3RosSfDeSyZRP8a+r+1Ql98aJlk5WZSWZmJtExsajt7DDLzCQrO/fLKyOCnYt/YX9EEhmZ6cRfC+LELSfqeDoUXa0QQghRAmU7qcCTj9atoO21z2lT1Q4nn96ss5/Etrmd8990WX8kMwYkMKW2HRqNBgetp/sU7QTjc8+E2w7ZChe+xEejQaPx4OMThtVgVO0NFh66SlxiPNcOzaStffGnRtX3M2Nuazfsq/dmn8dXLP0w96De7k1m/9CUowNqUL5ydRoO3I1DvYpaJcvx8pDBWGwdQh1HU0zt6zAuvD0/TemOqUFxI7y97TgXaot3VSjnVYt7p+/g4/N4YraGrnN+Z5RqIS9XdaB8o/cJbv0zy0a6G7hm1vSZs4LuMVNo7GKP18BTuDV6ngc0RrT4bA2fOq6nh1d5qr40lcS+vzKv9+MfAShHu0ED0fzxNg0rlqNchQZMjGjL4v+8ljs+FnSdu5YBCVPxr+SIa43O/JTei4/61ihmP0ywtNCgsVQXOANvVLU73+65wl/R9wje8xWt8+0/BrZfbwT/7ZfAtAblsbOzw22Ugb8DYtuHad815tiQ2lSp4UOLoXtx8HXTWkDf+OiLG+HpZceFcBs8q0A5zxpEnrmLt/fjfUDDqzNW87ZqMa96ulG1xXhCWi1h0Yh8pwyKYE3PGUvpGjuNAPcK1Bt6mgoNCv7Ag8lLH/Kp7z7GvbOcCB0/U50VvY+JI37AbMyn9Na1e97cy+YTSTTs8SrF2ntTwzh88iF1Wvqh804rfXE9ssN38O28ecybN4/15x+RenED8+bN4+cj0TkLmNWiZYdKxB5YzoIFP/L78Ud4d+1G/eKf9xBCCCH0Uik6JhsP3baNpV26vIj+/AMpZKblXNlQUq8x79V6rGx7hktf1NZflBtMb1iVI2MesnVQcW5gFv87tPef63z/ehNWtT7Gn5/66C8qDJd8ge8H92TKnxWYuO4AH9TPefvuuhF0fH87jkNXsHZyGxx1XKi4v+xVKk2ryb7gOTQ1+AkB2dw79DPr4xoztEdtHU+N0hcXQggh/lnkJ5BK7Qhj3QP4PgpU5nZUD5jAwjGGJBR59N9EKv53HWNCzbb8EA0qc1s8WnzAt6MkoXjmLOsyeu1l+lzcRYhW/q6u3pMfTs6jeUVNIQXTOLDvGPXe+boYCQWAEeVbDWFMieNCCCHEP4tcqRBCCCGEEEKUShm/p0IIIYQQQghR1klSIYQQQgghhCgVSSqEEEIIIYQQpSJJhRBCCCGEEKJUJKkQQgghhBBClIokFUIIIYQQQohSkaRCCCGEEEIIUSqSVAghhBBCCCFKRZIKIYQQQDqRf27m8LW8d+LO7OTA1SQK/ELq3yaL23uXMH9LCKkligshhHhRJKnIdS9oGQt+v0zyi+6IEEI8b48usLBfQxoNXMKFpLy302/tYGKburT/bDfRzyOziD9L4GUNTfw9UZckLoQQ4oUp+0lF/HHm9mtKFXtLLB2rETB4EeeePvLf+w62ru8SVOJGEtk3ewzvjf+Jy6XrrdAjaGxFbIftzHtjU39Mqn/MuRfXJfEcFdj+htg/Blf3Dzhakga3DsbK51MulKTs83D/KHMG+FOjvAOOlerQcewawtKfdyci+XVgJ+Yafczhs9sY7ZsXKd9tHsfPLKf+7gG89t9zZP6t/UgjNOgEyT4B+NmXJF6IzATCg9az+Js5zFlzhke6F+Je0C8s2nCBB8/vsowQQvxPKeNJRTZ7J3VlWkIfNoTEEHNhBa3Dx/P65FPPuB1r+m+8T3LYbBo/45qFEEK3dHZO6sncxN6sOXeDq0e+pd7JUQz8Jvi59iL76Bw+O9KauQv6UcWsYNzIoSVfLRxO0uzJrHvwN/Yj8gRB111p0cwdkxLEdXoYxvYVazmd7k0TT0s0Do5Y6FjsUfhutl+vwquv1sVGVfJ1EEKIf7MynlTEExoajV+3gdR3tsCigj8fLV7Hl6/YkwWwcxhWKhWq9ot4EPU9ASoVKpUKlf83RObWcPBdVxx7fMi49o3xqupGNf/hrA7PO9+2qb86p4yRGnWjqUTka/8G0xuq6DBmCl2b1qZ6xUrU77OA81qTebMiVjO8hTu2VtZU8R/Hp29WxPGdvQauX0797cbOoE9APWpUdKNuj9mc1Jp+QPwp5g3yp6ZLOawcPWg5fDnBWmcyldubGdumJo4WJhir7fEIeIdVEZkGxSOmN6TaRyeBe3wdYETlsUFAOiu7OTP6QG4F0QeZ+np9KtpaUM7Fkw7vr+eq1ulKfeObdW09bwdUwdbKBo82n3IooZh/sYto36D+xx7mq55+uNlaY+PsScePNnMr2/D+/71k+xdp90gcNRo0nX/kQfQPtNVo0Gg0aNrMJ+rxMjGBTO/TFA9Xe5wq+9Jl/EauFWfzFVH+6uzmeH1yGojku7YW1JhwFEhnVa9KjD2UWz7uCDP7NaWaqzMulXzp+slWbmvtX4EfuOPW+yMmdvannmc1vNqMYt2T7XOVkycTaD1oFPVdymFTuTXj/vsFbSqk86SKhD+ZP6wNdSo74ejmTbtRKwnR3v53tjLhlTq42VthaVse77ZjWKu9gfT0DyB4/35iX3qNl60LHyaT+t3o7HSAA7ouF8Wsp19lG5xbzCrFld4kzgeew6RhAN6WJYkXIkVFpY4D6NvGA5KScXBwKLBI9v0zbA3KIqB7ABVMS9p/IYQQZTypcOCV7gEcm9KHz1ef4HaygpX3K/Rv7YExQIcfiEtJIWX7MGxc3mFfSgopKSmk7B+Dq1YtD8KM6LnxJMHXr7DML5C3Ri8jJjf22k8PSElJIWHZq4X24lJMDRYeuURE+DY6hY1l1MIbuZEkfhs3mO2VpnImOp7QVW2IvxBb7LW8dNeNOQfOER6xl77RnzFkzsXcSBrbxr3GnOT+bAi5T9yFxfgeG87Q+deflD08ayQrbSdxOjad1Kg/md36Plt2XjQoXs3bm+jwcNIJJti8Ia7hwSQSQViYJz4+AClsHteD+Vkj2HEtjnsnvqbG/kEMXnADbYWPbyKrxw1ii/NnnIyM49LSetw4cb8YI1N0+/r7n8yG915jPh8QFJnI/cuL8NzVj0ELbxnYf31OMsEj90BX+9VrVbGmicj2L0S777gbH0/8psHYOA9nR3w88fHxxO8ciQs5/ds6sTcLs4eyOfgu1w/PpPrBYYxYdNPABoouX9XTi5iICNIJIcS8Pi4RISRylfDwWnh5AySz+cM3WMgY9t+I5q+z86m59y2GLb6dr5XECCNeXxPEuZCzLKoXxPCxy8n5lsggPV2Fqanxk2UdW4/hq/6+uV/MaWyf+Drzkvuy+sJf3D39PXVPjOKdH/LG/8jX7/GbzQSO3kkk4eYxpre6z7bdjw/tDetfTEw0ti7O6LhIocWV8q6pREcnFgyZWlOhsjvu7rqvAhgi/doRjsfVoGVDZ3SlnfrihXKqQZ3yGiCWuDg1Dg5PZSQZdwnccpwUizROrVvCslU7uBjzvE4qCCHE/5YynlSAx3vbCPyvH8Hf9MLbuRIBby/jckpu0MgEc7UatakxYIyZWo1arUZtZpyvDsum7WhqBWDDS727UulWOOGPqzA1R61WY25a+FD4vdyZCsaAxpeOrVy4dOnx9IQbhISk07Lnm1SzMMa8Umd6trIt9jrWe7kLbiaA2otuL9fkyvkLuQel5nRZdo9b69+htp0p5hXa0reDq1b7YGlpSVp0GJfDbpOkrkL3yWtZ9a6fQXEjb2+qh4dzLSqY225daZsWTEhWKKGJPvg4A4Ry7Fgy7Qe/TR17DVZVOjLqjWocP/ZnvqfBFD6+EZw/n0n7QUOoaWWCpuob9G1dnNOMRbevv/8hHDuWQaehA6mqBmOnVox4ozpBgScM7L8+jZl1NTeR1X6t7Wv49Axk+xdK7+c7nBMnHtF2wDBq22mwcn+ZEd2rcvLEWQOfVlR0eSMvLzyuRnA9OoQ7FV6ldVoIYVnhhCV64+0EEMbxExm88tabVFGDsWMAQ7t7cDToVP7xadyGxrnj0/KNLlS8HfHUFdHCmNNp0Q3CVw3Hx9YU8/Kt6dXWhSuXQ/LqtrAkPSacKxF3eKh257XPf2XFyMc3RRjWv+zsbFQqfYfqKlSqnGULsO3A7KALnPptMFUNWq+nKLGcOhyGfbMWVNWV2eiLGyI1jthkBxwdtd/M5O6RXYTZNadT19d5c2BvmlrdZM++CzwsYTNCCPFvVuaTCrDGb+AM1h2/SVzYclqHTKDzx4FkFKMGExOtQzz/mYSHzKJ5McqbmuZdEzc2NiYrK6sYpfXT7p+pqSlKRkbuQWUWEes/pFMDbzw9PfH09KTf8nv5/rA3mLSWuQ2Cmdq7MZVsHKjVbjRrtaafFBmv5o333XDCLweDdze8LMMIvhhGWI3a1AYgldRUU8zN8w44zM3NyUhJQXsECh/fdNLTTTEzyytvZlacowI97evtfwYZGan8PsLzyfh1/TEaG3MV2odGpd0/Sku2f0mlklagf2ZkpObvX4nLV/XE868IIq6EgtereFpGEHI5nIjq3vgAkEFmRiqbRvvi65vz6vlTNNZP7V/G2uPT/CsunZ9GU4P6l8XVjR/RrZnfk/oHrYzMt/39JvzKjPqhTO/vT3WXCtTtNJbfn0yvMqx/RkZGKIq+NExBUXKWfdaSrxzmz0xfWtXVPf9KX9wgsbHEahxw0L6UkhbGiQs2tHi5Hs5qFRhb4+1VGdWDB+i4HiOEEEKPsp1UZIewec7PHM+dMWHm1pYv3uvAnUOBGDrB4e9VFR8fcw6tXk54UgaPbm5lfWDx/xylpaXl+7eRmVnOme7E33i/3w58FpwkJCSEkJAQVr1VIX9haz+Gz9vEsdAokmJP87nzFgZMWk+6IXEjL7wqh3N0z02cvb3w8nzElS2hJPn4kDPzWI1anUFampKvf6YaDfmvBRXGFFPTDNLT88qnpxfn0TZ62tfbf1NMTa3ovSzkyfiF3bxH7Io3DOy/Ps9m+pNsf1DSU0jVcRK8aGrMC/QvHVO1of3TU97IE89KERzfdwsnT088az4ieFsYSd7e2Oeun4mpFW8sOs/58zmvi2E3uLu0u8HjY2amkJ6et7fEHviOSSvP5xz0J65h/KDdeH17+En9KwaUz1+FtS9DZq/l0IVbxNw5yidO2xjy2cbc7W9Y/+ztHUiIjKLoT2YUkVHmODiUM2jNDJZ5h2NH7lItoAmuuv4a6YsbKCUujhQHB/LdUXHvDnfM7LDVejbt/dhYcHSk4J0XQggh9CnbSYURXPxlFG9/vonQ+FQeRZ7km6X7sPXzo7L2cnZ22CWEcu5aIqmpqaRlGHp0opCZlppXRskkPTWV1NQ0Mg2aP2FFn9kr6Bo9laZuztQeeBi72nbFXs2Lm3/h9P1M0iMPsGRDKN6+dXMOKrMyyMjKIiMtCwXIiNrPpsNxWiWT2DC6Ed2m7ON2UhYYm2OpNsHIxCR33rG+uAfe3lHs2gXe3kZ4elpycNtFqtSunVt/LZo1s2Lv8h+5HJ/Cw5u7WPT7NZo1b2jgvOYa+PmZsmf5MsIeZpF6cwOrDyQVXEzJyh33x690shRD2tfXfy+aNVOx57eN3E4D5dFVfh7hzxsLw4q3gQr1bKY//eu3f8JG3qziQPkWs9D53CM7W2wfhHH++tOf7xo0aWLJ/pU/cSUhhYe39rB003WaNK2fv3+F7l/6ylfDyzOaPXvAy8uImrUsCdx+CXdvnyfj07SJin1rtnAnDZRH1/hldBv6LjZs8hx40LixLQdXLOBMVBKJtw4w5/++4MBds5wv5uyc7Z/5ePtHH2TLEe17UpLYPLYFvaYd4I7O7WtY/7xbtsT60GZ2FHE+JOvcZrZHBdCqma4tf4kZL3ng2f9X4nREixJ/NpDLlk3wr6n7Vyf0xYuWTVZmJpmZmUTHxKK2s8MsM5Os7Nwvd2sbbJIjOHcljtSMVO5fDWTH6QzqN/HCvAStCSHEv56iw5CtW3W9/UKkha1TPuhYR6lgo1Ys7KsoTd+cqxy7/9RC2TeVNcMaKs4aIwVQLAfl9f/AaBfF4e09hdR+THnfDQWefrkp444piqJcV6Y1QOn6S0peiXHu+ep/WtHtPS2n/o6ffK/0reusWFo6KbW7z1JOJD6OpyrnFw9QGlV2UlwqeSh1O0xUZgyvla/9h6e/V/o2qqzYmKkUI7WdUs1/uLIqLNPg+JXJvorKor+yJUtRlGPjlEoqV+W9QK0uRh1QJvfwU9xsNIqVUy2l3XtrlYgMw9c369rvysgAd8XGwlqp0vJj5YsBborN0B15C2x8UzEuMP4+ypRgw9rX2/+Yg8rk7nUV13KWirVDVaXFoPnK6cS8cPG217Mm219RFEWJ36IM87BXyrf9VgnVVUn2LWX9yOZKJTsLRa1WKw7D/siLRR9SvurdRKnmYqc4VqyrdBr3u3JVq3/KlrcUS7VaUed71VemhRhWPvirxorGfrCyLUtRlBMTleoad2VckFb9sYHKV70aKe5ODopzBU+l9bCFyhmt/evQ2MpKhXf3FTo+StwRZfabzZXqrnaKQwUfpcO7vyrBqY+DqcqFpUOUFjUqKpWreyuNuvyfMmdU3Xzr//DMD8rAFjUUF2uNYmHrqni1GaWsDc/bvvr6lzO+15WFL7soHn1/VsJTlAIyo/Yq4xo5KfX/77iSWjCsKDe+VpqpnZQ3f39Q+HrqkhKqbJ6/SNl3K6NkcT2ywrYpc2fPVmY/9foxMDJ3iXQl6twOZeXib5Wvv/5WWfTLFuXY9UQlu0StCSGEUClKwcm0Q7dtY2mXLs8zt/kHU8hMy7myoaReY96r9VjZ9gyXvqitvyg3mN6wKkfGPGTroOLcwCz+N8j2F2VE8gW+H9yTKX9WYOK6A3xQP+ftu+tG0PH97TgOXcHayW1w1HGh4v6yV6k0rSb7gufQ1OBLdNncO/Qz6+MaM7RHbR1PjdIXF0IIUdYUZ5aG0OkIY90D+D4KVOZ2VA+YwMIxhiQUeXTkdeJfRLa/eOEs6zJ67WX6XNxFiFZ+q67ekx9OzqN5RU0hBdM4sO8Y9d75uhgJBYAR5VsNYUyJ40IIIcoauVIhhBBCCCGEKJWyfaO2EEIIIYQQosyTpEIIIYQQQghRKpJUCCGEEEIIIUpFkgohhBBCCCFEqUhSIYQQQgghhCgVSSqEEEIIIYQQpSJJhRBCCCGEEKJUJKkQQgghhBBClIokFUIIIYQQQohSkaRCCCGEEEIIUSqSVAghhBBCCCFKRZIKIYQQQgghRKlIUiGEEEIIIYQoFUkqhBBCCCGEEKUiSYUQQgghhBCiVCSpEEIIIYQQQpSKJBVCCCGEEEKIUpGkQgghhBBCCFEqklQIIYQQQgghSkWSCiGEEEIIIUSpSFIhhBBCCCGEKBVJKoQQQgghhBClIkmFEEIIIYQQolQkqRBCCCGEEEKUiiQVQgghhBBCiFKRpEIIIYQQQghRKpJUCCGEEEIIIUpFkgohhBBCCCFEqUhSIYQQQgghhCgVSSqEEEIIIYQQpSJJRT7pRP65mcPXXnQ/hPg7yP4tilJw/4g7s5MDV5NQXlynhMGKv/2ezfbNZFUvDU2mh5YwLgS8iO+fZ1a/cpNNH76CTwU7akw4WoqKsri9dwnzt4SQWqL4i/ePSSrunbvNgv1JJP9dDTy6wMJ+DWk0cAkXkv6uRoTQLfLochZtuiL7t3gxCtk/0m/tYGKburT/bDfRklmUXSXcvKAEZQAAIABJREFUfrJ9RZnwgr5/nlX9mX9MZujmCnx1+h5hs5qXvKL4swRe1tDE3xN1SeJlwD8kqchk3y+XeO+b21wuJH5w8XGqtfoDVcNtqALOsbNY9Ufy68BOzDX6mMNntzHa91n0+Z8paGxFbIdpjd6m/phU/5hzL65LZd/+Mbi6f0DJz08kcuCbDxn38QqCn2G38vzL9+9Ct08oUxto6Lsu88k7Jz+uhePw7c+zd2VA4ftH+W7zOH5mOfV3D+C1/54js/BKCleaz8fWwVj5fMqFkpR9Hu4fZc4Af2qUd8CxUh06jl1DWPrz7kTJt98z2b7imSnw97cIu0e6otFocl89WPWiTl0X+vm+yezmGnrp7djf9/2jJGYwb0YCdfvE4j4gnu4LUwnR+nw+q/3/YXQ0jyrVo3EFNaoS1gFphAadINknAD/7ksQLkZlAeNB6Fn8zhzlrzvBIO5b0J7/OmcOcp1/f7+FWCdfiH5JUmNB/9sskb/Cmsa5wwl2+WJxGr/nteXS0Eyn7fOlQjNqzj87hsyOtmbugH1XMnlGXhTCYNX3X/EXcxek0/Btql/1bFEXf/mHk0JKvFg4nafZk1j14/v0ru9LZOakncxN7s+bcDa4e+ZZ6J0cx8Ju/59RAYUq7/WT7/jO1++4m8fHxxJ/5D3VedGdK4Zl+/2TFc/7CzdzpTNn8PCuRVRoNv//owJW5VjS6kczAVflTh2ex/1vb22EUF0tsyYrn9DbyBEHXXWnRzB2TEsR1ehjG9hVrOZ3uTRNPSzQOjlhox+PiuG9Zj17vv8/777/P+++/Tcfqamy8vHAr4XqU+aRi02fbc64+NNqOemA4EboWSsogAQ21a5mhMTNCbaYq1ooF799P7Euv8bL105EbTG+oot3YGfQJqEeNim7U7TGbk9rTR+JPMW+QPzVdymHl6EHL4csJ1sqEldubGdumJo4WJhir7fEIeIdVEZkGxSOmN6TaRyeBe3wdYETlsUFAOiu7OTP6QG4F0QeZ+np9KtpaUM7Fkw7vr+eq1mfm4LuuOPb4kHHtG+NV1Y1q/sNZHZ63QNa19bwdUAVbKxs82nzKoYRi5tlFtG9Q/2MP81VPP9xsrbFx9qTjR5u5lW14//WKO8bcAf7ULO+AY0UfXn53JcFpWvGYQKb3aYqHqz1OlX3pMn4j155Un3OmpcuH0+jZsgE+HtVpOmARFx6feNk9EkeNBk3nH3kQ/QNtH581ajOfqMdVJPzJ/GFtqFPZCUc3b9qNWpnvTMnWwbY5ZSxssfWfztV8ndfTPqDc2cqEV+rgZm+FpW15vNuOYe3V/ONT+P6t/0y93vrjjjCzX1OquTrjUsmXrp9s5bbW9gv8wB233h8xsbM/9Tyr4dVmFOsiDN9+WVfXMap1TVwdnanVZiJfvOWB25j9hrVvyPbR4+9df/3bt8j95+THeNR5g/HD2lLXbwiz5k3g1Sa1aPnFkbyzUXr6B0XtH3lM6nejs9MBDhTncoMh41/k588ARZS/Ors5Xp+cBiL5rq1F7lzndFb1qvT/7N15XFRV/8DxzwwzMCPKDqK4iwu477u5b5mlmaZpWi65ZJv1q56WpydbLG3RfDJbLG2xzNwyNfcURU1TEATBfUlWQRCYGQbO7w9QFoEZQAWfvu/Xa14v4HvPOd977rl35txl4Jk/csuXa/ud4uDBZHpPmEHb6tVwrdOb2W+/QZ+aFm5UYWP/L+/4gluz/cq0fW87ef8tiVbnhMFgwOCoK/7seInjx/bxp8Tjr53HV3PIYh5sUwtvn7o3H9+4RcefzDgOLP8XI1q3YNS3p25MKs7FQq/eTjSqqsHZW88jnR24HJtFZmnrt0Hr4Ylb8lXKPidPJWT3UXTtexDoXJZ4MTI01B48njF9GkJqGp6engXC1iq16dAjEF+dDp1Oh/p7P0GX6nJP11o4lHFNKv2kYti/B5GxbwjJr1e/ORgRRcu+W/CaEE0Y8UwfvAWvvlvwui+MHTcvXaz4+DjcqvtQ3EncsEt+fLDzKNEntzEm7jUe/+BYbsTMhtnD+CBtHKsjr5AY+jmtgqcwadGZG2X3zJvOd24vcyjBgin2MPN7X2H95mN2xRsEBhIXHY2FCCKc2uMbHUEKJ4mKakqzZgAZrJs9gkVZU9l0OpHLBz6i0Y4JPPbp2QL5X43S8tCag0ScOc7SNruZOHMp8QCk8OPsCaz3eY2DMYmEfdWasweulKLnSm7fdv5prH5qGIt4lqCYFK6EL6Hp72OZsLjghbfi87ed34b/G8mHqQ/z07ELnD+4hM6hzzB+ftiN+K8vjmZx9iTWRVzizJ738d81malLzhWoJTzen4U7DxMetppB0S/w9Be58X6fcCkpiaS1j+HqM4VNSUk5Z442TydntJrZ+OKDLEgbw4+hf3Pp0H9peWAG0z47e6Puez+PJSkpiZgl9xa7FsW2D+z96Cl+cH2BfRdTSD4XzNx7rrBhS8GbBG2N75KUXH8a654byWJmseNsHH8fWUTjbROZ/PmFAnWknNTy4E9BHI08wpLWQUx5ZpmdZ3RS+emlqWyu9QbB5y8TurwXyWGJ+eI22re5fSrH+he/fW2PH5JrMOyL33mn7W9scniGX1dOx7rgS3Yp+/Ozb3z4UsPXRFxcip09hx39b9/+V7ySy9dvGkD8yZNYiCTSqS3VT0aSwimio5sQEGh//xS//TKxWDTo9Xlvv169Z/HOuFa5b6y2t9+tGF+3ZvuVYfveIfL+W1b2jZ/ijz82jr92Hl+PRhn4zx/nuRy2lI6hzxd4/4Jyjl/TBXZ99hyDWnRg+gYtI5b+Rfi8Prn7n44Jo/UE/5jGllhFbHgGL++CF0Y4ore3fntYr3HiaCRmf3/qlr40AJbTe9mf2Iie7X2KnCDaihfLuxEtahiBBBITDXh6FpyR6HwC6NysRk5/ZMdxYMdx3Lv1pFE5Htio9JMKrU6LwVGLk66IrvRvwJYVPTn6YX2a4Mk7y3pydEVPji5tQrdStJGdnY1GU/ymaj1wKH46wBDAAwMbczwkNPfeOyeGLr3M+VXTaO6ux6lmX8YM8CUsLO/yt7OzM+a4KMKjLpBqqMfwN1ey4sk2dsW1gYH4R0dzOjaCC37309ccQWTWCU6kNKOZD8AJgoPT6P/YE7TwMFK13mBmjGzA/uDDBb7NwLlzPzpXBXCl1+j7qX0+mmgAThISYqX/hMdpXFWHsf5IxvQuzTS45PZt5x9JcHAmQyY9Sn0DOHjfw9SR/gTtPmBn/rZEs3//NQZMmkkbrypUqdmd55f8yEu9quWeSYzmwIF0+o6fTHN3I1XrDmTq8PocPHCkQPut+w+ihgNgbMnAHj4cD4/MCWh1OBkMGPQOgAOOBkPumaPrHzKcGLLkLNErptDMTY9Tjd6M6ls9rzyg1eecbXLSF78rFts+4FzFGUt8NMdPXuSaoS7DXv+e5dMLPjRha3yXpOT6o9h/IJNBEx+hngEcvHowaXhD9gX9WXD7dexDx9zt13PkUGpdOFn0FcebnOPECQvdH3yY+lUccKo1mBE9XPPFbbRvc/tUjvUvfvvaHj+4uOKm0eHhURU3V1dwdcXNlEZalv352Tc+NGg0OcvazWb/27f/Fa/k8tqAABqeOsmZuEgu1ryP3uZIorKiiUoJJNDb/v4p+/i1vf1uxfi6NduvDNv3DpH337Kyb/wUf/yxcfy18/jaethYmrto0fn0ZXR/74LHL8ozfsN5u0dXXjpYk5lrQjm88i3GdfApcGtQ/W7OTKxiZvq/rzJibjpX2joztmFRbZVh/JtWMMJoxFjNm9ZvxjH1jYnUtr90HpXAn3ui8OjSjfpFzaxsxe3KNZGENE+8vIpfJPnIDv7Stqd3yxIuGdnB7luzKiW9Dl8fHZh16NHi7mOgVhk6XavVolTxb2M6XV436fV6VGYmVkBHFidXvcBT727mdFrOYDTFXyb7vryB2e7llXyY/h/eGt2R0HOZ1Oo+hjmLFzCqkc52vEEggZd+Ijo8AQKnE5D8IhHHqhPVqDnNc1rDZNLj5JS3kzg5OZGZkUEWeRs3f/50f5/oG/u0BYtFj6NjXnlHR0ew+0FDG+3bzD+TzEwTv0xtSlDujX7ZGVdxvUdDNty4/FZ8/rbzMxfKr1pAP0aWEHdyciTTVLD/9Pq88xoODg5kZWXZ2X4Wp9a8zOz3t3Im/fr4iCH73tK9cZfUfpsXvue9jLeZO647Yecz8es6mn8vnM+D/nl9Zmt8l6Tk+jOxZppYO7MV+/JtP5ceBbefQ/7t1/UdwkLKlEoR7Gu/PO7E+he/fcs7fuzLz77xoVAqZ9lbx779r8zl6zel6d+rOHk8EQKm0PTqq0SGV+ekfyDNgNs/fm1vv1sxvm7N9rsd2/fWkPffsrJv/JT9/c0+Tk5ON37W6/Q31V/28etCw5ZeXPxjI5taNSOw9mAaVs1fJpvv37/K2qYu/PUvHa6WLH74OIWRP1Rj6yO6QlcryjD+DWNYnTEGstI48+VY2j3zEeOOvE6g/TUAkHZ8D4etrRhVzId5W3G7JCSQYPSkS5Vi4ukR7AxOpfn9HfEq+5PmwF1wpeJO8PDwJDkmtth92Ww2F/hZ6+iYc8BI+YGnx26i2acHiYyMJDIykhUTaxYs7NKGKQvWEnwiltSEQ7zus57xL6/Ka6ukuDaAgDrR7Nt6Dp/AAAKapnN8/QlSmzUj5844AwZDJmazKpCf3mi08wOVHr0+E4slr7zFUpojmo32beavR6+vyuilkTf6L+rcZRKWjyz1B0JlycB002ctA06F8kuN3Maqvedyr1TcHDebLegN9vafDSk/8fyELQQs3ENISAghISEsH1/jVtScx6UVj89fyR+h54m/uI9/eW/g8dfWFBjLxY9vI0YDWPKPb4sZg9FoZ/16dPqqjFwScmP9jkWd5dJXw2/R9qtHYIATe1Z+x8nUTNLP/8aaoPw3VJe3fSecHCEz35i3ZFpwzPcmeKfWv0jlHj/25Wfr+JcjlphYJzw9qxUZLXr72VLe/c9GeW1TmtY+yf7t5/Fu2pSmjdOJ2BBFamAgOV+eUt7tp8fRUWGx5N0jn7DzE17+LiTn+GLP9rsF4+tWbD/b8Yoj779l3b/KO75tHX9vjbKP39o8/NVhwtbOwu/wf+gV0IlH3/qZ0KTcSUuyhZVHdIwdpsNVAzg5MPZePbE7zRyzq347OThT3782+qsplLp3rBcJ3nuJBj064VvUp3FbcTtlJCaS4emJZ5HRTM7s2c3fdXvStXb5rzNU+kmF1ZKNyZKN2apAKSy5v1tv4XcWB/bsicsf69hUzO10x9Z9y6ErViwxO/li9QkCW7XMOahlZZKZlUWmOQsFZMbuYO2e/Pd8p7J6ZgcemLOdC6lZ4OCEs0GHVnf9wSpb8YYEBsby++8QGKilaVNndm04Rr3mzXPrb0KXLlXZtuxLwpMyuHbud5b8cpouXdvbed9dI9q00bN12VKirmVhOreaH3cWsVuoLCwmE6YbLwtZyp72beUfQJcuGrb+sIYLZlDpp/hmandGLo6yK/sbktfwSD1PanSbV+grWRvRuXNVtn79KSGJGaTHBPPhtId5d2dK7sBvRKdOzuz47muOJ2dw7fxWvlp7hk6d25buvkV3N9yuRhFyJgWTyYQ5M/fon50zPqzXx0fcLtbvzX/PrMJqNuWVUdbcfjbbOb5TWfdMN0a9u5OLRY6fHMWP71p07uLH3h+/5FiyhbQza/j6tzS6dm1lZ/1N6NxJw/af1nPRDCr9NN/O7MOYz+27Oe2GYrdfVR6a+xX3xc+lZ8M6tJu0F7dAt3xxO9svbvtQm3btfdj701JCkzJIPbOeZZuS6dD++nep3KH1L47N8WOLffnZOv4BZB1dx8bYHtzTpYg9o9jtl6vY/rdz/yv2+GOrfAMCmsaxdSsEBGhp3MSZ3RvDqBvYrFT9U7yGdOzoxq7ln/JXbCop53fywStvsPOSY87xxeb2uzXjq9zbz454RfrHv//a2r88vfDSRHJgTyxphd6fyze+bR1/cxW7f9unfONXi1vz4byyfD8RO9+gzYX/MmzWKrIAqjrQwCWTFaszOZeuyEi2snyjhbSaDtSyu377pMfEkOLri28pyyUd2U24cye6Ny76IQZb8ZJlk2W1YrVaiYtPwODujqPVSlZ2wQ8XWTHB7DzhRrd7mtya/32hivD4r78W9ecKcEU9PfhXRbvCr61qdmi+xc5Hq1btDqhvzWVsJvuMWjywumo45hsVnZE/cEa92w41+F//VWNa+ihnZ2/VfPg8dSDletykQj4frzrU8VbVazdULQe8qN6b0kQ5T8jrv2uH/qvGdKijXB01SmtwVw26T1Eroqx2x4+/2UppqoxT67OUUsGzVW2Nr3pqd74UY3eqN0e0UX6uRlXVu4nq99RKdTIzL7xzZnXl+cTWYlc96/QvanqPusq1iouq1/Ml9cZ4P+U6aVPeAmseUQ6gKPBqpuZE2Ne+zfzjd6k3h7dUvtWclYtnfdVtwiJ1KCUvbCt/pZRSSevV5IYeqkbfhepE4VjCXvXBuG7K39ddedQIUP2mL1Nh+bdx3B/qndGdVIPq7sqrVks1ZPYv6tSN/M+qeV0M6qEf8goceLGx8pz8W8E2ss+rVdO7qtruVZTBYMgXN6nQrx5X3RrVUnX8A1WHoa+oD2a0zBc/oJ5vYFAGQ+FXA/XiAfvav/bXZ+rRbo1UdRejquLmqwL6zFAro/PGT05+xY1vpVTyIfXJhO7K39dDeddpqx789+/q7+y8sM36E3ard0Z1UHW9PZVPzaaq9+TF6q982++PZ+qomk9uL7xVCipp+xVyU3022s9Z/+K2j1Iqca+a93DO9ves1UINeX6NOpNv9W7v+tvavjbGz4EXVYPAV1SIUmrv8w3U8OWpSiUtVYMND6mV18ewXf1TwvhQSlljt6nZHbxV21f2K1NRq2Fr+5XU/yXuf0qp9ROV8037R1v1bqR95SPe6aiMHo+pDVk5/eVvrKtmB+Wrv7zjN3Gvmv9IV+Xv6648azZTA578XkXc6CRb+3/5x1dO/5Zv+9ncvjZlqh8eMqiONzZKaePFkfdfpZQdx8c0deDD4aqFr6syFt4/Shw/dr6/5VPk/lDs/m3v+2c5jz+FZKSn3/j5anSGmvXyFdXkoXhVa0yi6vdumtqeUL76i5L2/UhlDHhSbYs3q2zbi+cmekKtW7REbT+fWba4DVlRG9SH8+er+YVeX+6OybfUFXXgu4/VN0Gx9udtQyWfVNxB10LUoocaq+oNeqkPD1//Y85Bbeg31yoyMyHKr8jxfTfIVpmmDJWRkaHSk46reX2qqbZzwio6qf89xYyPiyunqBY1/FTvV7er+Fv1riNuvTJuv1uzfW/vpELefyvSHTr+VtDx55bVnx6iPnu0m2ro46L8n99rR4Es9feur9TCX46ptDLFKy+NUjc/ITNpwwa+Gjr0VlwIuctYSTz2O5HO99KtAeR8T3Z9gp5MZcPEqrYKC1HJFR7fd4N9PFu3L5/FgcbJjYbdprLw2//QuzT/UVTY6ebxkXhkKye8u9O1lrHkoqISKP32q9zbV95/K96dPP7e+eNP5R7/dyeZVAghhBBCCCHKpdI/qC2EEEIIIYSo3GRSIYQQQgghhCgXmVQIIYQQQgghyqVSTioSEq9WdApCCCGEEEIIO1XKSYUQQgghhBDi7iGTCiGEEEIIIUS5yKRCCCGEEEIIUS4yqRBCCCGEEEKUi0wqxD9MFhe2fcGi9ZGYyhQXQgghhBCFyaRC/LMkHWF3uJFO3ZtiKEtcCCGEEELcRFfRCfwjHDyG26saNmxpTveKzqVIVnZ9fojHv0/kTJoCYy027WnNIBulNs/ZzOB11tzffPh2X0fGOd7uXMvDzImgA6Q1G0obj7LEi2FNJnr/NnYeOkdqjd5MH92WKvnCmVciCdoRTMSlq2TqXanTqg8Du9UtsIwQQgghxN1MrlQISL7EG5+bGbWoP+n7hpCxvRUD7Cg24F8DyNg3hIyVTWh525Msv+yYAwSd8aVbl7pFzqZtxYt0LYqNy1dyyBJIp6bOGD29Ck4WUo+x7oe9mAPv5bEZM5kyPBDz4Y0cuFTu1RFCCCGEqDRkUmHDrve34vXCcWbPCCJg2DYaTArlx/Mqb4HkK7zz4m78em3Gtf8uBi+M4Xx2bmxfKFXbb0Az4xxXr5ylR/sNaNpvQDPpDDEAXOONURsYuSWvvv0fb6fqG7F2tp/O3PEbGPB+NPdP/AP/Idto+6+zhFhKuZKpmSRjpHkTR4yOWgyOmryBkZLMgn/vo/GAzVTtu4Oeb10kIjMnpHXQYnDUYtBr0BRTtYqN4ZlpO/Hq9hsOXX+n4eRjrLhgZ/9dF7+KsXVc8ek2j/BSrlq+lSRk91F07XsQ6FyWeDEyNNQePJ4xfRpCahqenp4FwtaLpznn1oKugT4Y9Xqq+FTHTeeIXl/mFRFCCCGEqHRkUmGHq+fgofndiVjfi6VNEpn43gXiAchi9bw/WUQDgrYM4srKFjQNPsKEVRk5BTu3IHHfEDIW1sHVoy7b9w3JObP/WT18b0n7OcKSnVm89B5OrunIkHPhzFiVbl/FEVG07LsFrwnRhBHP9MFb8Oq7Ba/7wtgBQDYbPv6TDzL8WL1qIIk/tqRVaAiTVtpZP7Bn+TG+q+bPoe1DMG3pwfz2FtYHp+RGbfTfdXoXatapS926XmW+Zchyei/7ExvRs71PkRMgW/FieTeiRQ0jkEBiogFPz4IzEl3tJvinhbDjz7PEXQxjx6pdXG07iI4+ZVwRIYQQQohKSJ6psINzC286VwHQ0WuAL7XnpBENeHON4GPZDHmpFvUdAUdPpvZ1puWRZNQoIxqtBidHDeg0gAZHR22ZHv4tvv0cbTr7UFMLOLkwuJ0Tn5y8BvZ8/PZvwJYVdbD+fZaBk5OZtqw1wx0BjUNu3VqGvt6foTcKeDGms4Flp+ysH3A26jBfSSP8vAmXelUYPq0dw29EbfTf9cXcBjA/KNSu9oqkEvhzTxQeXSbmtFPauD1MiSSkedLYq9Dfq9SkRZMqbDq0k980VzFX78PoDn5U6kdPhBBCCCFKSSYVdtA55Dt33TqA6F+u/5JNpjWbX97eRVDubCHbnIlrW8gGHG57+zn0urwLTg5aDVnZCrvodfj66MCsQ48Wdx8DtQp82lWc3B7BU1/HcTr34oEpyUR2TzvrB9o91pYPTdG89VIQoTHZ1Grtx5yXmjGqjoY71X9px/dw2NqKUS1dyhS3S0ICCUZPuuSfa6mrhK79hQjvXoyf0gAXTQphv/3Amn0+PNbDt3RXRIQQQgghKjGZVJSLFr3OgdGv9uKzjmUp74DRAGZL3kdosyUbo9Ot+jhdTmmXePqVOJp92Z2NzXOGSvBH2+l/tRR1OLsy5fn2TAGy09NZ8fY+xi/y4IH3a+JY7v6zg/UiwXsv0aDXYHyLutnPVtxOGYmJZHg2pMATFRf+ZM8Vf0aOaEDOdMWFerXc+f10HBZ8cSp7c0IIIYQQlYo8U1EuVenSQsPWzTFcsIAypfPN2/sYuSqt4GLV9Lhfu8bRS1ZMlmzM1utn+g10bWlgz6ZzhKZmk3bpMl/uyaJ763KcMb+VshSZ2YpMCygg80oCa48U8RS4qyPemmsEHzaTZsnGZMkmSwFYWf1eEA98mcCFdAUOWpydtGh11x/strP/COO9Xg1pOu57Eku5CklHdhPu3InujYu+8cxWvGTZZFmtWK1W4uITMLi742i13rhSpLKzyU67yMmLqWRaM0n9O4Sdh+Oo06ieTCiEEEII8T9FrlSUiwMjXmhP+NvhdOx3hHS9Ey16NGDBkEJfH9S0Lu8NSWDWqN+ZZVY4D+3AtTeqAxp6TGvPf+aGMXTYCZL1Vej1QDs+G1RJ7rh38WP+y4lMfn0HNZSO6vVr8EgTI2TevNycWTFMeGU71VKyUVRjzqp7eLWejoHDarHq3RBafJVBqkZPvcAafP26LzlffmRn/53bxroDqbR/6r6CVwJsMUWx5+A1Wgxrg1tZ4jZkR29i4fpI8r6sajULjoFbx3FM6lEdTb2u3Nt2C3/8+jUHTWBwq0Gjjg8xoFUlmTQKIYQQQtwiGqXUTTfIT9qwga+GDi1q+TsiIfEqXp6uFda+qFyuLL2P2u82ZnvEB3S2exqczeU/vmFVYkcmjWhexGPltuJCCCGEEMJecqVCVHJmdm4PpvW0j0oxoQDQUuOex5lV5rgQQgghhLCXTCpEJefEg98n8GBFpyGEEEIIIYolD2oLIYQQQgghykUmFUIIIYQQQohykUmFEEIIIYQQolwq5aRCvvlJCCGEEEKIu0elnFQIIYQQQggh7h4yqRBCCCGEEEKUi0wqhBBCCCGEEOUikwohhBBCCCFEuVTySUUsi/q6UL1BF8Z9epi0ik5HCCGEEEIIcZNKPqmozpPbr3Bi1WBO/d+zfH2hovMRQgghhBBCFFbJJxUAOtzadiBAn0D8lYrORQghhBBCCFHYXTCpAFLjiTd54OlR0YkIIYQQQgghCrs7JhVJSVzBA3f3ik5ECCGEEEIIUdjdManw9qeR2xlCDydgURWdjBBCCCGEECK/u2NSYRzEi/+uy4ohtXGtYsTY7i1OVHROQgghhBBCCAB0FZ2AXZJX8NKLl5mw42/e6OiOXlPRCQkhhBBCCCGuuzuuVJhSSLH40LCJTCiEEEIIIYSobO6OSYWPHzV1scTGVHQiQgghhBBCiMLugklFFilRp7iMQslD2kIIIYQQQlQ6lXxSEcuivq406L+cqs/OZUpARecjhBBCCCGEKKySP6hdnSe3X+PJik5DCCGEEEIIUaxKfqVCCCGEEEIIUdnJpEIIIYQQQghRLjKpEEIIIYQQQpSLTCqEEEIIIYQQ5SKTCiGEEEIIIUS5yKRCCCGEEEIIUS4yqRBCCCGEEEKUi0w6pQrpAAAgAElEQVQqhBBCCCGEEOUikwohhBBCCCFEucik4lZR51j73CCa1XSn0Qv7KjobIYQQQggh7hhdRSfwv8L625tMWleTpYcuM6ymoaLTEUIIIYQQ4o65q69UbJ6zGU37Dbmvg3xnqbhcrsXFkV67NR1rGtBUXBpCCCGEEELccXf1pGLAvwaQsW8IGSub0LKCc3HxcEebmEBCBechhBBCCCHEnVb5JxXJV3jnxd349dqMa/9dDF4Yw/nsnJDWQYvBUYtBryn26oCKjeGZaTvx6vYbDl1/p+HkY6y4oOyqvzS0Hp64JV/laumLCiGEEEIIcVer5JOKLFbP+5NFNCBoyyCurGxB0+AjTFiVYXcNe5Yf47tq/hzaPgTTlh7Mb29hfXDKLasfAOs1ThyNxOzvT93SlRRCCCGEEOKuV8knFdcIPpbNkPtrUd8RHNw9mdrXmaAjySjbhQFwNuowX0kj/LyJVMcqDJ/WjhWjXG9N/aYVjDAaMVbzpvWbcUx9YyK1y7aiQgghhBBC3LUq+bc/ZZNpzeaXt3cRlPuFStnmTFzbQjbgYEcN7R5ry4emaN56KYjQmGxqtfZjzkvNGFVHU/76DWNYnTEGstI48+VY2j3zEeOOvE5gWVdXCCGEEEKIu1Aln1Ro0escGP1qLz7rWMYqnF2Z8nx7pgDZ6emseHsf4xd58MD7NXG8FfUDODhT3782+qsppJajGiGEEEIIIe5Glfz2p6p0aaFh6+YYLlhAmdL55u19jFyVVnAxV0e8NdcIPmwmzZKNyZJNlgKwsvq9IB74MoEL6QoctDg7adHqrj/YbWf9dkiPiSHF1xff8q+0EEIIIYQQd5VKfqXCgREvtCf87XA69jtCut6JFj0asGCIc8HFXPyYMyuGCa9sp1pKNopqzFl1D6/W0zFwWC1WvRtCi68ySNXoqRdYg69f90VfmvrtodGgST7HyQQLdbwc5X9VCCGEEEKIfwyNUuqmZ5InbdjAV0OHVkQ+d6+MUJZMm8G8zcfQPLqJ6HldKzojIYQQQggh7ohKfqXiLmJsyRPLgniiovMQQgghhBDiDqvkz1QIIYQQQgghKjuZVAghhBBCCCHKRSYVQgghhBBCiHKRSYUQQgghhBCiXCrlpCIh8WpFpyCEEEIIIYSwU6WcVAghhBBCCCHuHjKpEEIIIYQQQpSLTCqEEEIIIYQQ5SKTCiGEEEIIIUS5yKSiUrEQc3gde05XdB5CVIQ7P/4T/9rMzlOpqDLG7abOsfa5QTSr6U6jF/aVo6IsLmz7gkXrIzGVKS6EEELcHjKpsNPloxf4dEcqabergfRQFo9tT4dHvyA09XY1IkTZxOxbxpK1x//nxr/l/CZe7NOS/q9tIa6ImYOtuL2sv73JpHU1eefQZaLmdS17RUlH2B1upFP3phjKEhdCCCFuE5lU2MXK9m/DeOrjC4QXE9/1+X4a3PMbmvYb0PQ4yuZS1R/D948O4UPtS+w5soGZrQrHL/FxTyN+s3aULf3/IUHP1MJtcr7eXTsOnf9LHK24lCq/HbPwrfssZT8/nsLOj59j9kvLibiFaeUpYfxbfmLo62148QIk/PkQTgvnFrMPFsNG+RoPLGD/X8tou2U8w94+irVQcVtxe12LiyO9dms61jSgKWMdYOZE0AHSmvWgjUdZ4sWwJhMdtIrPP/6AD376i/RC4czE4+z85RsWL/yYBZ9+zeqgM7dvcimEEOKuJZMKu+gYN38gaasD6VhUOPkSb3xuZtSi/qTvG0LG9lYMKEXt2fs+4LW9vfnw07HUcyxqCS1aLWi1srlERXBhzE9/k3hsLu1vQ+0ljn8HPY444qQDRwd97u+lYEd5rWdP3lk8hdT5b/JzEf8ix1bcHi4e7mgTE0goW3EAsmMOEHTGl25d6qIrQ7xI16LYuHwlhyyBdGrqjNHTiyr546nhrP8piNSG/Rk/bQaThjXBdPhXdkVnlmNNhBBC/C+ST6k2rH1tY87Vhw4bMTwazcmiFkrNJBkjzZs4YnTUYnDUlKpjI3bsIKHXMAa6FLdEFao4Q7Wq1Qr9/Sxz22vo98x7PNyjNY1q+dFyxHwO5r99JOlPFkzoTuPq1ajq1ZCeU5YRYckLqwvreKZPY7yq6HAweNCwxzRWnLTaFT85tz0N/u8gcJmPemip80wQYOG7B3yYuTO3grhdvPVgW2q5VaFa9aYMeHoVp/Kd7t31pC9eI55jdv+OBNT3o0H3KfwYnbdA1ulVPNGjHm5VXWnY51X+SC7led4S2rcr/4Q9vPNQG/zcXHD1acrg/1vH+Wz787cpMZgPx3encQ1PvGo1Y+CT3xFhzheP383chzvT0NcD7zqtGPr8Gk7fqP4c87saGfrcuzzUsx3NGvrTefwSQq/fTL9lOl5GI8Z7v+Rq3Gf0NRoxGo0Y+ywi9noVyYdZNLkPLep44+UXSL8Z3xGZb3z8+phbTpkqbrh1n8upAsnbaB9QF3/lhUEt8POoirNbDQL7zmLlqYL9U+L4d3DBVeeCqwGqGVzQOlWj2N2kKHaW17V9gHu9d7KzmMs5tuK2aD08cUu+Stn/rWcqIbuPomvfg0DnssSLkaGh9uDxjOnTEFLT8PT0LBCOPbqfS3V6Mbi1H1UdHalaqx3N/TJJTi58PUMIIcQ/nUwqbBj270Fk7BtC8uvVbw5GRNGy7xa8JkQTRjzTB2/Bq+8WvO4LozQ3KsXHx+FW3aeEM7DVcKmmwcW16I9TYZf8+GDnUaJPbmNM3Gs8/sGx3IiZDbOH8UHaOFZHXiEx9HNaBU9h0qIzN8rumTed79xe5lCCBVPsYeb3vsL6zcfsijcIDCQuOhoLEUQ4tcc3OoIUThIV1ZRmzQAyWDd7BIuyprLpdCKXD3xEox0TeOzTswXyvxql5aE1B4k4c5ylbXYzceZS4gFI4cfZE1jv8xoHYxIJ+6o1Zw9cKUXPlty+7fzTWP3UMBbxLEExKVwJX0LT38cyYfF5O/O3nd+G/xvJh6kP89OxC5w/uITOoc8wfn7YjfivL45mcfYk1kVc4sye9/HfNZmpS84VqCU83p+FOw8THraaQdEv8PQXufF+n3ApKYmktY/h6jOFTUlJJCUlkbR5Ojmj2czGFx9kQdoYfgz9m0uH/kvLAzOY9tnZG3Xf+3ksSUlJxCy5t9i1KLZ9YO9HT/GD6wvsu5hC8rlg5t5zhQ1bCt7AVPL4r0nbRp1obASNaysG1GlQukmF3eV9qeFrIi4upZh6bMVLYL3GiaORmP39qVv60gBYTu9lf2Ijerb3KfL2KVvxYnk3okUNI5BAYqIBT8/8MxIrCQnJuHl5ob/xt2SSr1ajVi3Xsq2IEEKI/1l2XyX/p9LqtDkPPOqKeKv2b8CWFXWw/n2WgZOTmbasNcMdAY0D3qVoIzs7G01R9edlQTUXZ1xdin4jbz1wKH46QBfAAwMb88pfoVhpgQ4nhi69zNDrC7r3ZcwAX5aFRQD1AXB2dsYcF0V41AVcAuox/M2VDM9Xd0lxbWAg/tHRnI5N5oLf/fS9FEFklhcnUprR1wfgBMHBafT/4AlaeGjAYzAzRjagTfBh1FP1bnz4ce7cj85VAVzpNfp+ak+OJhrw5iQhIVb6f/w4jatqoOpIxvSewc/5zqSXrOT2becfSXBwJkMWP0p9A2C4h6kj/Wm5+wBqZh078rclmv37rzFg7kzaeGmA7jy/5EdaXKlGNqAlmgMH0uk7dzLN3TXgPpCpw+vT+cAR1My6N9pv3X8QNRwAY0sG9vBhcXgkUBe0OpwMOtA7AA44GgyFHt51YsiSswy5/qtbb0b1rc534ZFAvZxtrHfCoAf0xZ9/KLZ9wLmKM5b4aI6fvIhLk7oMe/17hhUqX/L4D2TWmLdyfvSbzjo/G11a5vIaNJqcXMoWL4JpBSPcH2cTgHMgz/4ykdr2l86jEvhzTxQeXSZSv6iZl624XbkmkpDmSWOv/H/U4erqTGJ0GH+37kFN/TXOBm0j3KUTj9QoYztCCCH+Z8mVivLQ6/D1MVDLU4ceLe4+Bmr5GKjlrcepFNVotVqUKvmrZVxcquHiUvj2pxw6Xd7cUK/XozIzcx8ozeLkqucY0i6Qpk2b0rRpU8Yuu1zgg1G7l1fyYbsI3hrdkdqunjTpN5OV+W7fKTHeIJDAS9FEh0dA4AMEOEcRcSyKqEbNaQ6ACZNJj5NT3gdGJycnMjMyyComf7q/T3TkPHK+H8eCxaLH0TGvvKNjaT412WjfZv6ZZGaa+GVq0xv9d/+Xcbg6acj/0bL4/G3nZy6UX7WAfozsVjd3x7w57uTkSKapYP/p9XnnkR0cHMjKyh8tSRan1vwfD3RpQ6tWrWjVqhUTvosp3QdnG+23eeF73mt7grnjuuNfvSYthzzDLycL3v5kz/i//RRKlfTckq14EQxjWJ2RQca1BI6/XYvPnvmI42XILO34Hg5bW3FPy6KvsdiK2yUhgQSjJ55VCv65VuchdKx6lt++Xc5Pq9ex+bgT3Qe2KuXVIiGEEP8EMqmoBDw8PEmOiaWkE/CNH3yTyZ2MRcbMZnOBn7WOjjmXoFJ+4Omxm2j26UEiIyOJjIxkxcSaBQu7tGHKgrUEn4glNeEQr/usZ/zLq/JyKSmuDSCgTjT7tp7DJzCAgKbpHF9/gtRmzci5M9uAwZCJ2awK5Kc3GnGwq2f06PWZWCx55S0Wuy9T2G7fZv569PqqjF4aeaP/os5dJmH5SDvzz6MsGZhu+qxuwKlQfqmR21i191zupOXmuNlsQW+wt/9sSPmJ5ydsIWDhHkJCQggJCWH5+Ft8CtqlFY/PX8kfoeeJv7iPf3lv4PHX1hQY6/aM/9svlphYJzw9i564246XwMGZ+v610V9NodTflmu9SPDeSzTo0Qnfoo7WtuJ2ykhMJMPTE8/CgSp16Db8UaZMHEBNs4V6A++lhcwohBBCFEEmFTZYLdmYLNmYrQqUwpL7u/UWnlgN7NkTlz/WsanY27WvcCYqjuio00V+peWxdd9y6IoVS8xOvlh9gsBWLXMmFVmZZGZlkWnOQgGZsTtYuycxX8lUVs/swANztnMhNQscnHA26NDqdLm31tiKNyQwMJbff4fAQC1Nmzqza8Mx6jVvnlt/E7p0qcq2ZV8SnpTBtXO/s+SX03Tp2t7O+74b0aaNnq3LlhJ1LQvTudX8uLOIj2UqC4vJhOnGy0KWsqd9W/kH0KWLhq0/rOGCGVT6Kb6Z2p2Ri6Psyv6G5DU8Us+TGt3mFfpK1kZ07lyVrV9/SkhiBukxwXw47WHe3ZmSu2M2olMnZ3Z89zXHkzO4dn4rX609Q6fObUt337y7G25Xowg5k4LJZMKcmTu7yc4ZH9br4yNuF+v35n9mRWE1m/LKKGtuP5vtHP+prHumG6Pe3cnFIsdPDtvj//bLOrqOjbE9uKdL0T1rK25LekwMKb6++JayXNKR3YQ7d6J746L/64SteMmyybJasVqtxMUnYHB3x9FqJSu70MZVKYRt+JWz9QbTr0HRJzaEEEIImVSUKInnH9iIsetG3N6MhegomnXdiLHrDl4Ks13aXrpez/Fqq+3MnraMk0X9G9ysUH6c8xZvL91LUhHhtm0c+bC3Hx7+o9ne8B2+ei73Q7H7I8z/rDP7xjeiRh1/2j+6Bc/WtfKVrMbAxx+jyq+P08JLj96jBbOj+/P1nOG5D2baimsJDHTn6Ak3AutDtYAmXD50kWbNrt+YbeT+D35hhmYxA+t7UqPD00T0/oal0+19XNWFhz9YzvD4OXSs7kHAo3/i1+Gmc6lwej6drn+zkdGI0diWd0/Y076t/KswYuFaJia/QUfvqrjV6c+XljG8PK6xnflfp8O5ihGjs6HQFQYjQ9//mWedVzCyuR+1204iKPBDlj/f4kb8vvd+5AnN59zX1I/63Z4n8p4vWDK1Tumabz2Vt8cm8267Gri7u+M3I/f/fLg9zLufdCT48ebUa9SMbpO24dkq/0MHf/JyoDvu7u74PvEbHHubtu7uuLsH8uqf9jRcjX4THsX42xO0r1WNajXb8eLJvnz+72H5Hvy1Y/zfZllx23lx6mc4znqV0UUML1txu2g0aJLPcTLBYv9/5zZFsefgNVr0bINbWeI2ZEdvYuGCBSxYsIBVIemYjq1mwYIFfLM3Lt9SZs7v/IXd1o7c162GPIQnhBCiWBpVxM3MkzZs4KuhQ4ta/o5ISLyKl+c/7NtF0kL572MPMedwTV78eSfPtrWn0Fnmtq/P3lnX+HVCab5HUohKpkzjv/wu/TyVwU9vxGvScla+2QcvTenidssIZcm0GczbfAzNo5uItvlftbO5/Mc3rErsyKQRzalS6rgQQghxZ8mkolKxknjsdyKd76VbA3uWz5lUBD2ZyoaJVW93ckLcZqUd/+WXeGQrJ7y707VW0bf12IoLIYQQIodMKoQQQgghhBDlIs9UCCGEEEIIIcpFJhVCCCGEEEKIcpFJhRBCCCGEEKJcZFJRhITEqxWdghBCCCGEEHcNmVQIIYQQQgghykUmFUIIIYQQQohykUmFEEIIIYQQolxkUiGEEEIIIYQoF5lUiFKwEHN4HXtOV3QeQghxp918/Ev8azM7T6Vy03+QvUvcsvzVOdY+N4hmNd1p9MK+clSUxYVtX7BofSSmMsWFEBVJJhXCPumhLB7bng6PfkFo6s3hy0cv8OmOVNLufGY57Qct5dNfwius/dvtf339bPmnr7+oYMUc/yznN/Fin5b0f20LcbdxZnG7xv+tyt/625tMWleTdw5dJmpe17JXlHSE3eFGOnVviqEscSFEhZJJxV3Byq7P99Pgnt/QtN+ApsdRNt/R9mP4/tEhfKh9iT1HNjCz1c35bf82jKc+vkB4Wao/eAy3AWEElTm/FLbPn8VTz39dtvbLIzmTD95Lps34RBo9lsSoz82cst7qRipw/SqFsq3/5sluaDSa3NdQvivq1GZiEO893JE6Hs5U9WlM35k/cMJyPXiWue01PFBkwUpk2zTcfJ8sx/5ze2yZ7ovRaMx9jWBFRXXjjln41n2Wm8+fn2N+VyOjbCZW/PGvxgML2P/XMtpuGc+wt49yy3d94Hbu/7cq/2txcaTXbk3HmgY0Zc7GzImgA6Q160Ebj7LEi6k1NpStK79m8cIFLPr8O347EktmvrglNpStK5fy6cIFLFqyjPUHLspVECHKSCYVd4PkS7zxuZlRi/qTvm8IGdtbMeAONp+97wNe29ubDz8dSz3HopbQMW7+QNJWB9LxDuaVx4Vxa66QFjX/DrevWLU4hZ8cjaz6wpPwD6vSMvoak1ff6o8Wt3D9spIICT13l92uUbb1H/BZLBkZGWSEz6FlkUtY2PjCA8y7OobVx2O49Odi2h6Ywpj5x29N2v9w/T45R1JSEkl//ZsWFZ1MOdg6/mk9e/LO4imkzn+Tn2/Lvzi6vce3W5G/i4c72sQEEsqRR3bMAYLO+NKtS110ZYgXKeUYv/5yGNVyKBOnz2B8Hx9idm4nNCU3nh7Bb6sOYAm8j8efnMWkYf6kBm/hcHw5VkSIfzCZVNwNUjNJxkjzJo4YHbUYHDV5G+5KIm/93x5q9dpEtQG7GDD/Mqey8oruen8rXi8cZ/aMIAKGbaPBpFB+PF+6j5QRO3aQ0GsYA11ujq19bWPO1ZMOGzE8Gs3JAtF05o7fwID3o7l/4h/4D9lG23+dJeT6meB9oVRtvwHNjHNcvXKWHu035NQ16Qwxdua2dpwh50y01oChw1uF2r/drByM0DDsPicaGsDRXc+Mfjoijlsp8N4cv4qxdVzx6Tav1Gcab9n6ZcZxYPm/GNG6BaO+PWX3pEJdWMczfRrjVUWHg8GDhj2mseLk9UlTzpn8fs+8x8M9WtOolh8tR8znYP7b4xL28M5DbfBzc8HVpymD/28d57Pzx/fy/sMdqevhTFVvf3o/sYzj5lKsf9KfLJjQncbVq1HVqyE9pywjInd8aXVOGAwGDI66Ys6enmT//iT6Pv4U7X2r4Vq3L//33lv08zOTP0Xz0U+4L9Cbai6+tH34U0Lyn8YsoX2AXU/64jXiOWb370hAfT8adJ/Cj9FWu8uX2D+bJ1NVo0HTfwlXY/9Lj+tXZbp/nLf/2Oh/W/mVvP1LZrv/gcS9vD+2Mw18faheuxX3/+tXLtzIL+dKwtDn3uWhnu1o1tCfzuOXEJqv/7NO/cyM3o3x9fKhSZ8XeWNiQ/xm7cgJbpmOl9GI8d4vuRr3GX2vXzXps4jYfCmYQxbzYJtaePvUval+KPn4d52u7QPc672TnUU9TnAH9v+fxxjpOv9UsfXYipeYvx20Hp64JV+l7HOqVEJ2H0XXvgeBzmWJF810JZ1qHfvTp6k3Rr0e1wb18dGYseReqkiLOsZZ3870a+6NQavFWMOfWs4mzOaS6xVCFE0mFZVZRBQt+27Ba0I0YcQzffAWvPpuweu+MHLeNrNY9/EhFmXVYdP6AVz+JpBGfx7lsZ/TC1Rz9Rw8NL87Eet7sbRJIhPfu0BpTsTEx8fhVt2Hoi5SDPv3IDL2DSH59erFlg9Ldmbx0ns4uaYjQ86FM2NVbn6dW5C4bwgZC+vg6lGX7fuGkLFvCBmf1cPXztyGfX2VjIwMkpfeV4o1uu4gLzQ05rtFI/c1aoWdtwEoTJkaDI5w+k8Tq04qnPQaMCsKvCfpXahZpy5163pRpZQZlm/9ANMFdn32HINadGD6Bi0jlv5F+Lw+du/4e+ZN5zu3lzmUYMEUe5j5va+wfvOxAsuEXfLjg51HiT65jTFxr/H4B9fjaax+ahiLeJagmBSuhC+h6e9jmbD4fG48g/XP3c+8lLGsPhFP3NGldA2Zyei5efWXvP5mNswexgdp41gdeYXE0M9pFTyFSYvO2Ll2FiwWDXq9w42/ePd9lvcntCnQP0cijbyzP5ak6G/pdPRpZiw+W6r2r0ZpeWjNQSLOHGdpm91MnLk0d/+zVd5G/wz4jMSMDDI2Tsa1+jS2Z2TkXJnZMSt3/7HV/7bys2/7l10a654byWJmseNsHH8fWUTjbROZ/PmFAkuFx/uzcOdhwsNWMyj6BZ7+4lxuJJWfXprK5lpvEHz+MqHLe5EclphXsN8nXEpKImntY7j6TGFTUlLOlZPN08l/tDoaZeA/f5zncthSOoY+n6/+HCUd//L4UsPXRFxcys2hitz/7VZC/rZYr3HiaCRmf3/qlrF1y+m97E9sRM/2PkVOQG3Fi2Oo14mB7WvduLKREhbKOY8mNPLM+T0uNg636tVRMcc5euYqyppEUqobbm5lXBEh/uHsvoooKoB/A7asqIP177MMnJzMtGWtGe4IaBzwBiCN4NAs+j9blxYugIsPM/pWoU3oVdTDVW4cfJ1beNO5CoCOXgN8qT0njWjIrcO27OxsNLqiD+VanTbngbli4gBtOvtQUws4uTC4nROfnLwGVAGtBidHTW5ZDY6O2lI/fKfVO2HQA/qyzI87Mu9UBvPKULKgbPb/ns6SBjoGFzUbchvA/KDQMtVcvvUL5+0eg/i1xdO8siaUoQGupb7f2dnZGXNcFOFRF3AJqMfwN1cyvNAyrQcOxU8H6AJ4YGBjXvkrFCst0BFJcHAmQxY/Sn0DYLiHqSP9abn7AGpmHTScYN++VAZ98DTtvDVAT15aupqWidXIJueMR8nr78TQpZcZev1X976MGeDLsrAIoH4p17R4bYaPp4WLFlz6M3agDz+ERQD17G7fuXM/OlcFcKXX6PupPTk6d/+zVd5G/2h1OBl0oHcAHHA0GArtP7b631Z+9m3/soti/4FMBi18hHoGwNCDScMb0iHoT9S02jfya91/EDUcAGNLBvbwYXF4JFAXOMeJExa6v/kw9atoocpgRvRw5efrZwRs9k9u/cPG0txFCy59Gd3fm59u1J+jpONfHg0aTc6yN7ld+/+JubRr/R9u3Ky3tjnG1wDncaxL+IIBtuL25l8c0wpGuD/OJgDnQJ79ZSK1S7d6OVQCf+6JwqPLROoXNXOzFbevEa6d2sYv+7Lo+lAnvABIJTHRglc9DxKjf2P/lU40qXKFBEcv2lYtaztC/LPJpKIy0+vw9dGBWYceLe4+BmoVOKhmYbJocNLn/cXJUUumOZss8jauziHfG2LrAKJ/KV0aWq0Wpcp+F75el/eG6KDVkJV9d93Rb5uWsa96MBZI21HRueTnQsOWXlz8YyObWjUjsPZgGpbyzbLdyyv5MP0/vDW6I6HnMqnVfQxzFi9gVKO8Q4dOl/ezXq9HZWZiBXRkkplp4pepTQnKPUWbnXEV13s0ZAMOmDCZ9Dg55Y3PaoEDGG13dlmcXPUCT727mdNpOR+GTPGXyb6vFB+M7ODk5HTjZ71eT1bW9fsL7Ws/f//Q/X2iI+3Nv7z9Y6v/beVn3/Yvu0ysmSbWzmzFvnz5ufQomJ9en3eAc3BwyNf/t0aB7avT31S/fcc/hVI5y94xTV7icMZLQM7tTR+1C2Pf8w3tjxdQhvwNY1idMQay0jjz5VjaPfMR4468TmApVyPt+B4OW1sxqmXR95fZituWSXzIRtYeVHQaOYKWntdHViIJie54eenwa/IY04DM8DVc9aqDZxlbEuKfTm5/uqs5YHBUmPN9lYXZko3eSYtD8YVKzcPDk+SYWCy2F73LlPf2Jw0GvcKUr2PMmQr0Ghu3StwptXn4q8OErZ2F3+H/0CugE4++9TOhSaX4UObShikL1hJ8IpbUhEO87rOe8S+vKjAWzPluQDabzWgdHXMntHr0+qqMXhpJZGTOK+rcZRKWj8wdnwYMhkzM5rwPbKkRW/hpz1nsmhak/MDTYzfR7NODN+pfMbGm/euGI46OCoslb2vHb/+IF5YduTPt2yxfzv6x2f92sGP7AyhLBqZSz+X06PRVGbkkhJCQnNexqLNc+mq4nfnVIzDAiT0rv+Nkaibp539jTVAR33ddTvYd/2KJifyMzysAACAASURBVHXC07PaLW//zihH/g7O1Pevjf5qCqXufetFgvdeokGPTvgW9WnEVtymdM7uXsmaY670H3s/Lb3yTYbTkki2FLzVKSYmFmef6pTisQ0hRD4yqbirOdOlpQPbNpwnPCWLa5fjWbIjnS6t3MrxtX43C+zZE5c/1rGpiNttrZZsTJZszFYFSmHJ/d1amosR1fS4X7vG0UvWvLrsorCaTZhMJsyZ2aCsWEwmTCazne3n3P6UkVHotXKMnZfwdHQMUKz/1cxpE2QmZfLpNisNm+goeEtuGO/1akjTcd+TWExNt2f9ALS4NR/OK8v3E7HzDdpc+C/DZq3CvmlFKqtnduCBOdu5kJoFDk44G3RodQUfvD227lsOXbFiidnJF6tPENiqZW7/BdCli4atP6zhghlU+im+mdqdkYujcks2oWvXavz+xSccScgg/fJe3p80gjnbU3IPTDbWPyuTzKwsMs1ZKCAzdgdr9xTRw57eeGsiCP4jhjSTCZPJQpYC8KdzZ3d2fL2QQzGppJzbzvsvvsq2i072HRjtbb/M5W31Ty53d9yTT3D0dEpeX9nV/7bYt/1JXsMj9Typ0W0eEUVV4+mFlyaSA3tiC/V/Ezp30rD9p/VcNINKP823M/sw5vNoO/OrykNzv+K++Ln0bFiHdpP24hZYxM3w7m64XY0i5Ezh/rFPSce/67KOrmNjbA/u6VLUkff27/9VfOpQ00VfdDV2xEvO37b0mBhSfH3tfhbuuqQjuwl37kT3xkXf+GorXqKsK4T9uoJtiQHcP7I7tZyysFqtuWMP0Dnh6BDPmZMpWJWVlLNB7Ikw0LJ5aU5MCCEKUEV4/Ndfi/rzHROfkPyPbv8m56NVq3YH1LfmImKJCerNF3Yrv3s2qqr9dqp+8/5WJ6154Z3vbVGeb8eXr/3sM2rxwOqq4ZhvVHRG/sAV9fTgXxXtCr+2qtmhSimVpt4d96u6/7esGyWCP9qmnP8dU6j+dPXTnD3Kp+sGRbtfb44XK1g97YeCwi8/NTu4PCtcCkkWNX9ukmr9SIKqO+6Kuv/TDHXCUmiZsx+pLgZv9cgvV0tZ+e1Zv4z0dLuXvXbov2pMhzrK1VGjtAZ31aD7FLUi6voAO6PebYca/K//qjEtfZSzs7dqPnyeOpCSr4L4XerN4S2VbzVn5eJZX3WbsEgdKhDfo94b3UHVdjOqKh4NVM/JS9WxG2PM1vqbVMjn41WHOt6qeu2GquWAF9V7U5oo5wmFj19pKvj9e1VjdyelAQXN1JyI3FDCHjV3VHtV282onD39Va8nlqvjpuvlctbv/m/zBn3w7Lr56rfd/s6Z1ZXnE1uL6V078i+xf3Jln1M/TW6vfIxaBRQqX3L/l5yfre2fK2m9mtzQQ9Xou1CdKLKWNHXgw+Gqha+rMhoMymBoq96NzA0l7FbvjOqg6np7Kp+aTVXvyYvVXzfyO6vmdTGoh37IW+EDLzZWnpN/KzbfP56po2o+ub1Q/5xXq6Z3VbXdqyiDwZCvvJ31Zxd3/Mthjd2mZnfwVm1f2a9MN4cr3f5fmM387ZD2/UhlDHhSbYs3q2x7C2WcUOsWLVHbz2eWLW7L6c1qwfz5an6B1wdqXcT1+qwqIfx39cPni9SCjz9RS75dr/adSbE/fyHETWRSUQnbr5SuhahFDzVW1Rv0Uh8eruhk7i6JXw1VVfyfU8FlfG+svHI+dA/95lpFJyL+sbJVpilDZWRkqPSk42pen2qq7ZywW99MMce/iyunqBY1/FTvV7er+GI+jVbm/d+e/O2SHqI+e7Sbaujjovyf32tHgSz1966v1MJfjqm0MsWFEJWRPKgt7OPckpkrw3n42O9Eyg2npWBm5/ZgWk/7iM7/o3ubKsdD/EKUTzAvNO7LZ3GgcXKjYbdnWTij2a1vppjjn8H/IT47uICutYzFFKzc+7/t/O1kbMkTy4J4wu4CWmrc8zizyhwXQlRGGlXEJ4JJGzbw1dChRS1/RyQkXsXL0/Uf276wz4IFC0qMP/3003cok9vjf339hBDFk/1fCHG3kUlFJWxfCCGEEEKIu4l8+5MQQgghhBCiXGRSIYQQQgghhCgXmVRUQgmJVys6BSGEEEIIIewmkwohhBBCCCFEucikQgghhBBCCFEuMqkQ/9/efUdHVa1tAH8mmUkmhfQGARJCSwKEFnoCCNIRBCmCIFyKBRHkIuL1ehU7KhYURSwoiqJIhw8VEkoChCJCAiGF3iQhldTp+/sjPZnkTDLgTPT5rcVazLzn7P2etnPeOefMEBERERGZhUUFERERERGZhUUFWREN0k5uR+wlS+dBjRP3n783bl+i2tX/+Mj641fsv5iPGj9W9hfFTSauYtu/h6NDM3e0XXLEjIb0uB71BVbtSIaqQXGSwqKCTHLr9HV8ui8fhfeqg6IErJ4ajh6PfoGE/HvVCVlK2pF1WLPt3N92/7l1aC0+3Zx475bvn87Kxwduf7IoieOjtv1Tc+0XLB0UhiH/24PbRs7873XcVLr/exWztzfDm7/fQuq7fRveUM4pxCQ6oFdEMJQNiZM0YcSsnTuNvf2XycjMZf9WRSu++/duYftAojhWS3z/mjjRqv8uge47BSJOiV/q1f4tsf4hf9Hmke/FZfXdyLfxil3oL1xn12/t3XPR84Vvy2fE4QY3cEf8MNFDOLVfKk7cxbQq1LH/ZMeJ96b0EgHujsLRs5WImPmZOFVQbZq9jwtX36dEbIP7vyO+G+sobAMX13J8WCuD2DnLUyiVSqFUKoXzpB/FvTj8ipN/Fs+O6SYCvd2Fd2APMfnDo+JOzYnEd08PER2auQsnpVI4jP1GVGwmax8fGrb9f5ntKgCU/hslvis2MlFmrFg+uYdo4e4onLzbikHzvhfJ5evgsnirO8RYozNaEbOPL0u5It7toxQTf7jH67dwo5joqhTK8DdEqrG45PgrdXzUvX/qMw+KJT19RK/XTgmtBeKmyPlqtFAOWCn+bOD8JVQieccqsWbvlVrykIrX0mpavNjz01rx6coPxcdrvhO7/kgTmsoTaHNEauzPYs0HK8SKH0+KQnMWoRHglQoygRzTVgxD4ZZQ9DQWzr2JZZ+rMWnVEBQdGYni6M4YWo/WDUfew/8O34f3P52KQLu7lDJZERdM+elPZJ1ZjvB70Hrt+48BUf8Zi7dyH8aW5AxkJHyL+84/i4dePXGXM3DBtK3ZKExdYfz4sFoyjPjsBnJysrB+ogOCQkJw1w+/4gNYMurfuHD/pzh84Qr++CISyS8swbfXq052e/2/MS+mI1bGXcLtnBzk/DwdTqUx6x8fGrb9h36WjuLiYhQnvoYwo1NosHvJg3j3zhRsOZeGmydWo9uxuZiy4tzdSZusgi4mCgeDe6DH+b3Ym1b/+aWPj7r3TxvP/nhz9Vzkr3gVPxv5iax7HTeFi4c7bLIykdmw2QEAhrRjOHTZD/36BEDegLhReWewc/NJiLDRmPnkPEwf5IO0/dFIyCuNF6Ri97cb8bsmFL2CneDg6QVHM5ahMWBRQXXa9r/dkIXvgqzHbigfPY8LxibK1yIXDujY3g4OdjZQ2snqtWMl7duHzIFjMMyleuQKlofLcP8zb+PhyC5o29wfYeNX4Hjly7s5J7ByRgTa+TaBs1dr9J+7DkmairC4vh3PDGoHL0c5bJUeaB35BDZc0JkUv7A8HEHPHQdwCx9E2qDlM4cAaLD+QR88tb+0gdsH8PpD3dDczRFNfIMxdOEmXKxoHgfm+8Fr/L+xeEhPhLTyR1DEXPx4vmIC/aVNeDwyEG7Ormg96EUczJXVY80ByIrD+9Mj0K6pJ7yad8Cw+euRpK4Uz4jB8od7o7WfB7xbdsboZ7fiUnn3V7GirwNG//stTOzfHR1at0Hv6WuQUHYz6Z4n4eXgAIdRX+LO7c8w2MEBDg4OcBi0CullTeSexKo5g9CppTe8/ENx/7z1SK60/nf+y61kHkc3uEUsx8UqyUv0D0Dc2IklwzvB38MZTm5NETr4aWysvIJR1/6Tg5SU2+j64KPo5uMIx2YReO7zn/HKcA/oAeDXOXCWySAbsgZ30j9BpEwGmUwGWcSHKPvbLrX9tk1Tlsxjo4Syx+vVjo+S/Xfo069hbO+OaNO8Bbo9/CniKy2f/sKPmNsvAG7OLgiMWIwXH2kOryeijGxo42L/HYiARTGVGjyJpaF+mL617K93LuI+eAS9W/nCq1kXPLrqvxjucD/WZJREbRVKKJVpuJCqRkhouxrtq36aDKceb+J82Ru5X2G4w0B8cqt8CiT9+CxGdwmEn28ztI2cg+8q7YDqqHX4wf5RvPJ0LzRzcUHzgX3QThSjSAUAiXgrwh/+/v4IW3IAuivf49E+HdC2dQgWR1XcK1H79pU6vk0YPzJj8ebErvB3c4GrTzBGPLcd1wyV44fxzsM9EeDhBGfvNrjv8XU4V+n4qnv7o87xyUZuD6VSCaWdHMaP+gs4ejQHg2ctQLhfE7gGDMZzb7+O+/3VqJyi+vTHeCDUG01c/GrsX1Ljo9T+LTV/nevHhONLav1L5Sc1vkuSGj8BqONX46GuzeHtE1BjfJIa/2IWBcB/8nNYOioCXYKDEDJoHn6ult/x6Gg4RSzAxK6/Izqq0lm3KeMv6j4+JPfPUvJuD2KU937sr+VxhXsdl2Lj4Qm33Dto+M8C5yM+5jTk4ZEIdWpI3DhVdhGa9ByCQcHecFAo4BrUCj4yNTTa0gmKZWgxYjqmDGoN5BfC09OzwUvQaBi7fMHbn/7Z/Vem1+pFsVovcrcfF5iSKs5XDp5LEZ0G/SY879stbLvvEs6DfhOeg34TnqPPiOh69LF/QXPRYuEBI5GSy/u+E74TN7RCiOJz4s1+StHh5YTSuErs/JefaPHQanEmWyNUN6PE/A4K0ee9S+UtHHy6qfAct1ZcLtQLTe4lseV/E8XDH/9hUly/fbpwenC9UItoMXdwD9Fj5OfijkgU/wuJFJ+kCyFEkdg2zV34jl0tErKKRP7l3WJeR0cRufJyxbI95SvkHRaLuHwhhMgV++e3E/ZD1ojbQggh7oj1DzoKv/FfipR8rSi69LOYE+xYj9ufisTOWc2E/9iPxR8ZhaLwZqx4KdJTdH/9THl8x7/8RMuJn4sz2UUi/8qvYmF3DzF41ZXSeMnl/cBpG8WfOiFEUbx4uVcTMfCj0rheK1TFxaL41yeFb8unxf7iYlFcXCyK1bry9f9/jwWINg9/Ls7maITqz31iUbcmYkCl5ddrVKK4uFjkrntIKHu+JS5UyV+ifyFE7L8DRbNJ68SVQr3Q5F4W21+ZKqZ/erpKK7XvP0JcWBkpnJsPEf/bcFRcKzBUDZYt3+45wtX3CRFdY/mktl+l5Vv7gEDn16oeH6X7b9PJG8RNnRCi6LT4b1eF6Pt+2frJE9+OUYpmk78VFwt1QnVtl5jX0V54Pr7X6LIYk/XFSKEc9pnILn2dvWGi8O72ijhbuqh3dswUTQMniq/O5Ait+qb4eV4n4dn0KVFlbel3ikfdOohl8TXbj385TLhO2yLK18jhZ0VL3yfKj++8Xx4XAYETxTfJ+cKgzxExizsL1wfXiZyy+Zd1Fi5TN1XcTnDuDdGlycNii0YIIVQi588b4saN4+KlnkoxfGWyuHHjhrhx45bIrXQbR13bt+7jW2r8KBCbp7iJphPWiUvFQuhuHxDPhDmKgauulsaLxPbpnsJrxAfi99uFovDGQfFCLyfRcVlCef91b3/p8UkIIcT5t0Rno7c/nRJLW9uKR7YaXfSK5Rv1sUi4oxfatD3iifbySvuXdP91799S80usH8njS2r9Sx9/UuN73aTGz5LxqeW4T8WZO3qhTY8ST4c5VxqfpMe/g8+0FM7dlopjpfkfXNRJuI76UmSUT3FOvNLFVUzfWixOv9RJeM3YXnHrjOT4W7qO6jg+6t4/K7su3o9QirHf1Lgx8S+K10GbL5JXDheeAz8S1+o/txBCCPXFX8Snn+4Wl2q5fVIqbqo78ZvEx98crrR9y9wQ0atXib1Xjcz0N2PyVR76Z7KR25Q8sCQ38llamyDs2dASuj+vYNicXDyxrgvG2QGQ2cK7Hn0YDAbIjLVfqsuw0fCXA5CH4MFh7fDfPxKgQyfIYY/Ra29hdNmE7oMxZagf1p1NAtAKAODk5AT17VQkpl6HS0ggxr26EeMqtV1X3CY0FG3On8el9Fxc9x+LwTeTkKz3QkpeBwz2AYAUxMUVYsh7j6OThwzwGIF5E4LQNe4kxILA8k8fnXrfj97OAOCKgZPHosWc8zgPwBsXEB+vw5APZ6GdswxwnoAp983Dz5U/CazTeRw9WoChy59CVy8ZgAg8u+ZHdMpuAgMAG5zHsWNFGLx8Djq6ywD3YXhsXCv0PnYK4qmA8vy6DBmOprYAHMIwLNIHqxOTAQQANnLYK+WAwhaALeyUymoPr9lj5JorGFn20u0+TBrsi/WJyQACS9ahwh5KBQBF7deuau0fgJOjEzQZ53Huwg24tA/AmJe+x5hq89e1/7ResAsxbm/gzQ8nIXS2Hl2mvYrPPpyFDg4wYflK1L79TFu+rsNGoZktAIfOGDHAFx+fTSpdP1eQnKxB/zcfQZCjDeA4ChMHuOGnenzQ6hEaCp+kZCQB6CuS8cmKGAx+/nN0kAGAGnt/3Aa/WbGY1dENgBv6d2qKwqRgBFdu5FISkjQhGFXjQoUGSUmX0LZzMGxL38lNSsLt4KEIAQAUY/fXP8Jz9mHMaO8MAOjbOxTqY1koAOAGDZLOXUT7Lh3KbyfQnEvEhTahCFEAgD3cmvrDDclIv9oUYb3aw9+/5jLWtX2ljm+grvEjGXFxWoxc/ShaKQEoB+CxCW0QFnMM4qmWkCEFR47kY/h7C9HdWwagP55fuwVhWWXHl9T2lx6f7oau46ajk4sN4DIEU4f54Ify/cu0/mvfv6Xml1g/kseX1PqXys+07V87qfGzRJcxU9HRxQZwGYzJQ7zxU/n4JD3+AYBTz0HoWZp//wmj0fzJC7gAwAsAbkYjKqUnpkco0cmxH2zXRuGoGINIGUwen+o6PkwZn0rIIJOVtGWZuBGqDRjvPgu/AIBTKBZtnokWps9dQWTiRGwqPPrMRCtjt4dJxU3rBAUXo7D5iB59J/Yq2baVqbKQWeiJdjUCfz8sKqjhFHL4+cgBtRwK2MDdR4nmDTgobWxsIETtXw0hl1fspgqFAkKrhQ6AHHpc2LQEC976FZcKSwYrVcYtGB6oGLi6/2cj3i96Ba9P7omEq1o0j5iC11avxKS2cul4UChCb/6E84mZQOiTCMldiqQzvkht2xEdS3qDSqWAvX3FgG5vbw9tcTH0qDi4KuePiHdwPrnshQYajQJ2dhXz29nZASYXFSqoq/XfJOR+TKgjbm9vB62qan4KhaI8bmtrC71eb2L/elzc+h8sfmcvLheVrf80GEbV4w+HRP9dl3yPt4vfwPJpETh7TQv/vpPx8kcr8FCbinVa9/7jgq6Pvo2fH30bmpvReH3qJIx6vg3Or+wPRS1zVFf79jNNw9evCUJD0eH2RiTnAmGH3sVq3eP45SG30mAq4hMMCJtcUUJcunQJbsHt4VupCX3SOaQGhSCkxhnLeSQlyxD8cJvyd84lJ8E1ZAGaAgBSEJ+gxY3fp6DzzyX7mFDnwaf/ZPiVxhPP2SD0kYr5k88mwiZkPNpU6gVpKUi5E4xH2xtfxLq2r9TxDdQ1fmih1aqw+bFgHCq90dlQfAeuA2QwALA1cnw3CR2KycbTNEJ6fLob7O3ty/+vUCgq7V+m9V/7/i01v7nrR2r9S+Vn2vavndT4WaLK+pVXXb+mjH+2lfPv+ybOxle8zN27F38ER+JzL8CmTyT65LyGvfFAZBcT0i8l9ffTNAJClLRlmbgRyinYUjwF0Bfi8pdT0f2ZDzDt1EsINb0FAEDhuVic1HXGpDAj94eZEJemRUb8bmw7LtBrwniEedrWnCQzE5kOnujzd3+gAnymgqyAh4cnctPSaz2XVqvVVf5vY2dXckKc9wMWTv0FHT49juTkZCQnJ2PDzGZVZ3bpirkrtyEuJR35mb/jJZ8dmP6fTRV91RW3CUFIy/M4svcqfEJDEBJchHM7UpDfoQNK7oxUQqnUQq0WVfJTODjAyLBihAIKhRYaTcX8Go3xtSA0xVDVOBdRwr5a//nJUdh0+GrpPdc142q1BgqlqflJyPsJz87Yg5CPYhEfH4/4+Hh8O73p3Wi5gktnzFqxEQcTriHjxhG84L0Ls/63tcq+Uuv+Y0jG9ve+wdHskpd2/oOxbMFQ3DgYg6t3N8sGaoUOHexx8Md1OJ+vRdHVndgUk2d0SuPbH4BbKEKbJiM56Sq+enc3+j2/EGFlo7rhIi5cbomgVmUnNdmIT7iJ9sFVrlPg4rkk6EJCUPOJiiu4cqU5goLKiqJMnD59C2FhpY8Viyu4cq0Dnv0toXz7JyRfxtXPx5Ycn4aLuHC5FdqWF4AFiI+/iA5du1T9NCs5BSl+IQhxg1F1jg9SxzfqGD+ggELhjMlrk8vHj9Srt5D57YTS46Pm8Z2ftAc/xV6BSWWBKeNTnexgZyeg0VRcusqI/gBL1p36a/qXnN/M9SO5/k1gwvYHGjp+SjB7/FNjX9QhGC6uxEA/P/i1XYQDuIKoqIvSs1Yi9ffTNOlIS7eHp2cTC8XrYOuEVm1aQHEnD/X+NmndDcQdvomgyF7wM3a2KxWXVIQrMRux9YwrhkwdizAv48VscVYWij098Q94ooJFBdVNpzFApTFArROAENCUvtaZ/Ws2FUL794fLwe34xfj5FM5s/w6/Z+ugSduPL7akILRzWMlJgV4LrV4PrVoPAUCbvg/bYrMqzZmPLU/1wIOvReN6vh6wtYeTUg4bedmDkVLx1ggNTcdvvwGhoTYIDnbCgV1nENixY2n77dGnjzOi1n2JxJxiFFz9DWs2X0KfvuG1PHhZXVt07arA3nVrkVqgh+rqFvy438iwmbsVjwR6omm/d5FUbf7evZ2x9+tPEZ9VjKK0OLz/xMN4a39e6YHdFr16OWHf+q9xLrcYBdf24qttl9GrdzcT8yvl7ga3O6mIv5wHlUoFtbb0T66hZP3rytb/7QPYcTi70owCOrWqYh6hg0algkqlNnH/ycf2Z/ph0lv7ccPo9ilR6/5jA5z5bh4ef2kbUnJUKEo7jg+/ioZb165oWWX53OGem4LTl6otnyRzl88ZD6/4FmNvv47e/j7o+Ggs3Du615ys1u0PACEI7ZCOxC+W4YPsWXhhokel9GwhV6ThVNwlqPSFuLjzDaw95ojg9s2rtJCRcRtKfQFu55csi0pb9kmsK1xd0vF7bDIKNHlI2fgfrEocgX89VHIdAjI3uLukITEhDToYcOfMF5gzaBZ+uFk6u8wRTo63cOJAInLyc5C8/b/4MK43Zk5oXbX/lBTkBLevektWJbWPD1LHb4laxw+EoE8fGfb+sBXX1YAouohvHovAhNWppXO2R9++TfDbFx/jVGYxim4dxjuzx+O16LLjS2L7S45PpTy94S1LQtzBNBSqVFCpNNALAGiD3r3dse/rj/B7Wj7yrkbjnaUvIuqGvWl/uE3tv8HzS62fUrUeX1LrX4pp27/h46cEyfFPav4jiNpvi6k/3ERaWhrS0tJx5IWOOB0VhSpbqbbxt1Ttx4fp45P+9HbsTo/EgD7G/zLc67iUorQ05Pn5lV4BNV3OqRgkOvVCRDvjvzohFa+TPhtnd25AVFYIxk6IQHN7PXQ6XemxCwAG6HU66HQ63M7IhNLdHXY6HfSGu3jyZI2MPWjBB7X/2f1XyBYLR+ws+e2JKv/2isUJlSa7dl507n5MfNfQh5wMl8XqYb6i9ZRvxPkqDyuWPIg44oVPxJQwH+Hk5C06jntXHMsri6tE/OfTRY+W3sK3RWsRNnSpeHtue+E0o2L/Lfj9EzGlR0vhaicTNkp3ERQxV2xI1ZkcP/dqZyFznCZ26IUQcYtFC5mfWBBTKcX0/eLV8V2Fv6uDcPZuL+5fsFFcqPQl1/uf8q3zwVv9pc3iycgA4eroIgL7Py+WTTfyOxU5O8Sc1h6i6eCPREr1BjIPi/em9RNt/NyFR9MQcf+T68TZyuvw9kHx5uReIsjXXXg1DxMjF28WF8vzq/k97MeWthOec/6vah+Ga2LTk31FC3dHoVQqK8VVIuGrWaJf2+aiZZtQ0WP0f8V788IqxY+JZ4OU5b+DUPEvSCw9Zlr/BX98Jh7t11b4ujgIRzc/ETJonth4vuqDisJQ2/4jhDr1Z7FoRCfRzFUpHD0CRe9H3hdx2aLa/FfFT3PChY+DjQBQZf+pe/vFiYX+Zb8zUPmfv1gcJ4Sx3xGIWxxQpf3qjPZX1/YXQsQtaSMcHDzF+O+qPx6oEqdXTRSdm3oIr8De4l8rnxNDlH3EB1eqTfXHh2JUsI9wLt0+Lo9sLn8w+9rOZ8XQkKbC3c1XtB84R6w+WXVsurbzWTE0tJnw9mkm2vaaKF7ecbnSd7zrxcVNT4tBwX7C3aOpCB4wU3x4qOYjjDGLAkTAopga75cz1L596z5+pcYPIUTGAfHquDDh18RJuHi2Ev1mrBK/V4nHircn9xAt3ByEo0eQ6D9nrThTnoPU9pcen0oUirh3Rol27vZCBgigg3gtqTSUGSuWTwoXLdwchJNnGzHw8W/FOVXZfFL7l3T/de/fJuRf5/opVcfxJbX+pcZPqfFbCGHG+Ck1PkmNfyUPajebX8vXlvz+gmjnMUVsLar0Xvwy0cFlothY+bd0ah1/y+K1HR9S+2cJXXqUWNzDW3T771GhEjXd67gpCr+fIBxC5ouoDLUwSE9eojhFbF+1RkRfq+VXJ6TiUi79KlauWCFWVPn3ntieVNKePnWXeL9GfIX4MiatYf01Eiwq2L91KIgXqya2E75BA8X7J8veLPmjOfqbkswu8QAAG15JREFU6r9WRlSN0f2nMTAIrarkW12KchLFWxEK0eHlM9KzNXoGoVUXi7zru8UTIX7isV8kfmCsQduX4wf9QzRw/Luxca7o1NRf3PditMgwcrZ+r+MmK4oXnz3aT7T2cRFtnjXlZ1j14s8DX4mPNp+p5cfmpOLUUDIhaj7hM3vXLnw1enT1t/8ymVl34OXpyv7/cXTIOvMbkp1GoV8QUPI9861waH4+ds10tnRyZPWq7z+NwSHM94vEJ+mAzN4dbSKfxOof38Dgv/3Nt7FY0GI41iMYg576AF883x9Gbvyqpr7bl+MH/ZPUf/zLOrUXKd4R6NvcwSJx+vthUcH+iYiI6G9k5cqVdcYXLlz4F2VC/yT8SlkiIiKivxEWDWQJ/PYnIiIiIiIyC4sKIiIiIiIyC4sKqiEz646lUyAiIiKiRoRFBRERERERmYVFBRERERERmYVFBRERERERmYVFBRERERERmYVFBRH9g+hxPeoLrNqRDFWD4kRERGQMiwoi+ufIOYWYRAf0igiGsiFxIiIiMoq/qE1/f8fPwO1FGXbt6YgIS+dCVeVq8d6aQqw/q0eB3AZd+zjirVn2aH1PRiY1Ug4dQ2GH0ejq0ZB4La2mJyDm4ElcSMuDXumJVj2GYGhXXyhMjBMREf0d8EoFEVmIwKbVefjJzgGbvvBE4vvOCDtfgDlbdPekN0PaMRy67Id+fQKMfpoiFTcq7wx2bj4JETYaM5+ch+mDfJC2PxoJeSbGiYiI/iZYVJBVO/DOXngtOYfF8w4hZEwUgmYn4MdromKC3Gy8uTQG/gN/heuQAxjxURquGUpjRxLgHL4LsnlXcSf7CiLDd0EWvguy2ZeRBgAowLJJuzBhT0V7Rz+MhvOydBP7L8Ly6bsw9J3zGDvzINqMjEK3F64gXmP68onr2/HMoHbwcpTDVumB1pFPYMOFSifVOSewckYE2vk2gbNXa/Sfuw5JZe0ffRbN243BwhmRaB86HW+99wyGdQlE7xdjUVQ2f2Ys3pzYFf5uLnD1CcaI57ZXrB+L0+F4kgxjHrBHayVg567AvPvlSDqnQ5WfX8zYhKktXeHT710kNrivfMTHnIY8PBKhTg2JG6fKLkKTnkMwKNgbDgoFXINawUemhkZrWpyIiOjvgkUFWb07V4GJKyKQtGMg1rbPwsy3ryMDAKDHlndPYBWCcGjPcGRv7ITguFOYsam4ZMbenZB1ZCSKP2oJV48ARB8ZieIjI1H8WSD87kr/Jc7mOmH12gG4sLUnRl5NxLxNRbW2VV3su09ivdt/8HumBqr0k1hxXzZ2/HqmNKrGrsVj8F7hNGxJzkZWwufoHDcXs1ddrmggtxnGfbMf74bvwP/ZPovfts2H7r012CcAoBBbFozBKizCobQ8ZCeuQfBvUzFj9TUTszuOJa0d4OBQ7d+kDdCZFJcioNLKoLQDLp1QYdMFAXuFDFALqCtPpnBBs5YBCAjwgqOJmVenuXQYR7Paon+4D2QNiNdGGdgLw8Kbl1/ZyDubgKse7dHW07Q4ERHR3wWfqSCr59TJG70dAUCOgUP90OK1QpwH4I0CxJ0xYOTzzdHKDoCdJx4b7ISwU7kQkxwgs5HB3k4GyGUAZLCzs2nQw7e191+ia28fNLMBYO+CEd3t8fGFAsDE018nJyeob6ciMfU6XEICMe7VjRhXHrXH6LW3MLrspftgTBnqh3VnkwC0KnnPxQ1uMjnkHk3g5uYGuLnBTVWAAj0AeTLi4rQYufpRtFICUA7AYxPaICzmGMRTLU04ee6Jdy8W490Gx01lwNHfirAmSI4Rxqo9t6FYcSih4c2LTJyITYVHn5kl+0l946Z1goKLUdh8RI++E3vBq95xIiKixo1FBVk9uW2l098uITi/ueyFAVqdAZvfOIBDpdWCQa2FazfAAMD2nvdfQiGvuOBnayOD3iBgqu7/2Yj3i17B65N7IuGqFs0jpuC11Ssxqa0cgB4XNi3Bgrd+xaXCknuWVBm3YHjA1PuXtNBqVdj8WDAOldY4huI7cB0gu6vrx3w2mPqiB6YCKNx391svPBeLk7rOmBTm0qC4NC0y4ndj23GBXhPGI8yz+pqVihMRETV+LCqoEbOBQm6LyS8OxGc9GzK/LRyUgFpTcYqt1hjgYP8XnvS5dMXcldswF4Ch4BI2PDYA0/8TiQc3PQy7vB+wcOov6BB7Art7OQMA4hYHYEiWqY0roFA4Y/IXyfjs/oYkdxxLWg/Aqj+rvf3AWuRvnAK5ZFyKDEqFgKrSMyhqrQAUMjT4gkF1uhuIO3wTQQNHwM/YzZ5ScUlFuBKzFXuu+WPo1AEIdKp+/UcqTkRE9PfAZyqoEXNGn04y7P01Ddc1gFAV4Zs3jmDCpsKqkzVRwL2gAKdv6qDSGKDWlV1JUKJvmBKxv1xFQr4BhTdv4ctYPSK6NPQT6/rKx5aneuDB16JxPV8P2NrDSSmHjVxecmuSXgutXg+tWg8BQJu+D9tiTa4oAISgTx8Z9v6wFdfVgCi6iG8ei8CE1akmzl9ye1NxcbV/5QWDVFyKHD1DBHbsVOOSCtDmaPFplA6t28vhVmW6s3h7YGsET/se9Vl6AMg5FYNEp16IaGf8xjepeJ302Ti7cwOiskIwdkIEmtvrodPpoBcmxomIiP5GeKWCGjFbjF8SjsQ3EtHz/lMoUtijU2QQVo6s9vU9wQF4e2Qmnp70G55WCziN7oGCZb4AZIh8IhyvLD+L0WNSkKtwxMAHu+Oz4Xftc3IJTTBs1r+w6clZ6PT6deTbuCEwfAK+Xjuu5DcM3B/Bis8OYM70tmgqXOAbMgGPdGkOmPztUo4Y/9E2JD62AD29p6PIzgedRi/Gymnt7t0i1YsME550wdU1hXhoTgFyZDbo0tcJX0+qNixdjcL2Y/kIX/AA6vV8syoVsccL0GlM12pFiolxKddOYF9qLrTYj/Wf7C9fprajFmBMsFw6TkRE9DciE0LU+Nxs9q5d+Gr0aGPT/yUys+7Ay9OV/f9D+yeqLHvtA2jxVjtEJ72H3iafixtw6+A32JTVE7PHdzTy2LxUnIiIiOqDH5cRkRVTY390HLo88UE9CgoAsEHTAbPwdIPjREREVB8sKogsZOXKlRbtf+HChRbt3zT2eOj7TDxk6TSIiIioTiwqiCykcZzUExEREUnjtz8REREREZFZWFQQEREREZFZWFRQDfzmJyIiIiKqDxYVRERERERkFhYVRERERERkFhYVRERERERkFhYVRERERERkFhYVVId0rBrsAt+gPpj26UkUWjodIiIiIrJKLCqoDr6YH52NlE0jcPG5Rfj6uqXzISIiIiJrxKKCJMjh1q0HQhSZyMi2dC5EREREZI1YVJC0/AxkqDzg6WHpRIiIiIjIGrGoIGk5OciGB9zdLZ0IEREREVkjFhUkzbsN2rpdRsLJTGiEpZMhIiIiImvDooKkOQzH0pcDsGFkC7g6OsCh++tIsXRORERERGQ15JZOgBqB3A14fuktzNj3J5b1dIdCZumEiIiIiMia8EoFSVPlIU/jg9btWVAQERERUU0sKkiajz+aydORnmbpRIiIiIjIGrGoIAl65KVexC0ICD6kTURERERGsKigOqRj1WBXBA35Fs6LlmNuiKXzISIiIiJrxAe1qQ6+mB9dgPmWToOIiIiIrBqvVBARERERkVlYVBARERERkVlYVBARERERkVlYVBARERERkVlYVFghL09XS6dARERERGQyFhVERERERGQWFhVERERERGQWFhVERERERGQWFhVERERERGQWFhVWLR2rBrvAN6gPpn16EoWWToeIiIiIyAgWFVbNF/Ojs5GyaQQuPrcIX1+3dD5ERERERDWxqLB6crh164EQRSYysi2dCxERERFRTSwqGoP8DGSoPODpYelEiIiIiIhqYlHRGOTkIBsecHe3dCJERERERDWxqGgMvNugrdtlJJzMhEZYOhkiIiIioqpYVDQGDsOx9OUAbBjZAq6ODnDo/jpSLJ0TEREREVEpuaUTIBPkbsDzS29hxr4/saynOxQySydERERERFSBVyoaA1Ue8jQ+aN2eBQURERERWR8WFY2Bjz+aydORnmbpRIiIiIiIamJRYfX0yEu9iFsQEHxIm4iIiIisEIsKq5aOVYNdETTkWzgvWo65IZbOh4iIiIioJj6obdV8MT+6APMtnQYRERERUR14pYKIiIiIiMzCooKIiIiIiMzCooKIiIiIiMzCooKIiIiIiMzCosIIL09XS6dARERERNRosKggIiIiIiKzsKggIiIiIiKzsKggIiIiIiKzsKggIiIiIiKzsKioUzpWDXaBb1AfTPv0JAotnQ4RERERkRViUVEnX8yPzkbKphG4+NwifH3d0vkQEREREVkfFhWS5HDr1gMhikxkZFs6FyIiIiIi68OiwhT5GchQecDTw9KJEBERERFZHxYVpsjJQTY84O5u6USIiIiIiKwPiwpTeLdBW7fLSDiZCY2wdDJERERERNaFRYUpHIZj6csB2DCyBVwdHeDQ/XWkWDonIiIiIiIrIbd0Ao1C7gY8v/QWZuz7E8t6ukMhs3RCRERERETWg1cqTKHKQ57GB63bs6AgIiIiIqqORYUpfPzRTJ6O9DRLJ0JEREREZH1YVEjSIy/1Im5BQPAhbSIiIiKiGlhU1Ckdqwa7ImjIt3BetBxzQyydDxERERGR9eGD2nXyxfzoAsy3dBpERERERFaMVyqIiIiIiMgsLCqIiIiIiMgsLCqIiIiIiMgsLCqIiIiIiMgsVllUeHm6WjoFIiIiIiIykVUWFURERERE1HiwqCAiIiIiIrOwqCAiIiIiIrOwqCAiIiIiIrNYeVGRjlWDXeAb1AfTPj2JQkunQ0RERERENVh5UeGL+dHZSNk0AhefW4Svr1s6HyIiIiIiqs7KiwoAkMOtWw+EKDKRkW3pXIiIiIiIqLpGUFQAyM9AhsoDnh6WToSIiIiIiKprHEVFTg6y4QF3d0snQkRERERE1TWOosK7Ddq6XUbCyUxohKWTISIiIiKiyhpHUeEwHEtfDsCGkS3g6ugAh+6vI8XSOREREREREQBAbukETJK7Ac8vvYUZ+/7Esp7uUMgsnRAREREREZVpHFcqVHnI0/igdXsWFERERERE1qZxFBU+/mgmT0d6mqUTISIiIiKi6hpBUaFHXupF3IKA4EPaRERERERWx8qLinSsGuyKoCHfwnnRcswNsXQ+RERERERUnZU/qO2L+dEFmG/pNIiIiIiIqFZWfqWCiIiIiIisHYsKIiIiIiIyC4sKIiIiIiIyC4sKIiIiIiIyC4sKIiIiIiIyC4sKIiIiIiIyC4sKIiIiIiIyC4sKIiIiIiIyC4sKIiIiIiIyC4sK+ovpcT3qC6zakQxVg+JEREREZG1YVNBfK+cUYhId0CsiGMqGxImIiIjI6sgtncBf4vgZuL0ow649HRFh6VyM0uHA579j1vdZuFwoAIfm+CW2C4ZLzPXra79ixHZd6SsffHekJ6bZ3etczaFGyqFjKOwwGl09GhKvpdX0BMQcPIkLaXnQKz3RqscQDO3qCwUAIAOH1n6LYzmV5/BA35n/Qh9PMxaFiIiIiMr9M4oKa5d7E8s+V2PS10Pwcns5ZJDBlNpg6AtDUbwUwI2L6DUpR3J6SzOkHcOhy37oNzvA6I4nFTcq7wx2bj4Jl0GjMXOcGzRX92PTjmgktJ6K7i4A4IW+MxaitwCgvY2TO3/BpaaD0YUFBREREdFdY/W3Px14Zy+8lpzD4nmHEDImCkGzE/DjNVExQW423lwaA/+Bv8J1yAGM+CgN1wylsSMJcA7fBdm8q7iTfQWR4bsgC98F2ezLSAMAFGDZpF2YsKeivaMfRsN5WbqJ/Rdh+fRdGPrOeYydeRBtRkah2wtXEK+p50Lma5ELB3RsbwcHOxso7WQVGyYvFytfPoJ2Q3+F8+B96P/6DSRpS0I2tjZQ2tlAqZBBVkvTIj0NzzyxH179/g+2fX9D6zlnsOG6ieuvTMYmTG3pCp9+7yKxnotWaSERH3Ma8vBIhDo1JG6cKrsITXoOwaBgbzgoFHANagUfmRoabdkUMtjYymGruoaDm3/DrXZjMDGyJRwavBxEREREVJ3VFxUAcOcqMHFFBJJ2DMTa9lmY+fZ1ZAAA9Njy7gmsQhAO7RmO7I2dEBx3CjM2FZfM2LsTso6MRPFHLeHqEYDoIyNRfGQkij8LhN9d6b/E2VwnrF47ABe29sTIq4mYt6nItIaTUhE2eA+8ZpzHWWTgyRF74DV4D7weOIt9AAADdn14Au8V+2PLpmHI+jEMnRPiMXujie0DiP32DNY3aYPfo0dCtScSK8I12BGXVxqVWH9lFC5o1jIAAQFecDS556o0lw7jaFZb9A/3MVoAScVrowzshWHhzcuvbOSdTcBVj/ZoW+VKRDoO/bQNCWpXeMr10DdwGYiIiIjIuEZx+5NTJ2/0dgQAOQYO9UOL1wpxHoA3ChB3xoCRzzdHKzsAdp54bLATwk7lQkxygMxGBns7GSCXAZDBzs6mQQ//1t5/ia69fdDMBoC9C0Z0t8fHFwoAU06/2wRhz4aW0P15BcPm5OKJdV0wzg6AzLa0bRuMfmkIRpfP4IUpvZVYd9HE9gE4Ocihzi5E4jUVXAIdMe6J7hhXHpVYf2WTuQ3FikMJJvVnlMjEidhUePSZWdJPfeOmdYKCi1HYfESPvhN7watKrAmC7x8P/8KbOHngJ+wSc/BQp3pcDiEiIiKiOjWKokJuW+mz6y4hOL+57IUBWp0Bm984gEOl1YJBrYVrN8AAwPae919CIa+44GNrI4PeIGAShRx+PnJALYcCNnD3UaJ5lZNqgQvRSVjw9W1cKr14oMpRwdDfxPYBdP9XN7yvOo/Xnz+EhDQDmnfxx2vPd8CkljL8Veuv8FwsTuo6Y1KYS4Pi0rTIiN+NbccFek0YjzDP6pk7wjsgEN4IhM3N0/g1IwcAiwoiIiKiu6VRFBW1s4FCbovJLw7EZz0bMr8tHJSAWlNxCq3WGOBgf7dOp81UeBML/3sbHb6MwO6OJZsq7oNoDLlTjzacXDH32XDMBWAoKsKGN45g+ioPPPhOM9iZvf5MoLuBuMM3ETRwBPyM3WwnFZdUhCsxW7Hnmj+GTh2AQKdKBWBOKg4lAh0j2sENAFCM3Bw13Nq4NqQjIiIiIqpFo3imonbO6NNJhr2/puG6BhCqInzzxhFM2FRYdbImCrgXFOD0TR1UGgPUurJP+pXoG6ZE7C9XkZBvQOHNW/gyVo+ILg39xPwu0wtoDQJaDSAAaLMzse2UkafAXe3gLStA3Ek1CjUGqDQG6AUA6LDl7UN48MtMXC8SgK0NnOxtYCMve7DbxPWHs3h7YGsET/seWfVchJxTMUh06oWIdsZvPJOK10mfjbM7NyAqKwRjJ0Sgub0eOp2udNkB6DKQevwoEm4UQqstQvqZfTiREYBO7ZrUvy8iIiIiqlUjv1Jhi/FLwpH4RiJ63n8KRQp7dIoMwsqR1W5tCQ7A2yMz8fSk3/C0WsBpdA8ULPMFIEPkE+F4ZflZjB6TglyFIwY+2B2fDbeSH3tw8ceK/2Rhzkv70FTI4duqKR5p7wBoa0732tNpmPHfaDTJM0CgCV7bNAAvBsoxbExzbHorHp2+Kka+TIHA0Kb4+iW/0t9wMHH9XY3C9mP5CF/wAOr1TayqVMQeL0CnMV1LrxTUMy7l2gnsS82FFvux/pP9pW/K0HbUAowJlgPe3TGkz21E7fgSf+js4OrXGj0eGowOzg3pjIiIiIhqIxNC1LhBf/auXfhq9Ghj09M/UPbaB9DirXaITnoPvU0uQw24dfAbbMrqidnjOxp5rFwqTkRERESNRSO/UkH3nhr7o+PQ5YkP6lFQAIANmg6YhacbHCciIiKixoJFBUmwx0PfZ+IhS6dBRERERFarkT+oTURERERElsaigoiIiIiIzMKigoiIiIiIzGL025/KrEpNrXPm+e3a3fWEiIiIiIioceGVCiIiIiIiMguLCiIiIiIiMguLCiIiIiIiMguLCiIiIiIiMotEUZGJ2Jnd8b/7H8b6DYnQ3JUu9bge9QVW7UiGqkFxIiIiIiKyJhJFhRcivzmOF1ZGIvOdt3Ds1l3oMecUYhId0CsiGMqGxImIiIiIyKrIpSexhUOHMPgqdqPwDoCm5nSnRsqhYyjsMBpdPRoSr6XV9ATEHDyJC2l50Cs90arHEAzt6gtFtekM2Sfx84+J8B83BRFNq0eJiIiIiKghTHumojALBWpXOLqa15kh7RgOXfZDvz4BRqsZqbhReWewc/NJiLDRmPnkPEwf5IO0/dFIyKs2nfoa9m07Drv+Y9GPBQURERER0V1jWlGRl4cimFtU5CM+5jTk4ZEIdWpI3DhVdhGa9ByCQcHecFAo4BrUCj4yNTTaShOJO0jY9X+4FjASIzu6QmbOYhARERERURWmFRUeAfBucgN/JuZAX+vvb9dNc+kwjma1Rf9wH6Mn9VLx2igDe2FYePPyKxt5ZxNw1aM92nqWTaHFzdhtOKTriQfvC4BclYfcIm0trRERERERUX2ZVlTYR2LwfH/88dhAPN+lM5aMX43b9elFZOJEbCo8+vRDK7sGxE3rBAUX92LzET36ju4Fr9J385N/wc4Ubwx7oDs8bIDrMd9i4/F6ZU9ERERERHUw7dGFvF3YueI2enwTg+FhrrCt5/1DhedicVLXGZPCXBoUl6ZFRvxubDsu0GvCeIR52pa8rU5G9G+ZCJ38KFo7AkABMjPV8OzkVVdjRERERERUD6YVFZpCqLWe8GpV/4ICuhuIO3wTQQNHwM/YdRGpuKQiXInZij3X/DF06gAEOlVKMOMWbunycH3L5zgLADBAq3JGl/vsG9IREREREREZYVpR4eEDF9tM5GcCqOfFhJxTMUh06oUZ7Yz/6oRUvE76bJzdvRVHdV0xdkIYPOV66HSAzFZeUvz49cG0x8Irpi9IwNYf0uDpWWuLRERERERUTyYUFQaorlxDHgC/+rauSkXs8QJ0GtMVbg2JS7l2AvtSc6HFfqz/ZH/pmzK0HbUAY4LlgFyJJk0qFSuZBch18YRXg5/bICIiIiKi6iSKikzEzhyCX68EoNXMZ9EnqD5NG3Dr2CFcbdoXs1sY/VUKibgJWg3DgsXD6jf93IZ1RURERERExsmEELV+Seyq1NQ6Z57frt1dT4iIiIiIiBqXBj0aTUREREREVIZFBRERERERmYVFBRERERERmYVFBRERERERmaXOB7WJiIiIiIik8EoFERERERGZhUUFERERERGZhUUFERERERGZhUUFERERERGZhUUFERERERGZ5f8B+9ITjR11KNkAAAAASUVORK5CYII=;" vertex="1" parent="1">
          <mxGeometry x="10" y="10" width="789" height="912" as="geometry" />
        </mxCell>
        <mxCell id="9IUaXPzacB2-Hm3dFwya-4" value="&lt;div&gt;T&lt;/div&gt;" style="edgeStyle=none;curved=1;rounded=0;orthogonalLoop=1;jettySize=auto;html=1;entryX=0.5;entryY=0;entryDx=0;entryDy=0;fontSize=12;startSize=8;endSize=8;" edge="1" parent="1" source="9IUaXPzacB2-Hm3dFwya-2" target="9IUaXPzacB2-Hm3dFwya-3">
          <mxGeometry relative="1" as="geometry" />
        </mxCell>
        <mxCell id="9IUaXPzacB2-Hm3dFwya-11" value="F" style="edgeStyle=none;curved=1;rounded=0;orthogonalLoop=1;jettySize=auto;html=1;fontSize=12;startSize=8;endSize=8;" edge="1" parent="1" source="9IUaXPzacB2-Hm3dFwya-2" target="9IUaXPzacB2-Hm3dFwya-10">
          <mxGeometry relative="1" as="geometry" />
        </mxCell>
        <mxCell id="9IUaXPzacB2-Hm3dFwya-2" value="&lt;b&gt;&lt;font size=&quot;1&quot;&gt;&lt;span style=&quot;font-size: 12px;&quot;&gt;1&lt;/span&gt;&lt;/font&gt;&lt;/b&gt;" style="ellipse;whiteSpace=wrap;html=1;aspect=fixed;fillColor=#dae8fc;strokeColor=#6c8ebf;" vertex="1" parent="1">
          <mxGeometry x="860" y="410" width="50" height="50" as="geometry" />
        </mxCell>
        <mxCell id="9IUaXPzacB2-Hm3dFwya-9" style="edgeStyle=none;curved=1;rounded=0;orthogonalLoop=1;jettySize=auto;html=1;fontSize=12;startSize=8;endSize=8;entryX=0;entryY=0.5;entryDx=0;entryDy=0;" edge="1" parent="1" source="9IUaXPzacB2-Hm3dFwya-3" target="9IUaXPzacB2-Hm3dFwya-7">
          <mxGeometry relative="1" as="geometry">
            <mxPoint x="900" y="850" as="targetPoint" />
            <Array as="points">
              <mxPoint x="880" y="1120" />
            </Array>
          </mxGeometry>
        </mxCell>
        <mxCell id="9IUaXPzacB2-Hm3dFwya-3" value="&lt;font size=&quot;1&quot;&gt;&lt;span style=&quot;font-size: 12px;&quot;&gt;2&lt;/span&gt;&lt;/font&gt;" style="ellipse;whiteSpace=wrap;html=1;aspect=fixed;fillColor=default;" vertex="1" parent="1">
          <mxGeometry x="860" y="560" width="50" height="50" as="geometry" />
        </mxCell>
        <mxCell id="9IUaXPzacB2-Hm3dFwya-7" value="&lt;div&gt;&lt;b&gt;24&lt;/b&gt;&lt;/div&gt;" style="ellipse;whiteSpace=wrap;html=1;aspect=fixed;" vertex="1" parent="1">
          <mxGeometry x="1330" y="980" width="50" height="50" as="geometry" />
        </mxCell>
        <mxCell id="9IUaXPzacB2-Hm3dFwya-13" value="T" style="edgeStyle=none;curved=1;rounded=0;orthogonalLoop=1;jettySize=auto;html=1;entryX=0;entryY=0.5;entryDx=0;entryDy=0;fontSize=12;startSize=8;endSize=8;" edge="1" parent="1" source="9IUaXPzacB2-Hm3dFwya-10" target="9IUaXPzacB2-Hm3dFwya-12">
          <mxGeometry relative="1" as="geometry" />
        </mxCell>
        <mxCell id="9IUaXPzacB2-Hm3dFwya-47" value="F" style="edgeStyle=none;curved=1;rounded=0;orthogonalLoop=1;jettySize=auto;html=1;exitX=1;exitY=1;exitDx=0;exitDy=0;entryX=0;entryY=1;entryDx=0;entryDy=0;fontSize=12;startSize=8;endSize=8;" edge="1" parent="1" source="9IUaXPzacB2-Hm3dFwya-10" target="9IUaXPzacB2-Hm3dFwya-14">
          <mxGeometry x="-0.2215" y="23" relative="1" as="geometry">
            <Array as="points">
              <mxPoint x="980" y="320" />
            </Array>
            <mxPoint as="offset" />
          </mxGeometry>
        </mxCell>
        <mxCell id="9IUaXPzacB2-Hm3dFwya-10" value="&lt;div&gt;&lt;font size=&quot;1&quot;&gt;3&lt;/font&gt;&lt;/div&gt;" style="ellipse;whiteSpace=wrap;html=1;aspect=fixed;fillColor=#dae8fc;strokeColor=#6c8ebf;" vertex="1" parent="1">
          <mxGeometry x="860" y="210" width="50" height="50" as="geometry" />
        </mxCell>
        <mxCell id="9IUaXPzacB2-Hm3dFwya-17" style="edgeStyle=none;curved=1;rounded=0;orthogonalLoop=1;jettySize=auto;html=1;entryX=0;entryY=0.5;entryDx=0;entryDy=0;fontSize=12;startSize=8;endSize=8;" edge="1" parent="1" source="9IUaXPzacB2-Hm3dFwya-12" target="9IUaXPzacB2-Hm3dFwya-14">
          <mxGeometry relative="1" as="geometry" />
        </mxCell>
        <mxCell id="9IUaXPzacB2-Hm3dFwya-12" value="4" style="ellipse;whiteSpace=wrap;html=1;aspect=fixed;" vertex="1" parent="1">
          <mxGeometry x="960" y="210" width="50" height="50" as="geometry" />
        </mxCell>
        <mxCell id="9IUaXPzacB2-Hm3dFwya-19" style="edgeStyle=none;curved=1;rounded=0;orthogonalLoop=1;jettySize=auto;html=1;fontSize=12;startSize=8;endSize=8;" edge="1" parent="1" source="9IUaXPzacB2-Hm3dFwya-14" target="9IUaXPzacB2-Hm3dFwya-18">
          <mxGeometry relative="1" as="geometry" />
        </mxCell>
        <mxCell id="9IUaXPzacB2-Hm3dFwya-14" value="5" style="ellipse;whiteSpace=wrap;html=1;aspect=fixed;" vertex="1" parent="1">
          <mxGeometry x="1060" y="210" width="50" height="50" as="geometry" />
        </mxCell>
        <mxCell id="9IUaXPzacB2-Hm3dFwya-21" value="T" style="edgeStyle=none;curved=1;rounded=0;orthogonalLoop=1;jettySize=auto;html=1;entryX=0;entryY=0.5;entryDx=0;entryDy=0;fontSize=12;startSize=8;endSize=8;" edge="1" parent="1" source="9IUaXPzacB2-Hm3dFwya-18" target="9IUaXPzacB2-Hm3dFwya-20">
          <mxGeometry relative="1" as="geometry" />
        </mxCell>
        <mxCell id="9IUaXPzacB2-Hm3dFwya-77" value="F" style="edgeStyle=none;curved=1;rounded=0;orthogonalLoop=1;jettySize=auto;html=1;entryX=1;entryY=0.5;entryDx=0;entryDy=0;fontSize=12;startSize=8;endSize=8;" edge="1" parent="1" source="9IUaXPzacB2-Hm3dFwya-18" target="9IUaXPzacB2-Hm3dFwya-43">
          <mxGeometry relative="1" as="geometry">
            <Array as="points">
              <mxPoint x="1190" y="350" />
            </Array>
          </mxGeometry>
        </mxCell>
        <mxCell id="9IUaXPzacB2-Hm3dFwya-18" value="6" style="ellipse;whiteSpace=wrap;html=1;aspect=fixed;fillColor=#dae8fc;strokeColor=#6c8ebf;" vertex="1" parent="1">
          <mxGeometry x="1160" y="210" width="50" height="50" as="geometry" />
        </mxCell>
        <mxCell id="9IUaXPzacB2-Hm3dFwya-23" style="edgeStyle=none;curved=1;rounded=0;orthogonalLoop=1;jettySize=auto;html=1;entryX=0;entryY=0.5;entryDx=0;entryDy=0;fontSize=12;startSize=8;endSize=8;" edge="1" parent="1" source="9IUaXPzacB2-Hm3dFwya-20" target="9IUaXPzacB2-Hm3dFwya-22">
          <mxGeometry relative="1" as="geometry" />
        </mxCell>
        <mxCell id="9IUaXPzacB2-Hm3dFwya-20" value="7" style="ellipse;whiteSpace=wrap;html=1;aspect=fixed;" vertex="1" parent="1">
          <mxGeometry x="1260" y="210" width="50" height="50" as="geometry" />
        </mxCell>
        <mxCell id="9IUaXPzacB2-Hm3dFwya-25" style="edgeStyle=none;curved=1;rounded=0;orthogonalLoop=1;jettySize=auto;html=1;entryX=0;entryY=0.5;entryDx=0;entryDy=0;fontSize=12;startSize=8;endSize=8;" edge="1" parent="1" source="9IUaXPzacB2-Hm3dFwya-22" target="9IUaXPzacB2-Hm3dFwya-24">
          <mxGeometry relative="1" as="geometry" />
        </mxCell>
        <mxCell id="9IUaXPzacB2-Hm3dFwya-22" value="8.1" style="ellipse;whiteSpace=wrap;html=1;aspect=fixed;" vertex="1" parent="1">
          <mxGeometry x="1360" y="210" width="50" height="50" as="geometry" />
        </mxCell>
        <mxCell id="9IUaXPzacB2-Hm3dFwya-27" value="T" style="edgeStyle=none;curved=1;rounded=0;orthogonalLoop=1;jettySize=auto;html=1;entryX=0;entryY=0.5;entryDx=0;entryDy=0;fontSize=12;startSize=8;endSize=8;" edge="1" parent="1" source="9IUaXPzacB2-Hm3dFwya-24" target="9IUaXPzacB2-Hm3dFwya-26">
          <mxGeometry relative="1" as="geometry" />
        </mxCell>
        <mxCell id="9IUaXPzacB2-Hm3dFwya-44" value="F" style="edgeStyle=none;curved=1;rounded=0;orthogonalLoop=1;jettySize=auto;html=1;entryX=0.5;entryY=0;entryDx=0;entryDy=0;fontSize=12;startSize=8;endSize=8;" edge="1" parent="1" source="9IUaXPzacB2-Hm3dFwya-24" target="9IUaXPzacB2-Hm3dFwya-43">
          <mxGeometry relative="1" as="geometry">
            <Array as="points">
              <mxPoint x="1370" y="290" />
              <mxPoint x="1080" y="280" />
            </Array>
          </mxGeometry>
        </mxCell>
        <mxCell id="9IUaXPzacB2-Hm3dFwya-24" value="8.2" style="ellipse;whiteSpace=wrap;html=1;aspect=fixed;fillColor=#dae8fc;strokeColor=#6c8ebf;" vertex="1" parent="1">
          <mxGeometry x="1460" y="210" width="50" height="50" as="geometry" />
        </mxCell>
        <mxCell id="9IUaXPzacB2-Hm3dFwya-29" style="edgeStyle=none;curved=1;rounded=0;orthogonalLoop=1;jettySize=auto;html=1;entryX=0;entryY=0.5;entryDx=0;entryDy=0;fontSize=12;startSize=8;endSize=8;" edge="1" parent="1" source="9IUaXPzacB2-Hm3dFwya-26" target="9IUaXPzacB2-Hm3dFwya-28">
          <mxGeometry relative="1" as="geometry" />
        </mxCell>
        <mxCell id="9IUaXPzacB2-Hm3dFwya-26" value="9" style="ellipse;whiteSpace=wrap;html=1;aspect=fixed;" vertex="1" parent="1">
          <mxGeometry x="1560" y="210" width="50" height="50" as="geometry" />
        </mxCell>
        <mxCell id="9IUaXPzacB2-Hm3dFwya-33" value="T" style="edgeStyle=none;curved=1;rounded=0;orthogonalLoop=1;jettySize=auto;html=1;entryX=0.5;entryY=1;entryDx=0;entryDy=0;fontSize=12;startSize=8;endSize=8;" edge="1" parent="1" source="9IUaXPzacB2-Hm3dFwya-28" target="9IUaXPzacB2-Hm3dFwya-32">
          <mxGeometry relative="1" as="geometry" />
        </mxCell>
        <mxCell id="9IUaXPzacB2-Hm3dFwya-36" value="F" style="edgeStyle=none;curved=1;rounded=0;orthogonalLoop=1;jettySize=auto;html=1;fontSize=12;startSize=8;endSize=8;" edge="1" parent="1" source="9IUaXPzacB2-Hm3dFwya-28" target="9IUaXPzacB2-Hm3dFwya-34">
          <mxGeometry relative="1" as="geometry" />
        </mxCell>
        <mxCell id="9IUaXPzacB2-Hm3dFwya-28" value="10" style="ellipse;whiteSpace=wrap;html=1;aspect=fixed;fillColor=#dae8fc;strokeColor=#6c8ebf;" vertex="1" parent="1">
          <mxGeometry x="1660" y="210" width="50" height="50" as="geometry" />
        </mxCell>
        <mxCell id="9IUaXPzacB2-Hm3dFwya-35" style="edgeStyle=none;curved=1;rounded=0;orthogonalLoop=1;jettySize=auto;html=1;entryX=0.5;entryY=0;entryDx=0;entryDy=0;fontSize=12;startSize=8;endSize=8;" edge="1" parent="1" source="9IUaXPzacB2-Hm3dFwya-32" target="9IUaXPzacB2-Hm3dFwya-34">
          <mxGeometry relative="1" as="geometry">
            <Array as="points">
              <mxPoint x="1790" y="120" />
            </Array>
          </mxGeometry>
        </mxCell>
        <mxCell id="9IUaXPzacB2-Hm3dFwya-32" value="11" style="ellipse;whiteSpace=wrap;html=1;aspect=fixed;" vertex="1" parent="1">
          <mxGeometry x="1660" y="110" width="50" height="50" as="geometry" />
        </mxCell>
        <mxCell id="9IUaXPzacB2-Hm3dFwya-38" value="T" style="edgeStyle=none;curved=1;rounded=0;orthogonalLoop=1;jettySize=auto;html=1;entryX=0.5;entryY=0;entryDx=0;entryDy=0;fontSize=12;startSize=8;endSize=8;" edge="1" parent="1" source="9IUaXPzacB2-Hm3dFwya-34" target="9IUaXPzacB2-Hm3dFwya-37">
          <mxGeometry relative="1" as="geometry" />
        </mxCell>
        <mxCell id="9IUaXPzacB2-Hm3dFwya-40" value="F" style="edgeStyle=none;curved=1;rounded=0;orthogonalLoop=1;jettySize=auto;html=1;entryX=0;entryY=0.5;entryDx=0;entryDy=0;fontSize=12;startSize=8;endSize=8;" edge="1" parent="1" source="9IUaXPzacB2-Hm3dFwya-34" target="9IUaXPzacB2-Hm3dFwya-39">
          <mxGeometry relative="1" as="geometry" />
        </mxCell>
        <mxCell id="9IUaXPzacB2-Hm3dFwya-34" value="12" style="ellipse;whiteSpace=wrap;html=1;aspect=fixed;fillColor=#dae8fc;strokeColor=#6c8ebf;" vertex="1" parent="1">
          <mxGeometry x="1760" y="210" width="50" height="50" as="geometry" />
        </mxCell>
        <mxCell id="9IUaXPzacB2-Hm3dFwya-41" style="edgeStyle=none;curved=1;rounded=0;orthogonalLoop=1;jettySize=auto;html=1;entryX=0.5;entryY=1;entryDx=0;entryDy=0;fontSize=12;startSize=8;endSize=8;" edge="1" parent="1" source="9IUaXPzacB2-Hm3dFwya-37" target="9IUaXPzacB2-Hm3dFwya-39">
          <mxGeometry relative="1" as="geometry">
            <Array as="points">
              <mxPoint x="1890" y="340" />
            </Array>
          </mxGeometry>
        </mxCell>
        <mxCell id="9IUaXPzacB2-Hm3dFwya-37" value="13" style="ellipse;whiteSpace=wrap;html=1;aspect=fixed;" vertex="1" parent="1">
          <mxGeometry x="1760" y="310" width="50" height="50" as="geometry" />
        </mxCell>
        <mxCell id="9IUaXPzacB2-Hm3dFwya-42" style="edgeStyle=none;curved=1;rounded=0;orthogonalLoop=1;jettySize=auto;html=1;entryX=0.5;entryY=0;entryDx=0;entryDy=0;fontSize=12;startSize=8;endSize=8;" edge="1" parent="1" source="9IUaXPzacB2-Hm3dFwya-39" target="9IUaXPzacB2-Hm3dFwya-24">
          <mxGeometry relative="1" as="geometry">
            <Array as="points">
              <mxPoint x="1710" y="-60" />
            </Array>
          </mxGeometry>
        </mxCell>
        <mxCell id="9IUaXPzacB2-Hm3dFwya-39" value="8.3" style="ellipse;whiteSpace=wrap;html=1;aspect=fixed;" vertex="1" parent="1">
          <mxGeometry x="1860" y="210" width="50" height="50" as="geometry" />
        </mxCell>
        <mxCell id="9IUaXPzacB2-Hm3dFwya-49" style="edgeStyle=none;curved=1;rounded=0;orthogonalLoop=1;jettySize=auto;html=1;entryX=0.5;entryY=0;entryDx=0;entryDy=0;fontSize=12;startSize=8;endSize=8;" edge="1" parent="1" source="9IUaXPzacB2-Hm3dFwya-43" target="9IUaXPzacB2-Hm3dFwya-48">
          <mxGeometry relative="1" as="geometry" />
        </mxCell>
        <mxCell id="9IUaXPzacB2-Hm3dFwya-43" value="14" style="ellipse;whiteSpace=wrap;html=1;aspect=fixed;" vertex="1" parent="1">
          <mxGeometry x="1060" y="330" width="50" height="50" as="geometry" />
        </mxCell>
        <mxCell id="9IUaXPzacB2-Hm3dFwya-51" style="edgeStyle=none;curved=1;rounded=0;orthogonalLoop=1;jettySize=auto;html=1;entryX=0.5;entryY=0;entryDx=0;entryDy=0;fontSize=12;startSize=8;endSize=8;" edge="1" parent="1" source="9IUaXPzacB2-Hm3dFwya-48" target="9IUaXPzacB2-Hm3dFwya-50">
          <mxGeometry relative="1" as="geometry" />
        </mxCell>
        <mxCell id="9IUaXPzacB2-Hm3dFwya-48" value="15" style="ellipse;whiteSpace=wrap;html=1;aspect=fixed;" vertex="1" parent="1">
          <mxGeometry x="1060" y="430" width="50" height="50" as="geometry" />
        </mxCell>
        <mxCell id="9IUaXPzacB2-Hm3dFwya-53" style="edgeStyle=none;curved=1;rounded=0;orthogonalLoop=1;jettySize=auto;html=1;entryX=0.5;entryY=0;entryDx=0;entryDy=0;fontSize=12;startSize=8;endSize=8;" edge="1" parent="1" source="9IUaXPzacB2-Hm3dFwya-50" target="9IUaXPzacB2-Hm3dFwya-52">
          <mxGeometry relative="1" as="geometry" />
        </mxCell>
        <mxCell id="9IUaXPzacB2-Hm3dFwya-50" value="16" style="ellipse;whiteSpace=wrap;html=1;aspect=fixed;" vertex="1" parent="1">
          <mxGeometry x="1060" y="530" width="50" height="50" as="geometry" />
        </mxCell>
        <mxCell id="9IUaXPzacB2-Hm3dFwya-55" value="T" style="edgeStyle=none;curved=1;rounded=0;orthogonalLoop=1;jettySize=auto;html=1;entryX=0.5;entryY=0;entryDx=0;entryDy=0;fontSize=12;startSize=8;endSize=8;" edge="1" parent="1" source="9IUaXPzacB2-Hm3dFwya-52" target="9IUaXPzacB2-Hm3dFwya-54">
          <mxGeometry relative="1" as="geometry" />
        </mxCell>
        <mxCell id="9IUaXPzacB2-Hm3dFwya-59" value="F" style="edgeStyle=none;curved=1;rounded=0;orthogonalLoop=1;jettySize=auto;html=1;entryX=0;entryY=0.5;entryDx=0;entryDy=0;fontSize=12;startSize=8;endSize=8;" edge="1" parent="1" source="9IUaXPzacB2-Hm3dFwya-52" target="9IUaXPzacB2-Hm3dFwya-57">
          <mxGeometry relative="1" as="geometry" />
        </mxCell>
        <mxCell id="9IUaXPzacB2-Hm3dFwya-52" value="17" style="ellipse;whiteSpace=wrap;html=1;aspect=fixed;fillColor=#dae8fc;strokeColor=#6c8ebf;" vertex="1" parent="1">
          <mxGeometry x="1060" y="630" width="50" height="50" as="geometry" />
        </mxCell>
        <mxCell id="9IUaXPzacB2-Hm3dFwya-56" style="edgeStyle=none;curved=1;rounded=0;orthogonalLoop=1;jettySize=auto;html=1;entryX=0.5;entryY=0;entryDx=0;entryDy=0;fontSize=12;startSize=8;endSize=8;" edge="1" parent="1" source="9IUaXPzacB2-Hm3dFwya-54" target="9IUaXPzacB2-Hm3dFwya-7">
          <mxGeometry relative="1" as="geometry">
            <Array as="points">
              <mxPoint x="1100" y="940" />
            </Array>
          </mxGeometry>
        </mxCell>
        <mxCell id="9IUaXPzacB2-Hm3dFwya-54" value="18" style="ellipse;whiteSpace=wrap;html=1;aspect=fixed;" vertex="1" parent="1">
          <mxGeometry x="1060" y="730" width="50" height="50" as="geometry" />
        </mxCell>
        <mxCell id="9IUaXPzacB2-Hm3dFwya-62" value="F" style="edgeStyle=none;curved=1;rounded=0;orthogonalLoop=1;jettySize=auto;html=1;entryX=0.5;entryY=0;entryDx=0;entryDy=0;fontSize=12;startSize=8;endSize=8;" edge="1" parent="1" source="9IUaXPzacB2-Hm3dFwya-57" target="9IUaXPzacB2-Hm3dFwya-61">
          <mxGeometry relative="1" as="geometry" />
        </mxCell>
        <mxCell id="9IUaXPzacB2-Hm3dFwya-65" value="T" style="edgeStyle=none;curved=1;rounded=0;orthogonalLoop=1;jettySize=auto;html=1;entryX=0.5;entryY=1;entryDx=0;entryDy=0;fontSize=12;startSize=8;endSize=8;" edge="1" parent="1" source="9IUaXPzacB2-Hm3dFwya-57" target="9IUaXPzacB2-Hm3dFwya-64">
          <mxGeometry relative="1" as="geometry" />
        </mxCell>
        <mxCell id="9IUaXPzacB2-Hm3dFwya-57" value="19" style="ellipse;whiteSpace=wrap;html=1;aspect=fixed;fillColor=#dae8fc;strokeColor=#6c8ebf;" vertex="1" parent="1">
          <mxGeometry x="1160" y="630" width="50" height="50" as="geometry" />
        </mxCell>
        <mxCell id="9IUaXPzacB2-Hm3dFwya-63" style="edgeStyle=none;curved=1;rounded=0;orthogonalLoop=1;jettySize=auto;html=1;entryX=0.5;entryY=0;entryDx=0;entryDy=0;fontSize=12;startSize=8;endSize=8;" edge="1" parent="1" source="9IUaXPzacB2-Hm3dFwya-61" target="9IUaXPzacB2-Hm3dFwya-7">
          <mxGeometry relative="1" as="geometry">
            <Array as="points">
              <mxPoint x="1360" y="810" />
            </Array>
          </mxGeometry>
        </mxCell>
        <mxCell id="9IUaXPzacB2-Hm3dFwya-61" value="23" style="ellipse;whiteSpace=wrap;html=1;aspect=fixed;" vertex="1" parent="1">
          <mxGeometry x="1160" y="730" width="50" height="50" as="geometry" />
        </mxCell>
        <mxCell id="9IUaXPzacB2-Hm3dFwya-67" style="edgeStyle=none;curved=1;rounded=0;orthogonalLoop=1;jettySize=auto;html=1;entryX=0;entryY=0.5;entryDx=0;entryDy=0;fontSize=12;startSize=8;endSize=8;" edge="1" parent="1" source="9IUaXPzacB2-Hm3dFwya-64" target="9IUaXPzacB2-Hm3dFwya-66">
          <mxGeometry relative="1" as="geometry" />
        </mxCell>
        <mxCell id="9IUaXPzacB2-Hm3dFwya-64" value="20.1" style="ellipse;whiteSpace=wrap;html=1;aspect=fixed;" vertex="1" parent="1">
          <mxGeometry x="1160" y="530" width="50" height="50" as="geometry" />
        </mxCell>
        <mxCell id="9IUaXPzacB2-Hm3dFwya-68" value="F" style="edgeStyle=none;curved=1;rounded=0;orthogonalLoop=1;jettySize=auto;html=1;entryX=1;entryY=0;entryDx=0;entryDy=0;fontSize=12;startSize=8;endSize=8;" edge="1" parent="1" source="9IUaXPzacB2-Hm3dFwya-66" target="9IUaXPzacB2-Hm3dFwya-61">
          <mxGeometry relative="1" as="geometry">
            <Array as="points">
              <mxPoint x="1280" y="680" />
            </Array>
          </mxGeometry>
        </mxCell>
        <mxCell id="9IUaXPzacB2-Hm3dFwya-70" value="T" style="edgeStyle=none;curved=1;rounded=0;orthogonalLoop=1;jettySize=auto;html=1;fontSize=12;startSize=8;endSize=8;" edge="1" parent="1" source="9IUaXPzacB2-Hm3dFwya-66" target="9IUaXPzacB2-Hm3dFwya-69">
          <mxGeometry relative="1" as="geometry" />
        </mxCell>
        <mxCell id="9IUaXPzacB2-Hm3dFwya-66" value="20.2" style="ellipse;whiteSpace=wrap;html=1;aspect=fixed;fillColor=#dae8fc;strokeColor=#6c8ebf;" vertex="1" parent="1">
          <mxGeometry x="1260" y="530" width="50" height="50" as="geometry" />
        </mxCell>
        <mxCell id="9IUaXPzacB2-Hm3dFwya-72" value="T" style="edgeStyle=none;curved=1;rounded=0;orthogonalLoop=1;jettySize=auto;html=1;entryX=0;entryY=0.5;entryDx=0;entryDy=0;fontSize=12;startSize=8;endSize=8;" edge="1" parent="1" source="9IUaXPzacB2-Hm3dFwya-69" target="9IUaXPzacB2-Hm3dFwya-71">
          <mxGeometry relative="1" as="geometry" />
        </mxCell>
        <mxCell id="9IUaXPzacB2-Hm3dFwya-75" value="F" style="edgeStyle=none;curved=1;rounded=0;orthogonalLoop=1;jettySize=auto;html=1;entryX=0.5;entryY=1;entryDx=0;entryDy=0;fontSize=12;startSize=8;endSize=8;" edge="1" parent="1" source="9IUaXPzacB2-Hm3dFwya-69" target="9IUaXPzacB2-Hm3dFwya-74">
          <mxGeometry relative="1" as="geometry" />
        </mxCell>
        <mxCell id="9IUaXPzacB2-Hm3dFwya-69" value="21" style="ellipse;whiteSpace=wrap;html=1;aspect=fixed;fillColor=#dae8fc;strokeColor=#6c8ebf;" vertex="1" parent="1">
          <mxGeometry x="1360" y="530" width="50" height="50" as="geometry" />
        </mxCell>
        <mxCell id="9IUaXPzacB2-Hm3dFwya-73" style="edgeStyle=none;curved=1;rounded=0;orthogonalLoop=1;jettySize=auto;html=1;entryX=1;entryY=0.5;entryDx=0;entryDy=0;fontSize=12;startSize=8;endSize=8;" edge="1" parent="1" source="9IUaXPzacB2-Hm3dFwya-71" target="9IUaXPzacB2-Hm3dFwya-7">
          <mxGeometry relative="1" as="geometry">
            <Array as="points">
              <mxPoint x="1540" y="930" />
            </Array>
          </mxGeometry>
        </mxCell>
        <mxCell id="9IUaXPzacB2-Hm3dFwya-71" value="22" style="ellipse;whiteSpace=wrap;html=1;aspect=fixed;" vertex="1" parent="1">
          <mxGeometry x="1460" y="530" width="50" height="50" as="geometry" />
        </mxCell>
        <mxCell id="9IUaXPzacB2-Hm3dFwya-76" style="edgeStyle=none;curved=1;rounded=0;orthogonalLoop=1;jettySize=auto;html=1;entryX=0.5;entryY=0;entryDx=0;entryDy=0;fontSize=12;startSize=8;endSize=8;" edge="1" parent="1" source="9IUaXPzacB2-Hm3dFwya-74" target="9IUaXPzacB2-Hm3dFwya-66">
          <mxGeometry relative="1" as="geometry">
            <Array as="points">
              <mxPoint x="1280" y="440" />
            </Array>
          </mxGeometry>
        </mxCell>
        <mxCell id="9IUaXPzacB2-Hm3dFwya-74" value="20.3" style="ellipse;whiteSpace=wrap;html=1;aspect=fixed;" vertex="1" parent="1">
          <mxGeometry x="1360" y="430" width="50" height="50" as="geometry" />
        </mxCell>
      </root>
    </mxGraphModel>
  </diagram>
</mxfile>
